<svg width="89" height="133" viewBox="0 0 89 133" fill="none" xmlns="http://www.w3.org/2000/svg">
<path d="M81.3313 67.19C83.6962 82.3897 85.2916 97.6993 86.1113 113.06L21.1112 124.13C16.1344 109.531 12.1717 94.6053 9.25125 79.46C8.72458 76.7933 8.23125 74.0533 7.77125 71.24C7.21125 67.8467 6.71458 64.5133 6.28125 61.24C4.42083 47.5159 3.41889 33.689 3.28125 19.84L68.3512 8.76001C71.9112 20.99 75.2813 34.43 78.1413 49C78.5813 51.26 79.0113 53.54 79.4313 55.86C80.1313 59.6933 80.7646 63.47 81.3313 67.19Z" fill="white" stroke="#010101" stroke-miterlimit="10" stroke-linecap="round"/>
<path d="M2.9109 19.46C2.50423 17.1933 2.0909 14.9133 1.6709 12.62C2.9809 13.28 4.2909 13.96 5.5809 14.62L9.3809 11.16C10.9109 11.69 12.3809 12.22 13.9709 12.74L17.9709 9.91L23.9409 11.06L28.4309 8L34.1509 9.55L37.4909 6.29L43.0009 8.37L47.8509 4.28C49.6809 5.07 51.5009 5.87 53.3309 6.65L58.1909 2.85L62.1909 5.27C63.4409 4.06 65.8109 2.26 67.0509 1C67.7509 3.22 67.6009 6.1 68.3009 8.32C46.5809 12.06 24.6009 15.7 2.9109 19.46Z" fill="#1F705E" stroke="#010101" stroke-miterlimit="10" stroke-linecap="round"/>
<path d="M7.48117 23.06C8.38117 26.6 9.15117 30.16 9.84117 33.73C10.5312 37.3 11.1812 40.88 11.6812 44.49C12.1812 48.1 12.5212 51.72 13.0512 55.32C13.5812 58.92 14.2912 62.47 15.0012 66.06C15.7112 69.65 16.4712 73.19 17.1212 76.77C17.7712 80.35 18.4412 83.93 19.0212 87.52C20.1512 94.71 21.1312 101.92 21.7912 109.18C21.7943 109.192 21.7946 109.205 21.792 109.217C21.7894 109.229 21.784 109.24 21.7762 109.25C21.7684 109.26 21.7585 109.267 21.7472 109.273C21.7359 109.278 21.7236 109.28 21.7112 109.28C21.6904 109.28 21.6701 109.274 21.6537 109.261C21.6373 109.248 21.6258 109.23 21.6212 109.21C19.9012 102.13 18.4912 94.99 17.2212 87.82C16.6012 84.23 16.0812 80.63 15.5312 77.03C14.9812 73.43 14.5312 69.83 14.0712 66.21C13.6112 62.59 13.1312 58.99 12.4712 55.42C11.8112 51.85 11.0012 48.26 10.2912 44.69C9.58117 41.12 9.05117 37.53 8.54117 33.92C8.03117 30.31 7.61117 26.7 7.31117 23.06C7.30975 23.0487 7.31076 23.0372 7.31414 23.0263C7.31751 23.0154 7.32318 23.0053 7.33075 22.9968C7.33833 22.9883 7.34764 22.9815 7.35806 22.9769C7.36848 22.9722 7.37977 22.9699 7.39117 22.97C7.44117 22.98 7.48117 23.06 7.48117 23.06Z" fill="#010101"/>
<path d="M33.6407 117.06C35.5409 116.441 37.4738 115.926 39.4307 115.52C41.3725 115.087 43.335 114.754 45.3107 114.52C47.3107 114.3 49.3107 114.24 51.3107 113.98C53.2833 113.698 55.2395 113.311 57.1707 112.82C59.1107 112.34 61.0507 111.89 63.0107 111.53C64.9707 111.17 66.9106 110.75 68.8806 110.45C72.8282 109.84 76.8086 109.466 80.8007 109.33C80.8229 109.33 80.8444 109.338 80.861 109.353C80.8776 109.367 80.8882 109.388 80.8907 109.41C80.8903 109.429 80.8845 109.448 80.8739 109.464C80.8632 109.48 80.8482 109.492 80.8307 109.5C77.0036 110.64 73.1138 111.559 69.1807 112.25C67.1807 112.59 65.2507 112.85 63.2707 113.11C61.2907 113.37 59.2707 113.58 57.2707 113.75C55.2844 113.9 53.3079 114.16 51.3507 114.53C49.3507 114.91 47.4807 115.53 45.5307 115.93C43.5807 116.33 41.6107 116.62 39.6307 116.85C37.6391 117.089 35.6363 117.223 33.6307 117.25C33.6184 117.252 33.606 117.25 33.5943 117.247C33.5827 117.243 33.5721 117.236 33.5634 117.227C33.5547 117.219 33.5481 117.208 33.5441 117.196C33.5402 117.185 33.539 117.172 33.5407 117.16C33.5364 117.146 33.536 117.131 33.5395 117.117C33.543 117.103 33.5503 117.09 33.5605 117.08C33.5708 117.07 33.5837 117.062 33.5978 117.059C33.6119 117.055 33.6268 117.056 33.6407 117.06Z" fill="#010101"/>
<path d="M81.3313 67.19L9.25125 79.46C8.72458 76.7933 8.23125 74.0533 7.77125 71.24C7.21125 67.8467 6.71458 64.5133 6.28125 61.24L78.1413 49C78.5813 51.26 79.0213 53.54 79.4313 55.86C80.1313 59.6933 80.7646 63.47 81.3313 67.19Z" fill="#1F705E" stroke="#010101" stroke-miterlimit="10" stroke-linecap="round"/>
<path d="M53.5206 86.23C67.8806 81 75.9006 66.78 71.4206 54.47C66.9406 42.16 51.6606 36.47 37.2906 41.65C22.9206 46.83 14.9106 61.06 19.3906 73.41C23.8706 85.76 39.1506 91.46 53.5206 86.23Z" fill="#FAF28C" stroke="#010101" stroke-miterlimit="10"/>
<path d="M20.9209 124.35C21.2809 126.64 21.6509 128.93 22.0109 131.23C23.0309 130.17 24.0309 129.103 25.0109 128.03L29.7309 130.03L33.5409 127.03L38.2809 128.37L43.5209 125.37L48.7609 126.77L53.6509 123.41L57.8809 125.41L62.3509 121.63L68.2909 123.89C69.7509 122.53 71.2009 121.18 72.6709 119.83C74.6109 120.5 76.5609 121.15 78.5109 121.83C79.5109 120.62 80.5109 119.42 81.5109 118.22C83.1009 118.99 85.9209 119.86 87.5109 120.63C87.4409 118.3 86.3409 115.63 86.2709 113.31C64.5709 116.85 42.6409 120.72 20.9209 124.35Z" fill="#1F705E" stroke="#010101" stroke-miterlimit="10" stroke-linecap="round"/>
<path d="M80.691 61.84L80.951 63.34L78.511 64.16L77.811 64.39L77.891 66.12L78.171 72.79L78.001 72.42L76.701 68.78L75.401 65.06L67.541 64.89H67.001L67.661 64.71L75.391 62.55L74.931 53.71L77.061 62.02L79.061 61.94L80.691 61.84Z" fill="white" stroke="#010101" stroke-width="0.5" stroke-miterlimit="10" stroke-linecap="round"/>
<path d="M67.571 68.26L68.801 73.06L74.001 72.86L69.201 74.47L69.411 79.33L67.801 74.84L63.001 74.74L67.861 73.38L67.571 68.26Z" fill="white" stroke="#010101" stroke-width="0.5" stroke-miterlimit="10" stroke-linecap="round"/>
<path d="M39.7812 106.06C39.4681 105.892 39.1307 105.774 38.7812 105.71C38.452 105.635 38.1103 105.635 37.7812 105.71C37.5824 105.741 37.3878 105.795 37.2012 105.87C37.0284 105.932 36.8713 106.031 36.7412 106.16C36.6828 106.22 36.6403 106.293 36.6176 106.373C36.5949 106.454 36.5927 106.539 36.6112 106.62C36.6249 106.703 36.6584 106.782 36.7088 106.85C36.7593 106.918 36.8252 106.973 36.9012 107.01C37.0859 107.089 37.2814 107.139 37.4812 107.16H38.2712C38.5578 107.16 38.8378 107.18 39.1112 107.22C39.3749 107.238 39.6345 107.295 39.8812 107.39C40.1098 107.471 40.318 107.6 40.4912 107.77C40.664 107.959 40.7755 108.196 40.8112 108.45C40.8825 108.792 40.8256 109.148 40.6512 109.45C40.4705 109.761 40.212 110.019 39.9012 110.2C39.5554 110.405 39.1763 110.547 38.7812 110.62C38.2806 110.694 37.7717 110.694 37.2712 110.62C36.8057 110.549 36.3675 110.356 36.0012 110.06L36.6312 109.25C36.914 109.462 37.2387 109.61 37.5836 109.686C37.9285 109.762 38.2857 109.763 38.6312 109.69C38.8193 109.65 39.0034 109.593 39.1812 109.52C39.3552 109.451 39.5121 109.345 39.6412 109.21C39.698 109.145 39.7385 109.068 39.7594 108.985C39.7802 108.901 39.7808 108.814 39.7612 108.73C39.7508 108.65 39.7194 108.575 39.6701 108.512C39.6209 108.449 39.5557 108.4 39.4812 108.37C39.2972 108.28 39.0957 108.233 38.8912 108.23C38.6412 108.23 38.3812 108.23 38.1112 108.23C37.7384 108.193 37.3678 108.137 37.0012 108.06C36.6628 108.013 36.3405 107.887 36.0612 107.69C35.7873 107.451 35.6096 107.12 35.5612 106.76C35.5015 106.444 35.5584 106.117 35.7212 105.84C35.9097 105.537 36.1709 105.286 36.4812 105.11C36.8368 104.904 37.2261 104.761 37.6312 104.69C37.9249 104.639 38.2232 104.619 38.5212 104.63C38.8322 104.633 39.1414 104.677 39.4412 104.76C39.7338 104.836 40.0089 104.969 40.2512 105.15L39.7812 106.06ZM48.5512 107.99C48.3685 108.195 48.1639 108.379 47.9412 108.54C47.6883 108.73 47.4129 108.888 47.1212 109.01C46.8 109.149 46.4647 109.253 46.1212 109.32C45.5257 109.458 44.9066 109.458 44.3112 109.32C43.7876 109.178 43.3134 108.894 42.9412 108.5C42.5776 108.108 42.3376 107.618 42.2512 107.09C42.1255 106.518 42.1779 105.921 42.4012 105.38C42.6151 104.88 42.9608 104.448 43.4012 104.13C43.8633 103.791 44.3969 103.561 44.9612 103.46C45.4741 103.364 46.0029 103.394 46.5012 103.55C46.9693 103.693 47.3906 103.959 47.7212 104.32C48.0759 104.7 48.3092 105.177 48.3912 105.69L48.4712 106.21L43.4712 107.13C43.5612 107.356 43.6963 107.561 43.8682 107.733C44.0401 107.905 44.2453 108.04 44.4712 108.13C45.0038 108.347 45.59 108.396 46.1512 108.27C46.5485 108.211 46.9276 108.064 47.2612 107.84C47.5023 107.672 47.7266 107.481 47.9312 107.27L48.5512 107.99ZM45.1412 104.44C44.672 104.519 44.2291 104.711 43.8512 105C43.6765 105.145 43.5364 105.327 43.4413 105.533C43.3461 105.739 43.2982 105.963 43.3012 106.19L47.1712 105.48V105.36C47.1032 105.121 46.9549 104.912 46.7512 104.77C46.5322 104.608 46.279 104.499 46.0112 104.45C45.7267 104.379 45.4309 104.365 45.1412 104.41V104.44ZM56.3812 106.56C56.198 106.762 55.9935 106.943 55.7712 107.1C55.5128 107.29 55.2344 107.451 54.9412 107.58C54.6224 107.723 54.2862 107.824 53.9412 107.88C53.3422 108.005 52.7223 107.988 52.1312 107.83C51.6099 107.688 51.1366 107.408 50.7612 107.02C50.3995 106.627 50.1598 106.137 50.0712 105.61C49.9437 105.054 49.983 104.473 50.1839 103.94C50.3849 103.406 50.7387 102.944 51.2012 102.61C51.6633 102.271 52.1969 102.041 52.7612 101.94C53.2738 101.838 53.8038 101.869 54.3012 102.03C54.7693 102.173 55.1906 102.439 55.5212 102.8C55.878 103.178 56.1116 103.656 56.1912 104.17L56.2712 104.69L51.2712 105.61C51.3612 105.836 51.4963 106.041 51.6682 106.213C51.8401 106.385 52.0453 106.52 52.2712 106.61C52.8049 106.822 53.3896 106.871 53.9512 106.75C54.3484 106.691 54.7276 106.544 55.0612 106.32C55.2976 106.146 55.5214 105.955 55.7312 105.75L56.3812 106.56ZM53.0012 102.98C52.5306 103.054 52.0867 103.247 51.7112 103.54C51.5373 103.683 51.3976 103.863 51.3025 104.068C51.2073 104.272 51.159 104.495 51.1612 104.72L55.0012 104.06V103.94C54.931 103.699 54.7833 103.488 54.5812 103.34C54.3616 103.181 54.1084 103.075 53.8412 103.03C53.5669 102.96 53.2818 102.943 53.0012 102.98V102.98ZM63.2712 97.77L64.7312 105.77L63.6212 105.98L63.4612 105.09C63.343 105.303 63.191 105.496 63.0112 105.66C62.8116 105.862 62.5864 106.037 62.3412 106.18C62.0619 106.328 61.7618 106.432 61.4512 106.49C60.9147 106.594 60.3606 106.559 59.8412 106.39C59.353 106.224 58.9204 105.927 58.5912 105.53C58.2506 105.112 58.0264 104.612 57.9412 104.08C57.8319 103.547 57.87 102.993 58.0512 102.48C58.2174 101.992 58.5192 101.562 58.9212 101.24C59.339 100.892 59.8437 100.664 60.3812 100.58C60.8227 100.485 61.2796 100.485 61.7212 100.58C62.083 100.656 62.4241 100.81 62.7212 101.03L62.1512 97.95L63.2712 97.77ZM61.4712 105.47C61.8382 105.404 62.1824 105.246 62.4712 105.01C62.7386 104.791 62.9423 104.504 63.0612 104.18C63.1754 103.839 63.1995 103.473 63.1312 103.12C63.0801 102.752 62.9278 102.406 62.6912 102.12C62.4732 101.852 62.1811 101.653 61.8512 101.55C61.4926 101.434 61.1101 101.413 60.7412 101.49C60.3736 101.548 60.0282 101.703 59.7412 101.94C59.4718 102.153 59.2675 102.437 59.1512 102.76C59.0294 103.1 59.0017 103.466 59.0712 103.82C59.1251 104.189 59.2809 104.535 59.5212 104.82C59.7475 105.079 60.0368 105.275 60.3612 105.39C60.7086 105.508 61.0802 105.535 61.4412 105.47H61.4712ZM70.3212 100.47C70.0101 100.297 69.672 100.179 69.3212 100.12C68.9912 100.052 68.6511 100.052 68.3212 100.12C68.1263 100.154 67.9354 100.208 67.7512 100.28C67.5758 100.341 67.418 100.444 67.2912 100.58C67.2303 100.638 67.1862 100.711 67.1633 100.792C67.1404 100.873 67.1397 100.959 67.1612 101.04C67.1729 101.121 67.2046 101.199 67.2535 101.265C67.3023 101.331 67.3668 101.385 67.4412 101.42C67.6263 101.508 67.8267 101.558 68.0312 101.57H68.8212C69.1022 101.57 69.3829 101.59 69.6612 101.63C69.9247 101.649 70.1841 101.706 70.4312 101.8C70.6597 101.875 70.866 102.005 71.0312 102.18C71.2127 102.364 71.3287 102.603 71.3612 102.86C71.4297 103.202 71.3729 103.557 71.2011 103.86C71.0169 104.174 70.7553 104.436 70.4412 104.62C70.0976 104.827 69.7173 104.966 69.3212 105.03C68.8247 105.115 68.3176 105.115 67.8212 105.03C67.3369 104.959 66.8807 104.759 66.5012 104.45L67.1412 103.64C67.4144 103.831 67.719 103.974 68.0412 104.06C68.4102 104.14 68.7922 104.14 69.1612 104.06C69.3508 104.026 69.5356 103.969 69.7112 103.89C69.8827 103.821 70.039 103.719 70.1712 103.59C70.2292 103.524 70.2711 103.445 70.2936 103.36C70.3162 103.275 70.3188 103.186 70.3012 103.1C70.2856 103.022 70.2522 102.949 70.2036 102.887C70.155 102.824 70.0926 102.774 70.0211 102.74C69.8302 102.661 69.6275 102.614 69.4212 102.6C69.1812 102.6 68.9212 102.6 68.6412 102.6C68.2412 102.6 67.8511 102.6 67.4911 102.5C67.1315 102.458 66.7879 102.327 66.4911 102.12C66.2203 101.88 66.0461 101.549 66.0012 101.19C65.9367 100.874 65.9939 100.546 66.1612 100.27C66.3503 99.9702 66.6116 99.7227 66.9212 99.55C67.2761 99.342 67.6657 99.1997 68.0712 99.13C68.3775 99.0718 68.6895 99.0483 69.0012 99.06C69.3126 99.0576 69.6226 99.1014 69.9212 99.19C70.2153 99.2623 70.4912 99.3951 70.7312 99.58L70.3212 100.47Z" fill="#010101"/>
<path d="M31.8809 57.23C36.1786 59.7605 39.705 63.4149 42.0809 67.8C44.2809 72.06 43.7309 74.06 46.2609 83.93C48.4909 92.61 50.3409 96.53 49.7609 96.79C48.9209 97.19 43.9709 89.01 40.1909 81C36.5921 73.3912 33.8067 65.4237 31.8809 57.23V57.23Z" fill="#3A7867" stroke="#231F20" stroke-width="0.5" stroke-miterlimit="10"/>
<path d="M49.4111 96.82C51.0711 90.44 52.1011 85.55 52.7511 82.12C53.1381 79.178 54.309 76.3942 56.1411 74.06C56.8811 73.19 58.6411 71.13 60.9111 71.17C61.8511 71.17 62.7511 71.56 62.8111 71.4C62.8711 71.24 61.6111 70.4 60.4911 70.02C58.2102 69.4313 55.7923 69.7055 53.7011 70.79C49.5511 72.7 47.5811 83.23 49.4111 96.82Z" fill="#3A7867" stroke="#231F20" stroke-width="0.5" stroke-miterlimit="10"/>
<path d="M49.091 91.53C49.831 80.13 51.261 71.68 52.511 68.69C53.0343 67.1002 54.0951 65.7424 55.511 64.85C56.851 64.11 58.141 64.21 58.161 63.85C58.181 63.49 56.001 62.57 54.001 62.82C50.581 63.26 48.491 66.99 47.641 68.52C43.001 76.94 48.061 89.17 49.091 91.53Z" fill="#3A7867" stroke="#231F20" stroke-width="0.5" stroke-miterlimit="10"/>
<path d="M54.6109 42.22C52.2109 41.58 49.5409 41.33 47.3209 42.47C46.2436 43.0614 45.3323 43.9142 44.6709 44.95C44.3275 45.463 44.0297 46.0051 43.7809 46.57C43.5809 47.16 43.3209 47.72 43.1809 48.32C42.5575 50.7401 42.2516 53.231 42.2709 55.73C42.2662 58.236 42.4064 60.7402 42.6909 63.23C43.2919 68.219 44.1733 73.1701 45.3309 78.06C46.4809 82.95 47.8109 87.81 49.3309 92.58L47.8909 92.77C48.428 80.2723 48.0469 67.7519 46.7509 55.31C46.3817 52.2386 45.824 49.1929 45.0809 46.19C44.449 43.2446 43.1868 40.471 41.3809 38.06C40.486 36.9335 39.2457 36.1324 37.8509 35.78C36.4025 35.5113 34.9076 35.6605 33.5409 36.21C30.6757 37.4043 28.045 39.0972 25.7709 41.21L25.6309 41.06C26.7128 39.9052 27.8757 38.8292 29.1109 37.84C30.3572 36.8232 31.7283 35.9696 33.1909 35.3C34.7211 34.5941 36.4213 34.3408 38.0909 34.57C39.7907 34.8956 41.3365 35.7704 42.4909 37.06C43.5928 38.2932 44.4969 39.6898 45.1709 41.2C45.8469 42.6644 46.4086 44.1789 46.8509 45.73C47.7374 48.7853 48.386 51.9046 48.7909 55.06C49.5673 61.3294 49.9314 67.6429 49.8809 73.96C49.8809 80.26 49.6809 86.55 49.3809 92.83L49.1809 97.06L48.0009 93.06C46.5209 88.2 45.2809 83.3 44.2109 78.35C43.1179 73.4022 42.3231 68.3931 41.8309 63.35C41.6009 60.8203 41.5208 58.2792 41.5909 55.74C41.6321 53.1866 42.0018 50.649 42.6909 48.19C42.8609 47.58 43.1409 46.99 43.3609 46.39L43.8209 45.54L44.0009 45.06L44.2809 44.67C45.0079 43.5896 45.9948 42.7093 47.1509 42.11C49.5409 40.97 52.2609 41.31 54.6609 42.01L54.6109 42.22Z" fill="#1E6F5D"/>
<path d="M38.4707 77.98C39.9507 81.13 41.3007 83.56 42.2707 85.21C43.3807 87.1 43.4907 87.12 44.3507 88.68C45.8307 91.37 46.2207 92.63 47.5907 94.42C48.2384 95.2761 48.9649 96.0696 49.7607 96.79C50.0907 91.79 48.7607 88.99 47.5307 87.32C46.5018 86.1115 45.3674 84.9971 44.1407 83.99C42.1252 82.1089 40.2313 80.1015 38.4707 77.98Z" fill="#1E6F5D"/>
<path d="M38.4904 78.06C39.4904 79.52 40.3504 81.21 41.2904 82.75L44.1204 87.46C45.0204 89.09 45.6804 90.83 46.4904 92.46C47.3463 94.0692 48.516 95.4905 49.9304 96.64L49.5104 96.82C49.5583 94.9419 49.3395 93.0666 48.8604 91.25C48.3857 89.4796 47.4426 87.8698 46.1304 86.59C44.7704 85.31 43.3404 83.96 42.0404 82.59C41.3904 81.88 40.7704 81.14 40.1604 80.4C39.8504 80.03 39.5604 79.64 39.2704 79.26C38.9709 78.8871 38.7096 78.4851 38.4904 78.06V78.06ZM38.4404 77.97C38.8182 78.2836 39.1787 78.6174 39.5204 78.97L40.5204 79.97C41.1904 80.65 41.9004 81.29 42.5904 81.97C43.9704 83.29 45.4204 84.47 46.8604 85.8C48.2991 87.2173 49.299 89.0192 49.7404 90.99C50.158 92.901 50.2459 94.8693 50.0004 96.81L49.9404 97.35L49.5704 96.98C48.2478 95.6736 47.1045 94.1974 46.1704 92.59C45.2604 90.98 44.3604 89.38 43.3704 87.86C42.3585 86.3165 41.4402 84.7136 40.6204 83.06C39.7658 81.4072 39.0371 79.6924 38.4404 77.93V77.97Z" fill="#231F20"/>
<path d="M59.9404 71.27C60.9743 71.8564 61.8178 72.7277 62.3704 73.78C63.5604 76.21 62.4304 78.71 62.9304 78.87C63.4304 79.03 64.6904 77.26 64.7504 75.23C64.8215 74.5601 64.7263 73.883 64.4734 73.2586C64.2205 72.6341 63.8176 72.0817 63.3004 71.65C62.8054 71.3372 62.2459 71.1405 61.664 71.0747C61.0821 71.0089 60.4929 71.0757 59.9404 71.27V71.27Z" fill="#1E6F5D" stroke="#231F20" stroke-width="0.5" stroke-miterlimit="10"/>
<path d="M48.1006 57.88C48.1568 56.8235 48.5303 55.8085 49.1723 54.9675C49.8144 54.1266 50.6951 53.4988 51.6995 53.1662C52.7038 52.8335 53.7852 52.8115 54.8022 53.103C55.8193 53.3945 56.7249 53.9859 57.4006 54.8" stroke="#1E6F5D" stroke-width="1.5" stroke-miterlimit="10"/>
<path d="M42.3208 37.98C39.2508 37.62 36.5308 38.71 35.4708 40.74C35.1136 41.4588 34.9515 42.2588 35.0008 43.06" stroke="#1E6F5D" stroke-width="1.5" stroke-miterlimit="10"/>
<path d="M43.7207 40.29C44.7207 37.72 46.7207 36.49 48.2607 37.01C49.0046 37.3428 49.5968 37.9422 49.9207 38.69" stroke="#1E6F5D" stroke-width="1.5" stroke-miterlimit="10"/>
<path d="M47.0013 50.4C46.1597 50.4217 45.3315 50.6158 44.5679 50.9701C43.8042 51.3244 43.1213 51.8315 42.5613 52.46C41.8701 53.2907 41.4265 54.2991 41.2812 55.37" stroke="#1E6F5D" stroke-width="1.5" stroke-miterlimit="10"/>
<path d="M42.001 59.94C41.751 59.94 38.051 60.38 37.071 62.94C36.9071 63.3777 36.829 63.8428 36.841 64.31" stroke="#1E6F5D" stroke-width="1.5" stroke-miterlimit="10"/>
<path d="M56.0006 53.57C54.4906 54.13 54.1106 55.99 54.0006 56.68C53.7931 57.729 53.8761 58.8147 54.2406 59.82C54.2512 59.8991 54.2442 59.9796 54.22 60.0557C54.1958 60.1318 54.155 60.2016 54.1006 60.26C54.033 60.32 53.9536 60.3652 53.8675 60.3927C53.7814 60.4203 53.6905 60.4296 53.6006 60.42C53.1906 60.42 52.9906 60.12 52.9206 60.18C52.8506 60.24 53.0306 61.02 53.6006 61.18C53.8501 61.2405 54.1125 61.2186 54.3486 61.1177C54.5848 61.0168 54.7819 60.8422 54.9106 60.62C55.1121 60.8454 55.39 60.9879 55.6906 61.02C56.0406 60.9947 56.3717 60.8513 56.6297 60.6133C56.8876 60.3753 57.0572 60.0569 57.1106 59.71C57.3126 59.9338 57.5704 60.0998 57.8577 60.1911C58.145 60.2823 58.4514 60.2956 58.7455 60.2294C59.0396 60.1633 59.3108 60.0201 59.5314 59.8146C59.7519 59.6091 59.9139 59.3487 60.0006 59.06C60.1003 59.2655 60.2571 59.4379 60.4521 59.5567C60.6472 59.6755 60.8723 59.7357 61.1006 59.73C61.5406 59.73 61.8206 59.35 62.2006 58.86C62.2006 58.86 62.5906 58.36 62.5006 58.27C62.4106 58.18 61.9606 58.7 61.4306 58.62C61.1887 58.5759 60.9715 58.4441 60.8206 58.25C60.1206 57.5 60.1906 56.68 59.7306 55.64C59.47 54.8469 58.9344 54.173 58.2206 53.74C57.8805 53.5652 57.509 53.4601 57.1277 53.431C56.7465 53.4018 56.3633 53.449 56.0006 53.57V53.57Z" fill="url(#paint0_linear_1362:321)"/>
<path d="M56.0004 53.62C55.4769 53.8442 55.0512 54.2487 54.8004 54.76C54.5551 55.2773 54.3963 55.8313 54.3304 56.4C54.1804 57.4993 54.2865 58.6184 54.6404 59.67V59.73C54.6549 59.9036 54.6237 60.078 54.5501 60.2358C54.4764 60.3937 54.3628 60.5296 54.2204 60.63C54.0909 60.7077 53.9463 60.7568 53.7962 60.774C53.6462 60.7913 53.4942 60.7763 53.3504 60.73C53.2196 60.701 53.0945 60.6503 52.9804 60.58L52.8404 60.48C52.8404 60.48 52.8404 60.48 52.9504 60.48C53.0166 60.4764 53.0801 60.4524 53.1321 60.4112C53.184 60.37 53.2219 60.3137 53.2404 60.25V60.25C53.2404 60.25 53.2404 60.25 53.2404 60.33C53.2511 60.3991 53.2713 60.4664 53.3004 60.53C53.3446 60.6682 53.4311 60.7889 53.5478 60.8751C53.6645 60.9613 53.8054 61.0085 53.9504 61.01C54.1154 60.9997 54.2758 60.952 54.4196 60.8706C54.5634 60.7892 54.6868 60.6761 54.7804 60.54L54.9004 60.37L55.0304 60.51C55.1715 60.6779 55.3596 60.7998 55.5704 60.86C55.7824 60.9013 56.0022 60.8658 56.1904 60.76C56.3796 60.638 56.54 60.4765 56.6609 60.2866C56.7817 60.0968 56.86 59.883 56.8904 59.66L56.9604 59.27L57.2704 59.57C57.4447 59.7389 57.6605 59.8588 57.8959 59.9177C58.1313 59.9766 58.3781 59.9723 58.6114 59.9054C58.8446 59.8385 59.0561 59.7112 59.2245 59.5364C59.3929 59.3617 59.5122 59.1456 59.5704 58.91L59.8104 57.75L60.3604 58.84C60.438 58.9775 60.5574 59.0866 60.7013 59.1513C60.8453 59.2161 61.0061 59.2331 61.1604 59.2C61.4879 58.9202 61.7593 58.5809 61.9604 58.2C61.9604 58.2 61.9604 58.09 61.9604 58.2C61.9498 58.2621 61.9532 58.3258 61.9705 58.3864C61.9879 58.447 62.0186 58.5029 62.0604 58.55C62.1346 58.6384 62.237 58.6985 62.3504 58.72C62.4028 58.7345 62.4581 58.7345 62.5104 58.72H62.5904C62.5204 58.72 62.3704 58.86 62.2204 58.93C62.0395 59.0408 61.8361 59.11 61.6251 59.1325C61.4141 59.155 61.2007 59.1302 61.0004 59.06C60.673 58.8976 60.3963 58.6486 60.2004 58.34C60.0171 58.0802 59.8754 57.7934 59.7804 57.49C59.6004 56.91 59.5304 56.41 59.3804 55.93C59.25 55.4413 59.0514 54.9733 58.7904 54.54C58.4942 54.0979 58.0589 53.7674 57.5535 53.6007C57.0481 53.4341 56.5015 53.4408 56.0004 53.62V53.62ZM56.0004 53.53C56.5222 53.339 57.0877 53.3008 57.6304 53.42C58.2067 53.5066 58.7397 53.7766 59.1504 54.19C59.5641 54.6014 59.9025 55.0819 60.1504 55.61C60.3668 56.1098 60.557 56.6205 60.7204 57.14C60.791 57.3461 60.8958 57.5387 61.0304 57.71C61.1349 57.855 61.2676 57.9774 61.4204 58.07C61.4904 58.07 61.5704 58.07 61.7504 58.07L62.0804 57.88C62.1608 57.8321 62.2487 57.7983 62.3404 57.78C62.413 57.7652 62.4878 57.7652 62.5604 57.78C62.6907 57.8055 62.8076 57.8763 62.8904 57.98C62.9858 58.1056 63.0288 58.2633 63.0104 58.42C62.9871 58.5556 62.9361 58.685 62.8604 58.8C62.7001 59.051 62.5195 59.2884 62.3204 59.51C62.1 59.7902 61.8153 60.0131 61.4904 60.16C61.1195 60.2688 60.7217 60.2396 60.3706 60.0779C60.0194 59.9161 59.7388 59.6327 59.5804 59.28L60.3804 59.21C60.2604 59.5549 60.0508 59.8616 59.7731 60.0988C59.4955 60.3361 59.1598 60.4952 58.8004 60.56C58.4565 60.6197 58.1029 60.5883 57.7749 60.4691C57.4468 60.3498 57.1557 60.1467 56.9304 59.88L57.3004 59.79C57.2301 60.0578 57.1048 60.3081 56.9327 60.525C56.7606 60.7419 56.5453 60.9206 56.3004 61.05C56.0522 61.1921 55.7605 61.2384 55.4804 61.18C55.2045 61.1135 54.9542 60.9674 54.7604 60.76H55.0104C54.8969 60.949 54.7447 61.1117 54.5637 61.2375C54.3827 61.3634 54.1771 61.4494 53.9604 61.49C53.7185 61.5191 53.4734 61.4757 53.2562 61.3653C53.039 61.2549 52.8595 61.0826 52.7404 60.87C52.6713 60.7684 52.6174 60.6572 52.5804 60.54C52.5579 60.4749 52.5412 60.408 52.5304 60.34C52.5211 60.2837 52.5211 60.2263 52.5304 60.17C52.5439 60.0822 52.5869 60.0017 52.6524 59.9417C52.7178 59.8817 52.8018 59.8458 52.8904 59.84C52.979 59.837 53.0663 59.8615 53.1404 59.91H53.2204L53.3304 59.96C53.3868 59.9682 53.4441 59.9682 53.5004 59.96C53.5824 59.9812 53.6684 59.9812 53.7504 59.96C53.7602 59.9206 53.7602 59.8794 53.7504 59.84V59.95C53.5287 59.3544 53.4103 58.7254 53.4004 58.09C53.406 57.4616 53.5211 56.8389 53.7404 56.25C53.8909 55.657 54.1719 55.1051 54.5629 54.6345C54.9539 54.1639 55.445 53.7866 56.0004 53.53Z" fill="#231F20"/>
<path d="M41.3209 53.68C39.7309 53.86 38.9009 55.58 38.6009 56.22C38.1489 57.1867 37.9724 58.2594 38.0909 59.32C38.0778 59.3999 38.049 59.4765 38.0061 59.5451C37.9632 59.6138 37.907 59.6733 37.8409 59.72C37.759 59.7564 37.6704 59.7752 37.5809 59.7752C37.4913 59.7752 37.4027 59.7564 37.3209 59.72C36.9309 59.6 36.8009 59.28 36.7209 59.32C36.6409 59.36 36.6209 60.17 37.1309 60.49C37.3609 60.605 37.6216 60.6438 37.8751 60.6006C38.1286 60.5575 38.3618 60.4347 38.5409 60.25C38.6788 60.5167 38.9102 60.7232 39.1909 60.83C39.5389 60.8905 39.8972 60.8303 40.2064 60.6594C40.5155 60.4884 40.757 60.217 40.8909 59.89C41.0334 60.1647 41.2487 60.395 41.5132 60.5557C41.7778 60.7165 42.0813 60.8015 42.3909 60.8015C42.7004 60.8015 43.0039 60.7165 43.2685 60.5557C43.533 60.395 43.7483 60.1647 43.8909 59.89C43.9382 60.1135 44.0493 60.3184 44.2109 60.48C44.3724 60.6415 44.5774 60.7527 44.8009 60.8C45.2309 60.89 45.5909 60.6 46.0809 60.21C46.0809 60.21 46.5709 59.82 46.5109 59.72C46.4509 59.62 45.8809 60.01 45.3809 59.8C45.1571 59.6973 44.9791 59.5158 44.8809 59.29C44.3909 58.4 44.6409 57.63 44.4509 56.5C44.3884 55.6714 44.0341 54.8919 43.4509 54.3C43.155 54.06 42.8142 53.8815 42.4484 53.7751C42.0826 53.6686 41.6993 53.6363 41.3209 53.68V53.68Z" fill="url(#paint1_linear_1362:321)"/>
<path d="M41.3305 53.73C40.7542 53.8084 40.2272 54.0969 39.8505 54.54C39.4844 54.9957 39.1971 55.5095 39.0005 56.06C38.598 57.0933 38.4373 58.205 38.5305 59.31V59.42C38.5028 59.5911 38.431 59.752 38.3223 59.887C38.2136 60.022 38.0717 60.1264 37.9105 60.19C37.7586 60.2366 37.5983 60.2491 37.441 60.2266C37.2837 60.2042 37.1333 60.1473 37.0005 60.06C36.8823 60.0009 36.7743 59.9232 36.6805 59.83L36.5605 59.7C36.5605 59.7 36.5605 59.7 36.6705 59.7C36.7344 59.7144 36.8012 59.7076 36.8608 59.6805C36.9203 59.6534 36.9694 59.6076 37.0005 59.55C37.0005 59.55 37.0005 59.55 37.0005 59.55C37.0005 59.55 37.0005 59.55 37.0005 59.63C36.9905 59.703 36.9905 59.777 37.0005 59.85C37.0117 59.9932 37.0666 60.1295 37.1578 60.2404C37.2491 60.3513 37.3722 60.4315 37.5105 60.47C37.6743 60.4989 37.8426 60.4895 38.0021 60.4427C38.1617 60.3959 38.3083 60.3128 38.4305 60.2L38.5905 60.07L38.6805 60.24C38.7808 60.4344 38.9331 60.5971 39.1205 60.71C39.3238 60.785 39.5472 60.785 39.7505 60.71C39.9627 60.6394 40.1569 60.5231 40.3193 60.3693C40.4817 60.2155 40.6084 60.028 40.6905 59.82L40.8505 59.45L41.0805 59.81C41.2153 60.0238 41.4055 60.1971 41.6309 60.3116C41.8562 60.426 42.1084 60.4773 42.3605 60.46C42.5933 60.4415 42.8174 60.3637 43.0117 60.2342C43.206 60.1047 43.3639 59.9277 43.4705 59.72L44.0005 58.66L44.2805 59.84C44.3197 59.9917 44.4072 60.1266 44.53 60.224C44.6527 60.3215 44.8039 60.3763 44.9605 60.38C45.3405 60.1991 45.6805 59.9441 45.9605 59.63C45.9605 59.63 46.0205 59.53 45.9605 59.63C45.9138 59.7455 45.9138 59.8745 45.9605 59.99C46.0113 60.0923 46.0962 60.1736 46.2005 60.22C46.2532 60.2317 46.3078 60.2317 46.3605 60.22H46.4405L46.0305 60.34C45.8251 60.3949 45.6101 60.4037 45.4009 60.3657C45.1917 60.3276 44.9935 60.2437 44.8205 60.12C44.5367 59.8874 44.3251 59.5786 44.2105 59.23C44.0991 58.9516 44.0284 58.6586 44.0005 58.36C44.0005 57.75 44.0005 57.25 44.0005 56.76C43.9899 56.2506 43.9057 55.7453 43.7505 55.26C43.5664 54.7779 43.2312 54.3683 42.795 54.0925C42.3588 53.8167 41.845 53.6896 41.3305 53.73V53.73ZM41.3305 53.63C41.8826 53.5767 42.4389 53.6734 42.9405 53.91C43.4792 54.1465 43.9279 54.5496 44.2205 55.06C44.5152 55.5585 44.7248 56.1026 44.8405 56.67C44.9219 57.1968 44.9753 57.7275 45.0005 58.26C45.0286 58.4767 45.0858 58.6886 45.1705 58.89C45.2415 59.0521 45.3396 59.2008 45.4605 59.33C45.5139 59.3543 45.5719 59.3669 45.6305 59.3669C45.6892 59.3669 45.7472 59.3543 45.8005 59.33C45.9227 59.3007 46.0429 59.264 46.1605 59.22C46.2534 59.2075 46.3476 59.2075 46.4405 59.22C46.5133 59.2286 46.5842 59.2488 46.6505 59.28C46.7699 59.3349 46.8657 59.4306 46.9205 59.55C46.9723 59.6231 47.0065 59.7071 47.0204 59.7956C47.0343 59.8841 47.0275 59.9746 47.0005 60.06C46.9444 60.183 46.8665 60.2948 46.7705 60.39C46.5559 60.5989 46.3214 60.7864 46.0705 60.95C45.7819 61.1823 45.4368 61.3341 45.0705 61.39C44.6801 61.4099 44.296 61.2853 43.9916 61.04C43.6873 60.7946 43.484 60.4458 43.4205 60.06L44.2105 60.18C44.0254 60.502 43.7543 60.7662 43.4276 60.9428C43.1008 61.1194 42.7313 61.2015 42.3605 61.18C42.0098 61.1557 41.6717 61.0393 41.3803 60.8427C41.0888 60.6461 40.8544 60.3761 40.7005 60.06H41.0805C40.9465 60.3013 40.7663 60.5138 40.5501 60.6854C40.3339 60.857 40.086 60.9843 39.8205 61.06C39.5432 61.1334 39.2487 61.105 38.9905 60.98C38.741 60.849 38.5358 60.6472 38.4005 60.4H38.6505C38.4928 60.555 38.3049 60.6758 38.0984 60.7549C37.892 60.8341 37.6714 60.8698 37.4505 60.86C37.214 60.8245 36.9931 60.7203 36.8153 60.5603C36.6375 60.4003 36.5106 60.1915 36.4505 59.96C36.411 59.8472 36.3874 59.7294 36.3805 59.61C36.3706 59.5404 36.3706 59.4696 36.3805 59.4C36.371 59.3471 36.371 59.2929 36.3805 59.24C36.4168 59.1596 36.4787 59.0935 36.5564 59.0519C36.6342 59.0103 36.7235 58.9956 36.8105 59.01C36.8958 59.0307 36.9748 59.0719 37.0405 59.13L37.1105 59.19L37.2005 59.27C37.2484 59.3065 37.3027 59.3336 37.3605 59.35C37.4605 59.35 37.6205 59.35 37.6105 59.35C37.6005 59.35 37.6105 59.35 37.6105 59.24V59.35C37.5389 58.7221 37.5727 58.0867 37.7105 57.47C37.868 56.8603 38.1284 56.282 38.4805 55.76C38.7663 55.2166 39.1694 54.7435 39.6606 54.3751C40.1518 54.0067 40.7188 53.7522 41.3205 53.63H41.3305Z" fill="#231F20"/>
<path d="M37.0005 62.83C35.4005 63.01 34.5805 64.73 34.2805 65.36C33.8268 66.3298 33.647 67.4053 33.7605 68.47C33.7485 68.5477 33.7211 68.6223 33.6799 68.6892C33.6387 68.7562 33.5845 68.8143 33.5205 68.86C33.4385 68.8958 33.35 68.9143 33.2605 68.9143C33.1711 68.9143 33.0826 68.8958 33.0005 68.86C32.6005 68.74 32.4805 68.42 32.4005 68.46C32.3205 68.5 32.3005 69.3 32.8105 69.63C33.0406 69.745 33.3013 69.7838 33.5548 69.7406C33.8083 69.6975 34.0415 69.5747 34.2205 69.39C34.3585 69.6567 34.5899 69.8633 34.8705 69.97C35.2183 70.0268 35.575 69.965 35.8834 69.7945C36.1917 69.624 36.4338 69.3547 36.5705 69.03C36.7173 69.2923 36.9313 69.5108 37.1906 69.6629C37.4498 69.8149 37.745 69.8951 38.0455 69.8951C38.3461 69.8951 38.6413 69.8149 38.9005 69.6629C39.1598 69.5108 39.3738 69.2923 39.5205 69.03C39.569 69.253 39.6806 69.4573 39.8419 69.6186C40.0033 69.78 40.2076 69.8915 40.4305 69.94C40.8605 70.03 41.2205 69.74 41.7105 69.35C41.7105 69.35 42.2005 68.96 42.1405 68.86C42.0805 68.76 41.5105 69.14 41.0105 68.94C40.7868 68.8373 40.6087 68.6558 40.5105 68.43C40.0105 67.54 40.2705 66.76 40.0805 65.64C40.0121 64.8101 39.6588 64.0293 39.0805 63.43C38.4892 62.9718 37.745 62.7572 37.0005 62.83V62.83Z" fill="url(#paint2_linear_1362:321)"/>
<path d="M37.001 62.88C36.4232 62.9537 35.8945 63.2431 35.521 63.69C35.1564 64.132 34.869 64.6323 34.671 65.17C34.2661 66.2028 34.102 67.3143 34.191 68.42V68.54C34.1616 68.7093 34.0891 68.8681 33.9806 69.0012C33.872 69.1343 33.7309 69.2372 33.571 69.3C33.427 69.345 33.2752 69.3594 33.1254 69.3421C32.9755 69.3249 32.831 69.2765 32.701 69.2C32.5824 69.1373 32.4744 69.0563 32.381 68.96L32.261 68.84C32.261 68.84 32.261 68.84 32.371 68.84C32.4345 68.8529 32.5006 68.8442 32.5586 68.8152C32.6166 68.7862 32.6632 68.7386 32.691 68.68C32.691 68.68 32.691 68.68 32.691 68.68C32.6853 68.7064 32.6853 68.7336 32.691 68.76C32.6762 68.8326 32.6762 68.9074 32.691 68.98C32.7021 69.1232 32.757 69.2595 32.8483 69.3704C32.9395 69.4813 33.0626 69.5615 33.201 69.6C33.3648 69.6266 33.5324 69.6162 33.6916 69.5695C33.8508 69.5227 33.9976 69.4409 34.121 69.33L34.271 69.2L34.371 69.37C34.4636 69.5672 34.6181 69.7287 34.811 69.83C35.0099 69.9101 35.2321 69.9101 35.431 69.83C35.6545 69.7678 35.8609 69.6553 36.0342 69.501C36.2076 69.3467 36.3433 69.1548 36.431 68.94L36.591 68.57L36.821 68.93C36.9478 69.1381 37.1279 69.3086 37.3426 69.4239C37.5573 69.5392 37.7988 69.5952 38.0424 69.586C38.2859 69.5769 38.5226 69.5029 38.728 69.3717C38.9334 69.2406 39.1002 69.057 39.211 68.84L39.721 67.78L40.001 68.96C40.0401 69.1117 40.1277 69.2466 40.2504 69.344C40.3731 69.4415 40.5243 69.4963 40.681 69.5C41.0595 69.3124 41.3989 69.0545 41.681 68.74C41.681 68.74 41.681 68.65 41.681 68.74C41.655 68.7964 41.6415 68.8578 41.6415 68.92C41.6415 68.9821 41.655 69.0436 41.681 69.1C41.7278 69.2016 41.8094 69.2831 41.911 69.33L42.071 69.38C42.191 69.38 42.171 69.38 42.161 69.38L41.741 69.5C41.5353 69.5516 41.3209 69.5586 41.1122 69.5207C40.9036 69.4827 40.7054 69.4007 40.531 69.28C40.2536 69.0435 40.0461 68.7358 39.931 68.39C39.8091 68.094 39.7381 67.7796 39.721 67.46C39.721 66.85 39.721 66.35 39.721 65.85C39.7136 65.3443 39.6327 64.8424 39.481 64.36C39.2856 63.8766 38.9376 63.4702 38.4898 63.203C38.0421 62.9358 37.5192 62.8224 37.001 62.88V62.88ZM37.001 62.78C37.5499 62.7244 38.1035 62.8213 38.601 63.06C39.1412 63.2832 39.5941 63.6764 39.891 64.18C40.1843 64.6781 40.3905 65.2226 40.501 65.79C40.598 66.3255 40.6615 66.8666 40.691 67.41C40.7143 67.6276 40.7717 67.8402 40.861 68.04C40.9271 68.2047 41.0257 68.3543 41.151 68.48C41.211 68.48 41.291 68.54 41.491 68.48L41.851 68.37C41.9433 68.3503 42.0387 68.3503 42.131 68.37H42.341C42.4571 68.4341 42.5511 68.5317 42.611 68.65C42.6427 68.7208 42.6591 68.7974 42.6591 68.875C42.6591 68.9526 42.6427 69.0292 42.611 69.1C42.557 69.2271 42.4789 69.3426 42.381 69.44C42.1637 69.6459 41.9296 69.8332 41.681 70C41.3915 70.2291 41.0464 70.3775 40.681 70.43C40.2956 70.4528 39.9153 70.3329 39.6128 70.0931C39.3103 69.8533 39.1067 69.5104 39.041 69.13L39.831 69.25C39.6482 69.5616 39.3844 69.8178 39.0677 69.9915C38.751 70.1652 38.3931 70.2499 38.0321 70.2366C37.6712 70.2232 37.3205 70.1124 37.0175 69.9158C36.7144 69.7192 36.4703 69.4442 36.311 69.12H36.701C36.5674 69.3616 36.3873 69.5744 36.171 69.7461C35.9548 69.9177 35.7066 70.0448 35.441 70.12C35.1641 70.1991 34.8676 70.1705 34.611 70.04C34.3595 69.9128 34.1509 69.7146 34.011 69.47H34.261C34.1059 69.6257 33.9198 69.7471 33.7148 69.8263C33.5098 69.9056 33.2905 69.9409 33.071 69.93C32.8344 69.8945 32.6135 69.7903 32.4357 69.6303C32.2579 69.4703 32.1311 69.2615 32.071 69.03C32.0385 68.9426 32.0151 68.8521 32.001 68.76V68.55C32.0126 68.4952 32.0294 68.4417 32.051 68.39C32.0858 68.3085 32.1474 68.2413 32.2256 68.1995C32.3038 68.1577 32.3938 68.1438 32.481 68.16C32.568 68.176 32.6481 68.2178 32.711 68.28L32.781 68.34L32.871 68.41C32.9163 68.4472 32.9668 68.4775 33.021 68.5C33.131 68.5 33.291 68.5 33.281 68.5C33.2882 68.4637 33.2882 68.4263 33.281 68.39V68.5C33.2089 67.8722 33.2427 67.2367 33.381 66.62C33.535 66.0108 33.792 65.4325 34.141 64.91C34.4311 64.366 34.838 63.893 35.3324 63.5247C35.8269 63.1565 36.3967 62.9022 37.001 62.78V62.78Z" fill="#231F20"/>
<path d="M48.6406 66.77C48.7339 65.6235 49.1875 64.5359 49.9365 63.6629C50.6856 62.79 51.6916 62.1764 52.8106 61.91C53.7558 61.7138 54.7364 61.7755 55.6496 62.0887C56.5627 62.4018 57.3748 62.955 58.0006 63.69" stroke="#1E6F5D" stroke-width="1.5" stroke-miterlimit="10"/>
<path d="M56.7213 62.54C55.2213 63.09 54.8313 64.95 54.7213 65.64C54.5203 66.6894 54.6031 67.7734 54.9613 68.78C54.9719 68.8591 54.9649 68.9396 54.9407 69.0157C54.9165 69.0918 54.8757 69.1616 54.8213 69.22C54.7537 69.28 54.6743 69.3252 54.5882 69.3527C54.5021 69.3803 54.4112 69.3896 54.3213 69.38C53.9113 69.38 53.7113 69.08 53.6413 69.14C53.5713 69.2 53.7513 69.98 54.3213 70.14C54.5708 70.2005 54.8333 70.1786 55.0694 70.0777C55.3055 69.9768 55.5026 69.8022 55.6313 69.58C55.8328 69.8054 56.1107 69.9479 56.4113 69.98C56.7619 69.9564 57.094 69.8137 57.3523 69.5754C57.6106 69.3371 57.7796 69.0176 57.8313 68.67C58.0321 68.8795 58.2833 69.0341 58.5608 69.1191C58.8383 69.204 59.1329 69.2165 59.4166 69.1554C59.7004 69.0942 59.9637 68.9614 60.1816 68.7697C60.3994 68.578 60.5646 68.3336 60.6613 68.06C60.761 68.2655 60.9178 68.4379 61.1128 68.5567C61.3079 68.6755 61.533 68.7356 61.7613 68.73C62.2013 68.73 62.4813 68.35 62.8613 67.86C62.8613 67.86 63.2513 67.36 63.1613 67.27C63.0713 67.18 62.6213 67.7 62.0913 67.62C61.8494 67.5759 61.6322 67.4441 61.4813 67.25C60.7913 66.5 60.8513 65.69 60.3913 64.64C60.1316 63.8493 59.6002 63.1761 58.8913 62.74C58.2221 62.3917 57.4429 62.3199 56.7213 62.54V62.54Z" fill="url(#paint3_linear_1362:321)"/>
<path d="M56.7407 62.58C56.2022 62.7962 55.7612 63.2016 55.5007 63.72C55.2449 64.2355 55.076 64.7896 55.0007 65.36C54.8507 66.4593 54.9568 67.5785 55.3107 68.63V68.69V68.74C55.3251 68.9136 55.294 69.088 55.2203 69.2458C55.1466 69.4037 55.033 69.5396 54.8907 69.64C54.7611 69.7177 54.6165 69.7668 54.4665 69.7841C54.3164 69.8013 54.1644 69.7863 54.0207 69.74C53.8898 69.711 53.7648 69.6603 53.6507 69.59L53.5107 69.49C53.5107 69.49 53.5107 69.49 53.6207 69.49C53.6869 69.4865 53.7503 69.4624 53.8023 69.4212C53.8542 69.38 53.8921 69.3237 53.9107 69.26C53.9107 69.26 53.9107 69.26 53.9107 69.34C53.9214 69.4091 53.9416 69.4764 53.9707 69.54C54.0148 69.6782 54.1014 69.7989 54.2181 69.8851C54.3347 69.9713 54.4756 70.0185 54.6207 70.02C54.7859 70.0112 54.9469 69.9642 55.0909 69.8826C55.235 69.8011 55.3581 69.6872 55.4507 69.55L55.5707 69.38L55.7007 69.53C55.8453 69.6916 56.0324 69.8094 56.2407 69.87C56.4526 69.9122 56.6727 69.8767 56.8607 69.77C57.0495 69.6466 57.2102 69.4849 57.3325 69.2954C57.4548 69.106 57.536 68.8929 57.5707 68.67L57.6307 68.28L57.9407 68.58C58.1149 68.7489 58.3307 68.8688 58.5661 68.9277C58.8015 68.9866 59.0483 68.9823 59.2816 68.9154C59.5149 68.8485 59.7264 68.7212 59.8947 68.5464C60.0631 68.3717 60.1824 68.1556 60.2407 67.92L60.4807 66.76L61.0007 67.82C61.0757 67.9598 61.1948 68.0708 61.3395 68.1359C61.4842 68.201 61.6463 68.2165 61.8007 68.18C62.1281 67.9002 62.3995 67.5609 62.6007 67.18C62.6007 67.18 62.6007 67.08 62.6007 67.18C62.5932 67.2421 62.5982 67.305 62.6154 67.3651C62.6326 67.4252 62.6616 67.4813 62.7007 67.53C62.7748 67.6185 62.8773 67.6785 62.9907 67.7C63.043 67.7145 63.0983 67.7145 63.1507 67.7H63.2307C63.1607 67.7 63.0107 67.84 62.8607 67.91C62.6746 68.0142 62.4676 68.0755 62.2547 68.0893C62.0419 68.1032 61.8287 68.0693 61.6307 67.99C61.3032 67.8276 61.0265 67.5786 60.8307 67.27C60.6474 67.0102 60.5057 66.7235 60.4107 66.42C60.2307 65.84 60.1607 65.34 60.0107 64.86C59.8802 64.3713 59.6816 63.9034 59.4207 63.47C59.1264 63.0562 58.708 62.7469 58.2262 62.5869C57.7443 62.4269 57.224 62.4245 56.7407 62.58V62.58ZM56.7407 62.49C57.2625 62.299 57.8279 62.2608 58.3707 62.38C58.9476 62.4645 59.4813 62.7348 59.8907 63.15C60.3043 63.5614 60.6427 64.042 60.8907 64.57C61.0888 65.0577 61.2624 65.555 61.4107 66.06C61.4813 66.2661 61.5861 66.4588 61.7207 66.63C61.8252 66.775 61.9578 66.8974 62.1107 66.99C62.1807 66.99 62.2607 66.99 62.4407 66.99L62.7707 66.8C62.851 66.7521 62.9389 66.7183 63.0307 66.7C63.1032 66.6852 63.1781 66.6852 63.2507 66.7C63.3932 66.7291 63.5191 66.8116 63.6028 66.9306C63.6865 67.0496 63.7215 67.1961 63.7007 67.34C63.6773 67.4757 63.6263 67.605 63.5507 67.72C63.3903 67.971 63.2097 68.2084 63.0107 68.43C62.7902 68.7102 62.5055 68.9331 62.1807 69.08C61.8097 69.1888 61.4119 69.1597 61.0608 68.9979C60.7097 68.8361 60.429 68.5527 60.2707 68.2L61.0707 68.13C60.9574 68.481 60.7519 68.7952 60.4758 69.0397C60.1996 69.2842 59.8628 69.4501 59.5007 69.52C59.1567 69.5797 58.8032 69.5484 58.4751 69.4291C58.147 69.3098 57.8559 69.1067 57.6307 68.84L58.0007 68.75C57.9331 69.0254 57.8095 69.284 57.6374 69.5094C57.4653 69.7348 57.2485 69.9223 57.0007 70.06C56.7487 70.2019 56.454 70.2481 56.1707 70.19C55.8947 70.1235 55.6444 69.9775 55.4507 69.77H55.7107C55.5937 69.9581 55.4392 70.1199 55.2568 70.2455C55.0744 70.3712 54.8681 70.4578 54.6507 70.5C54.4088 70.5291 54.1637 70.4857 53.9465 70.3754C53.7293 70.265 53.5498 70.0926 53.4307 69.88C53.3615 69.7784 53.3076 69.6672 53.2707 69.55C53.264 69.4835 53.264 69.4165 53.2707 69.35C53.2613 69.2937 53.2613 69.2363 53.2707 69.18C53.2858 69.093 53.3293 69.0134 53.3945 68.9537C53.4596 68.894 53.5426 68.8575 53.6307 68.85C53.7192 68.847 53.8065 68.8715 53.8807 68.92H53.9607H54.0707C54.1266 68.9329 54.1847 68.9329 54.2407 68.92C54.3227 68.9412 54.4087 68.9412 54.4907 68.92C54.4907 68.92 54.4907 68.92 54.4907 68.8V68.91C54.2735 68.317 54.1585 67.6915 54.1507 67.06C54.1563 66.4316 54.2713 65.809 54.4907 65.22C54.6368 64.6296 54.9116 64.0787 55.2954 63.6068C55.6791 63.1348 56.1624 62.7535 56.7107 62.49H56.7407Z" fill="#231F20"/>
<path d="M53.3014 41.67C51.7914 42.22 51.4114 44.08 51.3014 44.78C51.0947 45.8257 51.1777 46.908 51.5414 47.91C51.552 47.9891 51.545 48.0696 51.5208 48.1457C51.4966 48.2218 51.4558 48.2916 51.4014 48.35C51.3337 48.41 51.2543 48.4552 51.1682 48.4827C51.0821 48.5103 50.9913 48.5196 50.9014 48.51C50.4914 48.51 50.2914 48.21 50.2214 48.27C50.1514 48.33 50.3314 49.11 50.9014 49.27C51.1509 49.3305 51.4133 49.3086 51.6494 49.2077C51.8855 49.1068 52.0827 48.9322 52.2114 48.71C52.4128 48.9354 52.6908 49.0779 52.9914 49.11C53.342 49.0864 53.674 48.9437 53.9323 48.7054C54.1906 48.4671 54.3597 48.1476 54.4114 47.8C54.6153 48.0212 54.8746 48.184 55.1625 48.2715C55.4504 48.359 55.7564 48.368 56.049 48.2977C56.3415 48.2273 56.61 48.0802 56.8266 47.8714C57.0433 47.6626 57.2003 47.3998 57.2814 47.11C57.3791 47.3171 57.5353 47.4909 57.7309 47.61C57.9264 47.7291 58.1526 47.7882 58.3814 47.78C58.8214 47.78 59.1014 47.4 59.4814 46.91C59.4814 46.91 59.8714 46.41 59.7814 46.33C59.6914 46.25 59.2414 46.75 58.7114 46.68C58.4715 46.6245 58.2569 46.4908 58.1014 46.3C57.4014 45.55 57.4714 44.74 57.0114 43.69C56.7484 42.8981 56.2134 42.225 55.5014 41.79C55.1611 41.6245 54.7913 41.5286 54.4135 41.508C54.0357 41.4874 53.6576 41.5425 53.3014 41.67V41.67Z" fill="url(#paint4_linear_1362:321)"/>
<path d="M53.3208 41.71C52.7824 41.9261 52.3414 42.3316 52.0808 42.85C51.8368 43.3678 51.6781 43.9216 51.6108 44.49C51.4601 45.5893 51.5662 46.7086 51.9208 47.76V47.82V47.87C51.9353 48.0436 51.9041 48.218 51.8305 48.3758C51.7568 48.5337 51.6432 48.6696 51.5008 48.77C51.3709 48.8465 51.2267 48.8956 51.0772 48.9146C50.9276 48.9335 50.7757 48.9217 50.6308 48.88C50.501 48.8432 50.3766 48.7894 50.2608 48.72L50.1208 48.63C50.1208 48.63 50.1208 48.63 50.2308 48.63C50.2971 48.6264 50.3605 48.6024 50.4125 48.5612C50.4644 48.52 50.5023 48.4637 50.5208 48.4V48.4C50.5108 48.4257 50.5108 48.4543 50.5208 48.48C50.5331 48.552 50.5532 48.6224 50.5808 48.69C50.6287 48.8258 50.7163 48.9442 50.8322 49.0298C50.948 49.1153 51.0869 49.1642 51.2308 49.17C51.3959 49.1557 51.5558 49.1053 51.6993 49.0224C51.8427 48.9394 51.9662 48.826 52.0608 48.69L52.1808 48.52L52.3108 48.67C52.4525 48.8351 52.6407 48.9536 52.8508 49.01C53.0628 49.0513 53.2826 49.0158 53.4708 48.91C53.6597 48.7901 53.8201 48.6304 53.941 48.4422C54.0619 48.2539 54.1403 48.0416 54.1708 47.82L54.2408 47.42L54.5508 47.72C54.7341 47.8939 54.9608 48.0153 55.2071 48.0716C55.4533 48.1279 55.7102 48.117 55.9508 48.04C56.1737 47.964 56.3734 47.8321 56.531 47.6571C56.6885 47.4821 56.7986 47.2696 56.8508 47.04L57.0908 45.89L57.6408 46.97C57.7159 47.1098 57.835 47.2208 57.9797 47.2859C58.1243 47.351 58.2865 47.3665 58.4408 47.33C58.7683 47.0502 59.0397 46.7109 59.2408 46.33C59.2408 46.33 59.2408 46.23 59.2408 46.33C59.231 46.3905 59.2349 46.4525 59.2522 46.5114C59.2695 46.5702 59.2998 46.6244 59.3408 46.67C59.4173 46.7577 59.5183 46.8204 59.6308 46.85H59.7908H59.8708L59.5008 47.07C59.3131 47.17 59.1059 47.228 58.8935 47.2401C58.6812 47.2522 58.4687 47.218 58.2708 47.14C57.9434 46.9776 57.6667 46.7286 57.4708 46.42C57.2856 46.1613 57.1438 45.8743 57.0508 45.57C56.8708 44.99 56.8008 44.49 56.6508 44.01C56.5204 43.5213 56.3218 43.0534 56.0608 42.62C55.7647 42.1916 55.3373 41.8711 54.843 41.7069C54.3487 41.5428 53.8144 41.5438 53.3208 41.71V41.71ZM53.3208 41.62C53.8435 41.4332 54.4078 41.3952 54.9508 41.51C55.5271 41.5966 56.0601 41.8666 56.4708 42.28C56.882 42.6934 57.2201 43.1736 57.4708 43.7C57.6737 44.2006 57.8506 44.7112 58.0008 45.23C58.0714 45.4361 58.1762 45.6288 58.3108 45.8C58.4153 45.945 58.548 46.0674 58.7008 46.16C58.7708 46.16 58.8508 46.16 59.0308 46.11C59.2108 46.06 59.2008 46.01 59.3608 45.92C59.4412 45.8721 59.5291 45.8383 59.6208 45.82C59.6939 45.8102 59.7678 45.8102 59.8408 45.82C59.9711 45.8455 60.088 45.9163 60.1708 46.02C60.2662 46.1456 60.3092 46.3033 60.2908 46.46C60.2675 46.5956 60.2165 46.725 60.1408 46.84C59.9805 47.091 59.7999 47.3284 59.6008 47.55C59.383 47.8328 59.0976 48.0563 58.7708 48.2C58.3999 48.311 58.0012 48.2829 57.6496 48.1209C57.2979 47.9588 57.0175 47.6741 56.8608 47.32L57.6608 47.25C57.5534 47.6043 57.3498 47.9218 57.0726 48.1672C56.7954 48.4127 56.4555 48.5763 56.0908 48.64C55.7478 48.7009 55.3948 48.6711 55.0668 48.5536C54.7388 48.436 54.4472 48.2349 54.2208 47.97L54.5908 47.87C54.5184 48.1382 54.3925 48.3889 54.2206 48.6072C54.0488 48.8254 53.8345 49.0067 53.5908 49.14C53.3399 49.2745 53.0498 49.3169 52.7708 49.26C52.4949 49.1935 52.2446 49.0475 52.0508 48.84H52.3008C52.1942 49.0246 52.0502 49.185 51.878 49.3107C51.7058 49.4364 51.5092 49.5247 51.3008 49.57C51.0452 49.6187 50.7807 49.5838 50.5465 49.4703C50.3123 49.3568 50.121 49.1708 50.0008 48.94C49.9317 48.8384 49.8778 48.7272 49.8408 48.61C49.8342 48.5435 49.8342 48.4765 49.8408 48.41C49.8317 48.3537 49.8317 48.2963 49.8408 48.24C49.856 48.153 49.8995 48.0734 49.9646 48.0137C50.0298 47.954 50.1128 47.9175 50.2008 47.91C50.2886 47.9127 50.3744 47.9367 50.4508 47.98H50.5308H50.6408C50.6968 47.9928 50.7549 47.9928 50.8108 47.98C50.9208 47.98 51.0708 47.98 51.0608 47.98C51.0706 47.9406 51.0706 47.8994 51.0608 47.86V47.97C50.8391 47.3745 50.7207 46.7454 50.7108 46.11C50.7155 45.4847 50.8306 44.8652 51.0508 44.28C51.2077 43.7001 51.4895 43.1616 51.8764 42.7021C52.2634 42.2426 52.7461 41.8733 53.2908 41.62H53.3208Z" fill="#231F20"/>
<path d="M34.9205 41.57C33.4105 42.12 33.0305 43.98 32.9205 44.68C32.7139 45.7257 32.7968 46.808 33.1605 47.81C33.1741 47.8955 33.1665 47.983 33.1384 48.0648C33.1103 48.1467 33.0627 48.2204 32.9995 48.2796C32.9364 48.3388 32.8597 48.3816 32.7762 48.4044C32.6927 48.4271 32.6049 48.429 32.5205 48.41C32.1105 48.41 31.9105 48.11 31.8405 48.17C31.7705 48.23 31.9505 49.01 32.5205 49.17C32.7711 49.2263 33.0331 49.2014 33.2686 49.099C33.5041 48.9965 33.7009 48.8217 33.8305 48.6C34.0264 48.8271 34.3021 48.9703 34.6005 49C34.9413 48.9723 35.2633 48.8328 35.5165 48.6031C35.7697 48.3734 35.9399 48.0664 36.0005 47.73C36.2029 47.9512 36.4607 48.1142 36.7474 48.2021C37.034 48.2901 37.3389 48.2997 37.6305 48.23C37.9192 48.158 38.1843 48.0124 38.3999 47.8073C38.6155 47.6022 38.7742 47.3448 38.8605 47.06C38.9582 47.2671 39.1145 47.4409 39.31 47.56C39.5055 47.6791 39.7317 47.7382 39.9605 47.73C40.4005 47.73 40.6805 47.35 41.0605 46.86C41.0605 46.86 41.4405 46.36 41.3605 46.28C41.2805 46.2 40.8205 46.7 40.2905 46.63C40.0491 46.5782 39.8334 46.4438 39.6805 46.25C38.9805 45.5 39.0505 44.69 38.5905 43.64C38.3238 42.8502 37.7897 42.1782 37.0805 41.74C36.4098 41.4054 35.6353 41.3444 34.9205 41.57V41.57Z" fill="url(#paint5_linear_1362:321)"/>
<path d="M34.9413 41.62C34.4015 41.8288 33.9592 42.2318 33.7013 42.75C33.4559 43.2708 33.2971 43.8281 33.2313 44.4C33.0816 45.4993 33.1877 46.6184 33.5413 47.67V47.73C33.5539 47.902 33.5219 48.0743 33.4483 48.2302C33.3747 48.3862 33.2621 48.5204 33.1213 48.62C32.9913 48.6965 32.8472 48.7456 32.6976 48.7646C32.548 48.7835 32.3962 48.7717 32.2513 48.73C32.1199 48.6975 31.9949 48.6435 31.8813 48.57L31.7413 48.48C31.7413 48.48 31.7413 48.48 31.8513 48.48C31.9175 48.4764 31.981 48.4524 32.0329 48.4112C32.0849 48.37 32.1227 48.3137 32.1413 48.25C32.1413 48.25 32.1413 48.25 32.1413 48.25C32.137 48.2765 32.137 48.3035 32.1413 48.33C32.1519 48.4023 32.1721 48.4729 32.2013 48.54C32.248 48.6766 32.3352 48.7957 32.4513 48.8815C32.5675 48.9672 32.707 49.0156 32.8513 49.02C33.0157 49.0085 33.1752 48.9593 33.3175 48.876C33.4597 48.7927 33.5808 48.6778 33.6713 48.54L33.8013 48.37L33.9313 48.52C34.0754 48.6844 34.2623 48.8056 34.4713 48.87C34.6812 48.9085 34.898 48.8694 35.0813 48.76C35.2724 48.6416 35.4352 48.4826 35.5579 48.2942C35.6806 48.1058 35.7603 47.8927 35.7913 47.67L35.8613 47.27L36.1713 47.57C36.3512 47.7458 36.5762 47.8687 36.8213 47.9252C37.0665 47.9816 37.3225 47.9694 37.5613 47.89C37.7866 47.8184 37.9888 47.688 38.147 47.5122C38.3052 47.3364 38.4137 47.1216 38.4613 46.89L38.7113 45.73L39.2613 46.81C39.3363 46.9498 39.4555 47.0608 39.6001 47.1259C39.7448 47.191 39.9069 47.2065 40.0613 47.17C40.3899 46.8914 40.6616 46.5518 40.8613 46.17C40.8613 46.17 40.8613 46.06 40.8613 46.17C40.8507 46.2305 40.8542 46.2927 40.8716 46.3517C40.8889 46.4106 40.9196 46.4648 40.9613 46.51C41.0359 46.5998 41.1377 46.6629 41.2513 46.69H41.4113C41.5313 46.69 41.5013 46.69 41.4913 46.69L41.1213 46.91C40.9342 47.0119 40.7268 47.0711 40.5141 47.0832C40.3014 47.0953 40.0887 47.06 39.8913 46.98C39.5678 46.8163 39.2922 46.5717 39.0913 46.27C38.9077 46.0067 38.7661 45.7166 38.6713 45.41C38.4813 44.83 38.4213 44.33 38.2713 43.85C38.1408 43.3613 37.9422 42.8933 37.6813 42.46C37.3767 42.0426 36.9451 41.7352 36.4511 41.5838C35.9572 41.4323 35.4274 41.445 34.9413 41.62V41.62ZM34.9413 41.52C35.464 41.3332 36.0282 41.2952 36.5713 41.41C37.1463 41.5006 37.6781 41.77 38.0913 42.18C38.5024 42.5934 38.8406 43.0736 39.0913 43.6C39.3513 44.13 39.4913 44.69 39.6613 45.13C39.7341 45.3381 39.8387 45.5338 39.9713 45.71C40.0753 45.8527 40.2082 45.9719 40.3613 46.06C40.4313 46.06 40.5113 46.06 40.6913 46.06C40.8713 46.06 40.8613 45.96 41.0213 45.87C41.1009 45.8226 41.1894 45.792 41.2813 45.78C41.3538 45.7649 41.4287 45.7649 41.5013 45.78C41.6306 45.8078 41.7468 45.8782 41.8313 45.98C41.9267 46.1056 41.9697 46.2633 41.9513 46.42C41.928 46.5556 41.8769 46.685 41.8013 46.8C41.6402 47.0531 41.4561 47.2908 41.2513 47.51C41.0426 47.7977 40.759 48.0225 40.4313 48.16C40.0604 48.2733 39.6608 48.2462 39.3086 48.0839C38.9564 47.9216 38.6762 47.6355 38.5213 47.28L39.3213 47.21C39.2139 47.5643 39.0102 47.8818 38.733 48.1272C38.4558 48.3727 38.116 48.5363 37.7513 48.6C37.4082 48.6609 37.0552 48.6311 36.7272 48.5136C36.3992 48.396 36.1076 48.1949 35.8813 47.93L36.2513 47.83C36.0968 48.3678 35.7378 48.8237 35.2513 49.1C34.9969 49.2352 34.7035 49.2776 34.4213 49.22C34.1476 49.1551 33.9 49.0086 33.7113 48.8H33.9613C33.8493 48.9902 33.6974 49.154 33.5162 49.28C33.335 49.406 33.1286 49.4913 32.9113 49.53C32.669 49.5633 32.4223 49.5218 32.2042 49.411C31.9862 49.3001 31.8072 49.1254 31.6913 48.91C31.6221 48.8084 31.5682 48.6972 31.5313 48.58C31.5246 48.5135 31.5246 48.4465 31.5313 48.38C31.5221 48.3237 31.5221 48.2663 31.5313 48.21C31.5432 48.1225 31.586 48.0421 31.6521 47.9834C31.7181 47.9247 31.8029 47.8916 31.8913 47.89C31.9785 47.8869 32.0649 47.9076 32.1413 47.95H32.2213H32.3313C32.3871 47.964 32.4455 47.964 32.5013 47.95C32.6113 47.95 32.7613 47.95 32.7513 47.95C32.761 47.9106 32.761 47.8694 32.7513 47.83V47.94C32.5305 47.3477 32.4121 46.7221 32.4013 46.09C32.405 45.4614 32.5201 44.8384 32.7413 44.25C32.8813 43.664 33.1482 43.1158 33.5232 42.6441C33.8981 42.1724 34.3719 41.7887 34.9113 41.52H34.9413Z" fill="#231F20"/>
<path d="M26.0006 39.91C24.5006 40.46 24.1106 42.32 24.0006 43.02C23.8014 44.0661 23.8842 45.1464 24.2406 46.15C24.2512 46.2291 24.2442 46.3096 24.22 46.3857C24.1958 46.4618 24.155 46.5316 24.1006 46.59C24.033 46.65 23.9536 46.6952 23.8675 46.7227C23.7814 46.7503 23.6905 46.7596 23.6006 46.75C23.1906 46.75 22.9906 46.45 22.9206 46.51C22.8506 46.57 23.0306 47.35 23.6006 47.51C23.8501 47.5705 24.1125 47.5486 24.3486 47.4477C24.5848 47.3468 24.7819 47.1722 24.9106 46.95C25.1121 47.1754 25.39 47.3179 25.6906 47.35C26.03 47.3183 26.3492 47.1742 26.5974 46.9405C26.8455 46.7068 27.0086 46.3969 27.0606 46.06C27.2645 46.2812 27.5238 46.444 27.8117 46.5315C28.0996 46.619 28.4056 46.628 28.6982 46.5577C28.9907 46.4873 29.2592 46.3402 29.4759 46.1314C29.6925 45.9226 29.8495 45.6597 29.9306 45.37C30.0233 45.576 30.1736 45.7508 30.3635 45.8733C30.5534 45.9957 30.7747 46.0606 31.0006 46.06C31.4406 46.06 31.7206 45.68 32.1006 45.19C32.1006 45.19 32.4906 44.69 32.4006 44.61C32.3106 44.53 31.8606 45.03 31.3306 44.96C31.0907 44.9045 30.8762 44.7708 30.7206 44.58C30.0306 43.83 30.0906 43.02 29.6306 41.97C29.3679 41.1809 28.8372 40.5087 28.1306 40.07C27.4673 39.7456 26.7048 39.6883 26.0006 39.91V39.91Z" fill="url(#paint6_linear_1362:321)"/>
<path d="M26.0006 39.95C25.4709 40.1607 25.0344 40.5546 24.7706 41.06C24.5265 41.5778 24.3678 42.1316 24.3006 42.7C24.1506 43.7993 24.2567 44.9184 24.6106 45.97V46.03C24.625 46.2036 24.5939 46.378 24.5202 46.5358C24.4465 46.6937 24.3329 46.8296 24.1906 46.93C24.0606 47.0064 23.9165 47.0556 23.7669 47.0745C23.6173 47.0935 23.4655 47.0817 23.3206 47.04C23.2113 47.0249 23.104 46.9981 23.0006 46.96L22.8606 46.87C22.8606 46.87 22.8606 46.87 22.9706 46.87C23.0368 46.8664 23.1002 46.8424 23.1522 46.8012C23.2042 46.76 23.242 46.7037 23.2606 46.64V46.64C23.2606 46.64 23.2606 46.69 23.2606 46.72C23.2728 46.792 23.293 46.8624 23.3206 46.93C23.3685 47.0658 23.456 47.1842 23.5719 47.2698C23.6878 47.3553 23.8266 47.4042 23.9706 47.41C24.136 47.3971 24.2964 47.3473 24.4401 47.2642C24.5837 47.1812 24.7069 47.0669 24.8006 46.93L24.9206 46.76L25.0506 46.91C25.1952 47.0716 25.3823 47.1894 25.5906 47.25C25.8025 47.2922 26.0226 47.2567 26.2106 47.15C26.3861 47.0217 26.5335 46.8588 26.6435 46.6713C26.7536 46.4838 26.8241 46.2758 26.8506 46.06L26.9106 45.66L27.2206 45.96C27.4039 46.1339 27.6305 46.2553 27.8768 46.3116C28.1231 46.3679 28.3799 46.357 28.6206 46.28C28.8434 46.2039 29.0432 46.0721 29.2007 45.8971C29.3582 45.7221 29.4683 45.5096 29.5206 45.28L29.7606 44.13L30.3106 45.21C30.3856 45.3497 30.5047 45.4608 30.6494 45.5259C30.7941 45.591 30.9562 45.6065 31.1106 45.57C31.438 45.2902 31.7095 44.9509 31.9106 44.57C31.9106 44.57 31.9106 44.47 31.9106 44.57C31.9034 44.6305 31.9085 44.6918 31.9257 44.7502C31.9429 44.8087 31.9718 44.863 32.0106 44.91C32.0847 44.9984 32.1872 45.0585 32.3006 45.08C32.3529 45.0945 32.4082 45.0945 32.4606 45.08H32.5406L32.1706 45.3C31.9828 45.4 31.7756 45.458 31.5633 45.4701C31.3509 45.4821 31.1385 45.448 30.9406 45.37C30.6131 45.2076 30.3364 44.9586 30.1406 44.65C29.9554 44.3913 29.8135 44.1042 29.7206 43.8C29.5406 43.22 29.4706 42.72 29.3206 42.24C29.1901 41.7513 28.9915 41.2833 28.7306 40.85C28.4347 40.4241 28.0084 40.106 27.516 39.9437C27.0235 39.7814 26.4917 39.7836 26.0006 39.95V39.95ZM26.0006 39.86C26.5233 39.6732 27.0875 39.6352 27.6306 39.75C28.2075 39.8345 28.7412 40.1048 29.1506 40.52C29.5617 40.9334 29.8999 41.4136 30.1506 41.94C30.3669 42.4398 30.5572 42.9505 30.7206 43.47C30.7799 43.6811 30.8746 43.8806 31.0006 44.06C31.1051 44.205 31.2377 44.3274 31.3906 44.42C31.4606 44.42 31.5406 44.42 31.7206 44.37C31.9006 44.32 31.8906 44.27 32.0506 44.18C32.1309 44.1321 32.2188 44.0983 32.3106 44.08C32.3836 44.0702 32.4576 44.0702 32.5306 44.08C32.6731 44.1091 32.7991 44.1916 32.8827 44.3106C32.9664 44.4296 33.0014 44.576 32.9806 44.72C32.9573 44.8556 32.9062 44.985 32.8306 45.1C32.6702 45.351 32.4896 45.5884 32.2906 45.81C32.0727 46.0928 31.7873 46.3163 31.4606 46.46C31.0896 46.571 30.691 46.5429 30.3393 46.3809C29.9877 46.2188 29.7072 45.9341 29.5506 45.58L30.3506 45.51C30.2432 45.8643 30.0395 46.1818 29.7623 46.4272C29.4851 46.6727 29.1453 46.8363 28.7806 46.9C28.4375 46.9609 28.0845 46.9311 27.7565 46.8136C27.4285 46.696 27.1369 46.4949 26.9106 46.23L27.2806 46.13C27.2071 46.3977 27.0807 46.648 26.909 46.8661C26.7372 47.0842 26.5236 47.2658 26.2806 47.4C26.026 47.5344 25.7328 47.5768 25.4506 47.52C25.1746 47.4535 24.9243 47.3074 24.7306 47.1L25.0006 47.06C24.8855 47.2497 24.7315 47.4128 24.5488 47.5386C24.3661 47.6644 24.1588 47.7501 23.9406 47.79C23.6984 47.8219 23.4523 47.7797 23.2345 47.669C23.0167 47.5584 22.8376 47.3844 22.7206 47.17C22.6514 47.0684 22.5975 46.9572 22.5606 46.84C22.5539 46.7735 22.5539 46.7065 22.5606 46.64C22.5514 46.5837 22.5514 46.5263 22.5606 46.47C22.5757 46.383 22.6192 46.3034 22.6844 46.2437C22.7495 46.184 22.8325 46.1475 22.9206 46.14C23.0091 46.137 23.0964 46.1615 23.1706 46.21H23.2506H23.3606C23.4165 46.2228 23.4746 46.2228 23.5306 46.21C23.6406 46.21 23.8006 46.21 23.7806 46.21C23.7606 46.21 23.7806 46.21 23.7806 46.09V46.2C23.5588 45.6044 23.4405 44.9754 23.4306 44.34C23.4353 43.7147 23.5504 43.0952 23.7706 42.51C23.9295 41.9337 24.211 41.3986 24.5959 40.9412C24.9808 40.4839 25.4599 40.115 26.0006 39.86V39.86Z" fill="#231F20"/>
<path d="M49.0013 67.19C48.1615 67.2137 47.3354 67.4086 46.5737 67.7629C45.8119 68.1171 45.1305 68.6231 44.5713 69.25C43.8755 70.079 43.4283 71.0878 43.2812 72.16" stroke="#1E6F5D" stroke-width="1.5" stroke-miterlimit="10"/>
<path d="M42.9911 75.43C44.3221 75.43 45.4011 74.351 45.4011 73.02C45.4011 71.689 44.3221 70.61 42.9911 70.61C41.66 70.61 40.5811 71.689 40.5811 73.02C40.5811 74.351 41.66 75.43 42.9911 75.43Z" fill="url(#paint7_linear_1362:321)" stroke="#231F20" stroke-width="0.5" stroke-miterlimit="10"/>
<path d="M49.6405 42.34C50.9715 42.34 52.0505 41.261 52.0505 39.93C52.0505 38.599 50.9715 37.52 49.6405 37.52C48.3095 37.52 47.2305 38.599 47.2305 39.93C47.2305 41.261 48.3095 42.34 49.6405 42.34Z" fill="url(#paint8_linear_1362:321)"/>
<path d="M52.0905 39.78C52.164 40.473 52.0207 41.1718 51.6805 41.78C51.4811 42.0934 51.2043 42.3501 50.8767 42.5253C50.5491 42.7005 50.1819 42.7882 49.8105 42.78C49.0963 42.7257 48.4286 42.4044 47.9405 41.88C47.4432 41.3876 47.1142 40.7506 47.0005 40.06C46.9411 39.6893 46.9603 39.3102 47.0568 38.9473C47.1533 38.5845 47.3249 38.2459 47.5606 37.9536C47.7964 37.6614 48.0908 37.4219 48.425 37.2507C48.7592 37.0795 49.1256 36.9805 49.5005 36.96C49.8808 36.9375 50.2609 37.0065 50.6089 37.1614C50.957 37.3163 51.2627 37.5524 51.5005 37.85C51.8903 38.4177 52.0963 39.0914 52.0905 39.78ZM51.9906 39.78C51.9612 39.4782 51.8534 39.1894 51.678 38.942C51.5026 38.6947 51.2656 38.4975 50.9906 38.37C50.5385 38.1332 50.0297 38.026 49.5205 38.06C49.0228 38.0909 48.5519 38.2963 48.1905 38.64C47.8094 39.0225 47.5696 39.5232 47.5105 40.06C47.4799 40.3512 47.5223 40.6455 47.6341 40.9161C47.7458 41.1868 47.9234 41.4253 48.1505 41.61C48.3818 41.7725 48.6448 41.8841 48.9223 41.9376C49.1998 41.991 49.4855 41.985 49.7605 41.92C50.2816 41.8215 50.7758 41.6136 51.2105 41.31C51.4629 41.1447 51.6683 40.917 51.8067 40.6489C51.9452 40.3808 52.0119 40.0815 52.0005 39.78H51.9906Z" fill="#231F20"/>
<defs>
<linearGradient id="paint0_linear_1362:321" x1="52.3597" y1="58.9152" x2="61.5822" y2="55.5421" gradientUnits="userSpaceOnUse">
<stop offset="0.58" stop-color="white"/>
<stop offset="0.65" stop-color="#F5F6F6"/>
<stop offset="0.76" stop-color="#DBDCDD"/>
<stop offset="0.89" stop-color="#B1B3B5"/>
<stop offset="1" stop-color="#8D9092"/>
</linearGradient>
<linearGradient id="paint1_linear_1362:321" x1="734.107" y1="316.367" x2="829.85" y2="305.729" gradientUnits="userSpaceOnUse">
<stop offset="0.58" stop-color="white"/>
<stop offset="0.65" stop-color="#F5F6F6"/>
<stop offset="0.76" stop-color="#DBDCDD"/>
<stop offset="0.89" stop-color="#B1B3B5"/>
<stop offset="1" stop-color="#8D9092"/>
</linearGradient>
<linearGradient id="paint2_linear_1362:321" x1="682.55" y1="392.391" x2="777.806" y2="381.807" gradientUnits="userSpaceOnUse">
<stop offset="0.58" stop-color="white"/>
<stop offset="0.65" stop-color="#F5F6F6"/>
<stop offset="0.76" stop-color="#DBDCDD"/>
<stop offset="0.89" stop-color="#B1B3B5"/>
<stop offset="1" stop-color="#8D9092"/>
</linearGradient>
<linearGradient id="paint3_linear_1362:321" x1="2017.71" y1="1030.17" x2="2111.56" y2="1030.17" gradientUnits="userSpaceOnUse">
<stop offset="0.58" stop-color="white"/>
<stop offset="0.65" stop-color="#F5F6F6"/>
<stop offset="0.76" stop-color="#DBDCDD"/>
<stop offset="0.89" stop-color="#B1B3B5"/>
<stop offset="1" stop-color="#8D9092"/>
</linearGradient>
<linearGradient id="paint4_linear_1362:321" x1="2060.39" y1="852.364" x2="2154.64" y2="852.364" gradientUnits="userSpaceOnUse">
<stop offset="0.58" stop-color="white"/>
<stop offset="0.65" stop-color="#F5F6F6"/>
<stop offset="0.76" stop-color="#DBDCDD"/>
<stop offset="0.89" stop-color="#B1B3B5"/>
<stop offset="1" stop-color="#8D9092"/>
</linearGradient>
<linearGradient id="paint5_linear_1362:321" x1="1868.65" y1="798.838" x2="1962.48" y2="798.838" gradientUnits="userSpaceOnUse">
<stop offset="0.58" stop-color="white"/>
<stop offset="0.65" stop-color="#F5F6F6"/>
<stop offset="0.76" stop-color="#DBDCDD"/>
<stop offset="0.89" stop-color="#B1B3B5"/>
<stop offset="1" stop-color="#8D9092"/>
</linearGradient>
<linearGradient id="paint6_linear_1362:321" x1="1778.24" y1="761.504" x2="1871.7" y2="761.504" gradientUnits="userSpaceOnUse">
<stop offset="0.58" stop-color="white"/>
<stop offset="0.65" stop-color="#F5F6F6"/>
<stop offset="0.76" stop-color="#DBDCDD"/>
<stop offset="0.89" stop-color="#B1B3B5"/>
<stop offset="1" stop-color="#8D9092"/>
</linearGradient>
<linearGradient id="paint7_linear_1362:321" x1="252.146" y1="395.645" x2="274.152" y2="387.575" gradientUnits="userSpaceOnUse">
<stop offset="0.58" stop-color="white"/>
<stop offset="0.65" stop-color="#F5F6F6"/>
<stop offset="0.76" stop-color="#DBDCDD"/>
<stop offset="0.89" stop-color="#B1B3B5"/>
<stop offset="1" stop-color="#8D9092"/>
</linearGradient>
<linearGradient id="paint8_linear_1362:321" x1="288.775" y1="202.706" x2="310.829" y2="194.633" gradientUnits="userSpaceOnUse">
<stop offset="0.58" stop-color="white"/>
<stop offset="0.65" stop-color="#F5F6F6"/>
<stop offset="0.76" stop-color="#DBDCDD"/>
<stop offset="0.89" stop-color="#B1B3B5"/>
<stop offset="1" stop-color="#8D9092"/>
</linearGradient>
</defs>
</svg>
