<svg width="14" height="15" viewBox="0 0 14 15" fill="none" xmlns="http://www.w3.org/2000/svg">
<g clip-path="url(#clip0)">
<path d="M7.11554 14.2792C10.8706 14.2792 13.9147 11.1264 13.9147 7.23727C13.9147 3.3481 10.8706 0.195312 7.11554 0.195312C3.36048 0.195312 0.316406 3.3481 0.316406 7.23727C0.316406 11.1264 3.36048 14.2792 7.11554 14.2792Z" fill="#E7D855"/>
<path d="M8.32723 7.42003C8.18114 7.30656 8.00462 7.20569 7.80375 7.13003C7.65158 7.06699 7.47506 7.02286 7.29854 6.97242V5.13786C7.37767 5.15047 7.4568 5.15047 7.54201 5.17568C7.69419 5.21982 7.83419 5.28286 7.95593 5.35851C8.07767 5.43416 8.18723 5.52242 8.27245 5.61699C8.31506 5.64851 8.36375 5.67373 8.41854 5.67373C8.49767 5.67373 8.56462 5.64221 8.62549 5.57916C8.68636 5.51612 8.7168 5.44677 8.7168 5.37112C8.7168 5.27655 8.6681 5.18829 8.57071 5.09373C8.41245 4.91721 8.1994 4.77851 7.93158 4.67764C7.73071 4.60199 7.51767 4.56416 7.29854 4.54525V3.95264C7.29854 3.79503 7.1768 3.66895 7.02462 3.66895C6.87245 3.66895 6.75071 3.79503 6.75071 3.95264V4.55786C6.54984 4.58308 6.36114 4.62721 6.1968 4.70286C5.94114 4.82264 5.73419 4.98655 5.5881 5.20721C5.4481 5.42155 5.37506 5.67373 5.37506 5.95742C5.37506 6.18438 5.41158 6.37982 5.49071 6.55003C5.56375 6.72025 5.67332 6.86525 5.80723 6.97873C5.94114 7.09221 6.10549 7.19938 6.29419 7.27503C6.43419 7.33808 6.59854 7.38221 6.7568 7.42634V9.33656C6.59854 9.31134 6.44636 9.27982 6.30636 9.21677C6.08723 9.1159 5.88028 8.9709 5.69158 8.78177C5.6368 8.72503 5.57593 8.69982 5.50897 8.69982C5.42375 8.69982 5.3568 8.73134 5.30201 8.79438C5.24723 8.85742 5.2168 8.92677 5.2168 9.00873C5.2168 9.05916 5.22897 9.10329 5.24723 9.14743C5.27158 9.19156 5.29593 9.22938 5.33245 9.26721C5.5881 9.50677 5.84984 9.68329 6.12375 9.79677C6.31245 9.87242 6.53158 9.91656 6.7568 9.93547V10.5407C6.7568 10.6983 6.87854 10.8244 7.03071 10.8244C7.18288 10.8244 7.30462 10.6983 7.30462 10.5407V9.93547C7.53593 9.91025 7.75506 9.85982 7.94984 9.77156C8.21158 9.65177 8.41854 9.47525 8.56462 9.2609C8.71071 9.04655 8.78984 8.79438 8.78984 8.51699C8.78984 8.25221 8.74723 8.03156 8.6681 7.85503C8.58897 7.68482 8.47332 7.53351 8.32723 7.42003ZM6.75071 6.78329C6.68375 6.75808 6.61071 6.73916 6.54375 6.71395C6.36114 6.63829 6.22114 6.53742 6.11158 6.41134C6.00201 6.28525 5.95332 6.13395 5.95332 5.93851C5.95332 5.76829 6.00201 5.61699 6.09332 5.49721C6.19071 5.37742 6.31854 5.27655 6.48897 5.20721C6.5681 5.17568 6.65332 5.15047 6.74462 5.13786V6.78329H6.75071ZM8.04723 8.97721C7.94375 9.10329 7.80984 9.20416 7.63332 9.27351C7.52984 9.31764 7.42027 9.34286 7.29854 9.35547V7.60286C7.39593 7.63438 7.48723 7.67221 7.57245 7.71003C7.76723 7.79829 7.91332 7.90547 8.02288 8.03786C8.13245 8.17025 8.18723 8.33416 8.19332 8.5359C8.1994 8.70612 8.14462 8.85112 8.04723 8.97721Z" fill="#FAF28A"/>
<path d="M3.14105 9.70226C3.04975 9.55726 2.86714 9.50683 2.72105 9.60139C2.58105 9.69596 2.53235 9.88509 2.62366 10.0364C2.73322 10.2255 2.85496 10.402 2.98888 10.5723C3.04975 10.6479 3.13496 10.692 3.22627 10.692C3.29322 10.692 3.36018 10.6668 3.41496 10.6227C3.54888 10.5155 3.56714 10.3138 3.46366 10.1814C3.34801 10.0238 3.23844 9.86618 3.14105 9.70226Z" fill="#FAF28A"/>
<path d="M2.67789 8.65592C2.62311 8.4731 2.5805 8.29027 2.54398 8.09484C2.51355 7.92462 2.35529 7.81114 2.19094 7.84266C2.02659 7.87418 1.91703 8.0381 1.94746 8.20831C1.98398 8.42266 2.03876 8.63701 2.09963 8.84505C2.14224 8.97744 2.25789 9.0657 2.39181 9.0657C2.42224 9.0657 2.45268 9.0594 2.48311 9.0531C2.64137 8.99636 2.73268 8.81983 2.67789 8.65592Z" fill="#FAF28A"/>
<path d="M4.28485 3.50542C4.41876 3.39825 4.44919 3.20281 4.34572 3.06412C4.24224 2.92542 4.05354 2.8939 3.91963 3.00107C3.74919 3.13346 3.59093 3.27216 3.43876 3.42346C3.31702 3.54325 3.31702 3.74499 3.43267 3.87107C3.49354 3.93412 3.57267 3.96564 3.6518 3.96564C3.72485 3.96564 3.80398 3.93412 3.86485 3.87738C3.99267 3.74499 4.13267 3.6189 4.28485 3.50542Z" fill="#FAF28A"/>
<path d="M2.1613 7.23749C2.16738 7.23749 2.17347 7.23749 2.17956 7.23749C2.33782 7.23749 2.47173 7.1114 2.4839 6.94119C2.49608 6.74575 2.52043 6.55662 2.55086 6.36749C2.5813 6.19728 2.47173 6.03336 2.30738 6.00184C2.14303 5.97032 1.98477 6.0838 1.95434 6.25401C1.91782 6.46836 1.88738 6.68271 1.87521 6.90336C1.86912 7.07988 1.99695 7.22488 2.1613 7.23749Z" fill="#FAF28A"/>
<path d="M11.2185 5.56021C11.2672 5.6863 11.3828 5.76195 11.5046 5.76195C11.5411 5.76195 11.5776 5.75565 11.6142 5.74304C11.7724 5.68 11.8515 5.49717 11.7907 5.33326C11.7176 5.13152 11.6263 4.92978 11.5289 4.74065C11.4498 4.58934 11.2672 4.5263 11.115 4.61456C10.9689 4.69652 10.9142 4.88565 10.9933 5.04326C11.0724 5.20086 11.1515 5.37739 11.2185 5.56021Z" fill="#FAF28A"/>
<path d="M8.51 2.83048C8.68652 2.89352 8.85696 2.96918 9.02131 3.05744C9.06391 3.08265 9.11261 3.08896 9.15522 3.08896C9.26478 3.08896 9.37435 3.02591 9.42913 2.91244C9.50217 2.75483 9.44131 2.5657 9.29522 2.49005C9.10652 2.39548 8.91174 2.30722 8.71087 2.23157C8.55261 2.17483 8.37609 2.26309 8.32131 2.427C8.26652 2.59091 8.35174 2.77374 8.51 2.83048Z" fill="#FAF28A"/>
<path d="M6.87217 2.56598H6.99999C7.14608 2.56598 7.28608 2.57229 7.42608 2.5849C7.43825 2.5849 7.44434 2.5849 7.45651 2.5849C7.60869 2.5849 7.7426 2.46511 7.76086 2.3012C7.77304 2.12468 7.6513 1.97337 7.48695 1.96076C7.32869 1.94816 7.17043 1.93555 7.00608 1.93555H6.85391C6.68347 1.94185 6.55565 2.08685 6.56173 2.26337C6.56173 2.43359 6.70173 2.57229 6.87217 2.56598Z" fill="#FAF28A"/>
<path d="M2.4892 5.42793C2.53181 5.45315 2.57442 5.45946 2.61703 5.45946C2.73268 5.45946 2.84224 5.39011 2.89094 5.27663C2.97007 5.10011 3.05529 4.92989 3.15877 4.77228C3.25007 4.62728 3.20138 4.43185 3.06138 4.33728C2.92138 4.24272 2.73268 4.28685 2.64138 4.43815C2.53181 4.62098 2.42833 4.81641 2.34311 5.01185C2.27007 5.16946 2.33703 5.35859 2.4892 5.42793Z" fill="#FAF28A"/>
<path d="M4.71744 11.2976C4.55918 11.2031 4.40092 11.0959 4.25483 10.9761C4.12092 10.8689 3.93222 10.9005 3.82874 11.0328C3.72526 11.1652 3.74961 11.367 3.88352 11.4742C4.04787 11.6065 4.22439 11.7263 4.407 11.8398C4.4557 11.8713 4.51048 11.8839 4.55918 11.8839C4.66265 11.8839 4.76613 11.8272 4.82092 11.7263C4.91222 11.575 4.86352 11.3859 4.71744 11.2976Z" fill="#FAF28A"/>
<path d="M10.6767 9.98595C10.5671 10.1436 10.4514 10.2886 10.3236 10.4336C10.208 10.5596 10.214 10.7614 10.3419 10.8812C10.4027 10.9379 10.4758 10.9631 10.5488 10.9631C10.628 10.9631 10.7132 10.9316 10.774 10.8623C10.9201 10.7046 11.048 10.5344 11.1758 10.3516C11.2732 10.2129 11.2427 10.0112 11.1088 9.91029C10.9627 9.80942 10.774 9.84095 10.6767 9.98595Z" fill="#FAF28A"/>
<path d="M11.7545 8.20176C11.5902 8.15763 11.4258 8.2585 11.3832 8.42872C11.3345 8.61785 11.2797 8.80068 11.2128 8.9772C11.1519 9.14111 11.2249 9.32394 11.3832 9.38698C11.4197 9.39959 11.4562 9.40589 11.4928 9.40589C11.6145 9.40589 11.7302 9.33024 11.7789 9.20416C11.858 9.00242 11.9189 8.79437 11.9736 8.58002C12.0102 8.41611 11.9128 8.24589 11.7545 8.20176Z" fill="#FAF28A"/>
<path d="M10.5725 4.19884C10.6455 4.19884 10.7186 4.17363 10.7795 4.11689C10.9012 3.99711 10.9134 3.80167 10.7977 3.66928C10.6577 3.50537 10.5055 3.35406 10.3473 3.21537C10.2195 3.10189 10.0308 3.1145 9.9212 3.24689C9.81163 3.37928 9.82381 3.57471 9.95164 3.68819C10.0916 3.81428 10.2255 3.94667 10.3534 4.09167C10.4082 4.16102 10.4873 4.19884 10.5725 4.19884Z" fill="#FAF28A"/>
<path d="M12.095 6.60079C12.0767 6.43058 11.9306 6.29819 11.7541 6.3234C11.5898 6.34232 11.468 6.49992 11.4924 6.67645C11.5167 6.86558 11.5289 7.05471 11.5289 7.25014V7.28797C11.5289 7.46449 11.6628 7.58427 11.8332 7.58427C12.0037 7.58427 12.1376 7.42666 12.1376 7.25014C12.1315 7.02949 12.1193 6.80884 12.095 6.60079Z" fill="#FAF28A"/>
<path d="M6.28232 11.8774C6.09971 11.8459 5.9171 11.8081 5.74058 11.7513C5.58232 11.7009 5.41188 11.8018 5.36319 11.9657C5.31449 12.1359 5.41188 12.3061 5.57014 12.3565C5.77101 12.4196 5.97797 12.4637 6.18493 12.5015C6.20319 12.5015 6.21536 12.5079 6.23362 12.5079C6.37971 12.5079 6.50753 12.4007 6.53188 12.2431C6.56232 12.0665 6.44667 11.9026 6.28232 11.8774Z" fill="#FAF28A"/>
<path d="M5.77088 2.74244C5.93523 2.692 6.02653 2.51548 5.98392 2.35157C5.93523 2.18135 5.76479 2.08679 5.60653 2.13092C5.39958 2.19396 5.20479 2.26331 5.01001 2.35157C4.85784 2.42092 4.78479 2.60374 4.84566 2.76135C4.89436 2.88113 5.01001 2.95679 5.12566 2.95679C5.16218 2.95679 5.20479 2.95048 5.24131 2.93157C5.41784 2.85592 5.59436 2.79287 5.77088 2.74244Z" fill="#FAF28A"/>
<path d="M7.94382 11.8335C7.76122 11.8713 7.57861 11.9028 7.38991 11.9154C7.22556 11.928 7.09774 12.0856 7.116 12.2559C7.12817 12.4198 7.26208 12.5459 7.42035 12.5459C7.42643 12.5459 7.43861 12.5459 7.44469 12.5459C7.65774 12.5269 7.86469 12.4954 8.06556 12.4513C8.22991 12.4135 8.33339 12.2495 8.30296 12.0793C8.26643 11.9091 8.10817 11.7956 7.94382 11.8335Z" fill="#FAF28A"/>
<path d="M9.4771 11.1711C9.32493 11.2782 9.16058 11.3728 8.99014 11.4548C8.83797 11.5304 8.7771 11.7195 8.85014 11.8772C8.90493 11.9906 9.0084 12.0537 9.12406 12.0537C9.16666 12.0537 9.21536 12.0411 9.25797 12.0222C9.44666 11.9276 9.62927 11.8141 9.80579 11.7006C9.94579 11.6061 9.9884 11.4106 9.8971 11.2656C9.80579 11.1206 9.6171 11.0765 9.4771 11.1711Z" fill="#FAF28A"/>
<path d="M7 0C3.14087 0 0 3.25304 0 7.25C0 11.247 3.14087 14.5 7 14.5C10.8591 14.5 14 11.247 14 7.25C14 3.25304 10.8591 0 7 0ZM7 13.8696C3.47565 13.8696 0.608696 10.9002 0.608696 7.25C0.608696 3.59978 3.47565 0.630435 7 0.630435C10.5243 0.630435 13.3913 3.59978 13.3913 7.25C13.3913 10.9002 10.5243 13.8696 7 13.8696Z" fill="#FAF28A"/>
</g>
<defs>
<clipPath id="clip0">
<rect width="14" height="14.5" fill="white"/>
</clipPath>
</defs>
</svg>
