<svg width="69" height="113" viewBox="0 0 69 113" fill="none" xmlns="http://www.w3.org/2000/svg">
<g clip-path="url(#clip0_1532_92)">
<path d="M24.8383 66.5903C20.6197 78.5038 16.3973 90.4174 12.1787 102.331C22.1141 105.557 32.0495 108.787 41.9886 112.013C45.8346 99.2769 49.6806 86.5445 53.5265 73.808C43.9638 71.4007 34.4011 68.9975 24.8383 66.5903Z" fill="#D22333"/>
<path d="M24.846 66.6067L21.7304 75.6053L18.6037 84.5507L15.4845 93.4879L12.3019 102.38L12.2161 102.188L27.1006 107.101C29.5789 107.932 32.0683 108.709 34.554 109.512L42.0149 111.903L41.8882 111.976L47.5826 92.8493L53.3441 73.7425L53.482 74.0086C48.723 72.8132 43.9677 71.5604 39.1975 70.3322L24.846 66.6067ZM24.8273 66.5739L39.164 70.0661C43.9565 71.2452 48.764 72.3997 53.5677 73.6115L53.7689 73.6606L53.7019 73.8776L47.9255 92.9721L42.082 112.046L42.0522 112.148L41.959 112.116L34.513 109.667C32.0311 108.857 29.5528 108.022 27.0634 107.24L12.1379 102.47L12 102.425L12.0522 102.274L15.1975 93.2955L18.4062 84.3583L21.6112 75.4374L24.8273 66.5739Z" fill="black"/>
<path d="M53.8435 73.9841C56.7279 74.5695 59.6124 75.1591 62.4969 75.7445C59.1317 88.1289 55.7664 100.509 52.4012 112.894C49.0882 112.599 45.7789 112.308 42.4658 112.013C46.2596 99.3383 50.0534 86.6591 53.8435 73.9841Z" fill="#F04D4E"/>
<path d="M53.836 73.9677L58.159 74.7742L62.5229 75.6094L62.6608 75.634L62.6198 75.7855L60.1341 85.087C59.2919 88.1821 58.4422 91.2731 57.5664 94.36C56.6944 97.4469 55.8298 100.534 54.9838 103.629C54.1416 106.724 53.3068 109.823 52.4906 112.926L52.4683 113.004L52.3937 113L42.4509 112.198L42.2422 112.181L42.3093 111.96L45.1378 102.409L48.0111 92.8739L50.9254 83.3962L52.3751 78.6676L53.836 73.9677ZM53.8546 74.0005L52.472 78.8109L51.0782 83.5886L48.3018 93.1236L45.4844 102.605L42.6223 112.067L42.477 111.829L52.4086 112.791L52.3118 112.865C53.1801 109.778 54.0298 106.687 54.8683 103.588C55.7068 100.489 56.5229 97.3855 57.3316 94.2822C58.1403 91.1748 58.9714 88.0757 59.8136 84.9806L62.3776 75.7077L62.4745 75.8837L58.185 74.9585L53.8546 74.0005Z" fill="black"/>
<path d="M45.9922 70.4633C48.3959 66.709 50.7996 62.9507 53.2034 59.1965C58.4394 60.0767 63.6754 60.957 68.9077 61.8372C68.9003 62.5782 68.8071 63.6385 68.427 64.8299C68.1437 65.7183 67.7822 66.4225 67.4655 66.9424C63.6195 66.2955 59.7736 65.6528 55.9276 65.0059C54.5375 67.4705 53.1512 69.9351 51.7611 72.3997C49.8382 71.7529 47.9152 71.1101 45.9922 70.4633Z" fill="white"/>
<path d="M45.9766 70.4714L49.4685 64.8094L51.261 61.9477C51.8648 60.9979 52.4573 60.0358 53.0722 59.0901L53.1281 59L53.2287 59.0164C54.5368 59.2415 55.8449 59.4667 57.1492 59.7124L61.066 60.4329C62.3741 60.6581 63.6784 60.8996 64.9902 61.1084C66.2983 61.3254 67.6101 61.5383 68.9219 61.7348L68.9964 61.7471V61.8331C68.9964 63.659 68.5045 65.489 67.584 67.0243L67.5356 67.1061L67.4424 67.0939C65.5157 66.7991 63.5927 66.4839 61.666 66.1727C59.7393 65.8657 57.82 65.534 55.8971 65.2065L56.0871 65.1083C55.394 66.3406 54.6933 67.5688 53.9815 68.7929L51.8573 72.4652L51.8089 72.5512L51.7231 72.5225L48.8163 71.4949L45.9766 70.4714ZM46.0101 70.455L48.9356 71.3639L51.7977 72.2728L51.6598 72.3301L53.7058 68.6045C54.384 67.36 55.0735 66.1236 55.7666 64.8913L55.8337 64.7726L55.9567 64.793C57.8797 65.1124 59.8064 65.4235 61.7256 65.7633C63.6486 66.099 65.5679 66.4265 67.4871 66.7786L67.3455 66.8482C68.2623 65.3826 68.7803 63.618 68.8176 61.829L68.8921 61.9272C67.5877 61.6857 66.2797 61.4605 64.9716 61.2353C63.6635 61.0061 62.3517 60.8055 61.0436 60.5926L57.1082 59.9948C55.7964 59.8024 54.4846 59.5854 53.1766 59.3685L53.3368 59.2948C52.7517 60.2282 52.1405 61.1453 51.5405 62.0705L49.7256 64.8422L46.0101 70.455Z" fill="black"/>
<path d="M33.9319 79.5888C31.5952 77.7096 28.1741 78.5776 26.1915 80.1947C23.117 82.7002 22.9232 87.4861 23.881 90.6303C24.8946 93.9588 27.8425 97.5369 30.1344 96.972C30.63 96.8491 31.2636 96.493 31.8748 95.4981C32.0499 96.0836 32.3965 96.9474 33.1344 97.6229C35.4114 99.7149 39.0897 97.8767 39.3244 97.7539C42.3654 96.1777 43.8561 92.3744 43.7928 89.0992C43.7741 88.0839 43.5319 83.1219 40.3716 81.82C38.3518 80.9889 36.3393 82.1475 35.8102 82.4751C35.5567 81.7095 35.0387 80.4772 33.9319 79.5888Z" fill="#F04D4E"/>
<path d="M33.9204 79.6052C32.8993 78.8028 31.6173 78.4957 30.38 78.5899C29.139 78.6922 27.9316 79.1426 26.8769 79.8426C26.6123 80.0187 26.3589 80.207 26.1278 80.4281L25.7775 80.7597C25.6657 80.8743 25.5651 81.0053 25.4607 81.1241C25.2371 81.3574 25.0732 81.644 24.8794 81.9019C24.7229 82.1926 24.5402 82.4628 24.4173 82.774C23.862 83.9735 23.5974 85.3204 23.534 86.6714C23.508 87.347 23.5489 88.0266 23.616 88.698C23.7017 89.3694 23.8322 90.0326 24.0222 90.6795C24.4173 91.965 25.0284 93.1768 25.7924 94.2495C26.18 94.7817 26.6123 95.2771 27.0856 95.7192C27.5552 96.1614 28.0881 96.538 28.6694 96.7591C29.2471 96.9884 29.8918 97.0293 30.4583 96.7755C31.0247 96.5175 31.4645 96.0058 31.8036 95.4449L31.893 95.2975L31.9452 95.4654C32.1465 96.1286 32.467 96.7509 32.9104 97.2422C33.3576 97.7253 33.9092 98.0978 34.5166 98.2739C35.739 98.6382 37.0508 98.4254 38.2545 98.0037C38.5564 97.8972 38.8545 97.7703 39.1452 97.6311C39.2868 97.5656 39.4247 97.4715 39.5626 97.3937C39.7042 97.3159 39.8384 97.2299 39.9688 97.1276C40.5017 96.7591 40.9825 96.2965 41.3999 95.7806C42.2496 94.7489 42.8347 93.4798 43.2036 92.1492C43.5614 90.8105 43.6806 89.4062 43.5278 88.0143C43.457 87.3183 43.3415 86.6305 43.1663 85.9591C42.9912 85.2918 42.7713 84.6326 42.4471 84.039C42.1266 83.4454 41.7166 82.9131 41.2173 82.4997C41.0868 82.4055 40.9638 82.299 40.8297 82.209L40.4086 81.9838C40.1216 81.8405 39.816 81.7504 39.5067 81.689C38.2545 81.4557 36.9427 81.8405 35.821 82.5037L35.7763 82.5283L35.7614 82.4792C35.4148 81.3615 34.7961 80.3175 33.9204 79.6052ZM33.9427 79.5724C34.8371 80.2807 35.4781 81.3247 35.8434 82.4587L35.7837 82.4341C36.9017 81.7259 38.2173 81.2755 39.544 81.468C39.8719 81.5171 40.1999 81.6031 40.5055 81.7423L40.9638 81.9633C41.1092 82.0534 41.2471 82.1558 41.3887 82.254C41.9365 82.6757 42.3837 83.2407 42.734 83.8589C43.4309 85.1116 43.7552 86.5486 43.9042 87.9774C44.0682 89.4103 43.9489 90.8924 43.58 92.2802C43.1961 93.664 42.5663 94.9823 41.6682 96.0549C41.2247 96.5953 40.7179 97.0743 40.1514 97.4551C40.0135 97.5574 39.8719 97.6475 39.7229 97.7294C39.5738 97.8113 39.4359 97.9054 39.2757 97.975C38.9701 98.1183 38.6607 98.237 38.3477 98.3435C37.0993 98.7488 35.7353 98.9494 34.4458 98.5359C33.8048 98.3353 33.2197 97.9259 32.7614 97.4019C32.303 96.8696 31.9862 96.2146 31.7924 95.5268L31.934 95.5473C31.5725 96.1122 31.1104 96.6404 30.5104 96.9147C29.9067 97.1767 29.2247 97.1235 28.6322 96.886C27.4322 96.3988 26.4819 95.4081 25.6806 94.3559C24.8868 93.2833 24.2272 92.0796 23.7949 90.7696C23.5825 90.1145 23.4297 89.4349 23.3291 88.7471C23.2359 88.0593 23.2024 87.3592 23.2173 86.6633C23.2657 85.2713 23.534 83.8671 24.1415 82.6225C24.7117 81.3615 25.6657 80.3298 26.7651 79.642C27.8719 78.9665 29.1129 78.553 30.3725 78.4957C31.6247 78.4261 32.9216 78.7454 33.9427 79.5724Z" fill="black"/>
<path d="M41.7804 79.6174C40.9046 81.3328 40.014 81.8241 39.4289 81.9797C39.2761 82.0206 39.1494 82.037 37.9084 82.1762C37.1556 82.2581 36.522 82.3277 36.0674 82.3809C36.209 82.1312 36.4699 81.7177 36.8537 81.2796C37.3233 80.7474 37.7593 80.2438 38.4189 80.0186C38.9779 79.8262 39.1792 80.0105 40.0848 79.9531C40.8152 79.9081 41.4003 79.7443 41.7804 79.6174Z" fill="#3E9581"/>
<path d="M41.7879 79.6093C41.542 80.1783 41.2401 80.6901 40.8488 81.1404C40.4575 81.5785 39.9618 81.9551 39.3954 82.0698L37.7258 82.2335C37.1743 82.2826 36.6227 82.3604 36.0711 82.4382L35.9668 82.4546L36.0227 82.3522C36.3059 81.8241 36.6674 81.341 37.0587 80.9111C37.4388 80.4731 37.901 80.0473 38.4711 79.8917C38.7544 79.8017 39.06 79.8221 39.3283 79.8508C39.6003 79.8795 39.8724 79.8836 40.1482 79.8713C40.696 79.8426 41.2289 79.7525 41.7879 79.6093ZM41.773 79.6215C41.2736 79.8385 40.7072 79.9695 40.1556 80.0268C39.8761 80.0555 39.5929 80.0596 39.3171 80.0432C39.0376 80.0268 38.7767 80.0023 38.5233 80.0923C38.009 80.2479 37.573 80.6205 37.1854 81.0422C36.7867 81.4638 36.414 81.8978 36.1121 82.4096L36.0637 82.3236C36.619 82.2785 37.1705 82.2335 37.7221 82.1598C38.2736 82.0943 38.8177 81.9838 39.3618 81.9019C39.891 81.775 40.3569 81.4393 40.7482 81.0258C41.1395 80.6164 41.4711 80.1128 41.773 79.6215Z" fill="black"/>
<path d="M41.7804 79.6174C40.8487 80.1497 39.8463 80.6778 38.7804 81.1854C37.8413 81.6358 36.9357 82.0288 36.0674 82.3768C36.5556 82.3318 37.245 82.2622 38.0761 82.1557C39.414 81.9838 39.645 81.906 39.7941 81.8446C40.2525 81.6603 41.0873 81.1609 41.7804 79.6174Z" fill="#1E6F5D"/>
<path d="M41.7726 79.6215C40.785 80.1701 39.9055 80.7064 38.985 81.1691C38.5155 81.3942 38.0086 81.5621 37.5279 81.775C37.0397 81.9797 36.559 82.1926 36.0819 82.4259L36.0633 82.3318L37.7142 82.1025C38.2658 82.037 38.8173 81.951 39.3614 81.8569C39.8944 81.775 40.3751 81.4516 40.7739 81.0544C41.1763 80.6491 41.4931 80.1292 41.7726 79.6215ZM41.7838 79.6093C41.5639 80.1947 41.2732 80.7187 40.8782 81.1691C40.4832 81.6071 39.9763 81.9756 39.395 82.0657C38.2881 82.2785 37.1776 82.3318 36.067 82.43L35.7354 82.4587L36.0484 82.3318C36.5366 82.1353 37.0211 81.9265 37.5018 81.7054C37.9826 81.4802 38.4558 81.2591 38.9329 81.0094C39.8906 80.4895 40.8931 80.0432 41.7838 79.6093Z" fill="black"/>
<path d="M36.1875 75.4661C34.98 76.9236 34.8384 78.0044 34.8869 78.6635C34.8981 78.8355 34.9241 78.9706 35.1999 80.3093C35.3639 81.12 35.5055 81.7996 35.6061 82.2949C35.7738 82.0657 36.0496 81.6686 36.3105 81.124C36.6235 80.4649 36.9179 79.8549 36.9067 79.0934C36.8956 78.4507 36.6757 78.2992 36.4372 77.3371C36.2397 76.5633 36.1949 75.9001 36.1875 75.4661Z" fill="#3E9581"/>
<path d="M36.1837 75.4784C35.8557 75.9492 35.524 76.4528 35.293 76.9932C35.0582 77.5336 34.9166 78.1272 34.9762 78.7168C35.0768 79.3104 35.1551 79.9122 35.2706 80.5059C35.3824 81.1036 35.5166 81.6931 35.6545 82.2868L35.565 82.2622C35.9079 81.7873 36.165 81.2592 36.4035 80.7106C36.6458 80.1742 36.8321 79.6011 36.8023 79.0156C36.7986 78.725 36.6942 78.463 36.5936 78.1723C36.493 77.8857 36.4073 77.5909 36.3439 77.2921C36.2209 76.6984 36.1539 76.068 36.1837 75.4784ZM36.1911 75.4579C36.2433 76.0843 36.3327 76.6698 36.4893 77.2511C36.5638 77.5418 36.657 77.8243 36.765 78.0986C36.8768 78.3688 36.9886 78.6799 36.9998 79.0034C37.0445 79.6461 36.8247 80.2602 36.5638 80.7965C36.3178 81.341 36.0122 81.8692 35.647 82.3318L35.5762 82.4219L35.5576 82.3113C35.4495 81.7136 35.3414 81.1159 35.211 80.5222L34.8234 78.7332C34.7414 78.1068 34.9129 77.4722 35.1663 76.9236C35.4309 76.3709 35.7737 75.8919 36.1911 75.4579Z" fill="black"/>
<path d="M36.1868 75.4661C36.0228 76.6084 35.8812 77.8161 35.7769 79.0893C35.6837 80.2111 35.6315 81.2796 35.6017 82.2949C35.4862 81.775 35.3297 81.0299 35.1582 80.1292C34.8825 78.6799 34.8787 78.4179 34.8825 78.2419C34.9048 77.7055 35.0688 76.678 36.1868 75.4661Z" fill="#1E6F5D"/>
<path d="M36.1905 75.4579C36.0936 76.5265 36.0265 77.7097 35.8812 78.8764C35.8178 79.4537 35.7768 80.0146 35.7321 80.5877C35.6911 81.1568 35.665 81.73 35.6501 82.299L35.6389 82.6634L35.5607 82.3072C35.2961 81.12 34.9905 79.945 34.8228 78.725C34.7184 78.0945 34.875 77.4476 35.1284 76.899C35.393 76.3382 35.7545 75.8714 36.1905 75.4579ZM36.183 75.4784C35.8327 75.9288 35.4861 76.4241 35.2625 76.9686C35.0427 77.5131 34.9197 78.115 35.0129 78.6963C35.1023 79.2899 35.2029 79.8959 35.3222 80.4895L35.6464 82.2868L35.557 82.2949C35.6054 81.7259 35.6389 81.1527 35.6613 80.5836C35.6911 80.0146 35.6762 79.4332 35.7247 78.8724C35.8327 77.7629 36.0228 76.678 36.183 75.4784Z" fill="black"/>
<path d="M31.625 87.744C31.6325 88.8658 32.2772 89.8279 33.1716 90.1104C34.2374 90.4461 35.1095 89.6477 35.1765 89.5863" stroke="black" stroke-miterlimit="10" stroke-linecap="round"/>
<path d="M37.8668 91.6088C38.4082 91.6088 38.847 91.1267 38.847 90.532C38.847 89.9374 38.4082 89.4553 37.8668 89.4553C37.3255 89.4553 36.8867 89.9374 36.8867 90.532C36.8867 91.1267 37.3255 91.6088 37.8668 91.6088Z" fill="#F26B6C"/>
<path d="M29.2877 87.7195C29.8291 87.7195 30.2679 87.2374 30.2679 86.6428C30.2679 86.0481 29.8291 85.566 29.2877 85.566C28.7464 85.566 28.3076 86.0481 28.3076 86.6428C28.3076 87.2374 28.7464 87.7195 29.2877 87.7195Z" fill="#F26B6C"/>
<path d="M35.5004 86.5773C35.3849 87.6335 35.7575 88.4564 36.3911 88.6038C37.1476 88.7798 37.8818 87.9119 37.9414 87.8423" stroke="black" stroke-miterlimit="10" stroke-linecap="round"/>
<path d="M30.9467 84.2232C30.8312 85.2795 31.2038 86.1024 31.8374 86.2497C32.5939 86.4258 33.328 85.5579 33.3877 85.4883" stroke="black" stroke-miterlimit="10" stroke-linecap="round"/>
</g>
<g clip-path="url(#clip1_1532_92)">
<path d="M4.53711 35.1121C5.68341 42.6786 6.82971 50.2452 7.97662 57.8158C12.7381 57.2937 17.5029 56.7669 22.2644 56.2448C21.0033 48.4964 19.7468 40.7515 18.4857 33.0031C13.8384 33.703 9.18773 34.4075 4.53711 35.1121Z" fill="#F26B6C"/>
<path d="M4.55441 35.1219L5.49979 40.8388C5.8107 42.7341 6.1165 44.6218 6.41331 46.5025C7.01981 50.2704 7.57937 54.0163 8.09611 57.7936L7.96466 57.6849C10.349 57.4606 12.7342 57.2155 15.1142 56.9628C17.4957 56.6933 19.8765 56.4198 22.2543 56.126L22.1624 56.252C21.5011 52.3845 20.8244 48.5194 20.1858 44.6443L19.2308 38.8375L18.299 33.0272L18.5184 33.1932L11.5767 34.1618L4.55441 35.1219ZM4.52298 35.0976L11.4487 33.9446L18.4588 32.7996L18.6442 32.7674L18.6782 32.9656L19.6371 38.7718L20.5695 44.5862C21.192 48.4595 21.7763 52.3428 22.3717 56.2203L22.3895 56.3379L22.2804 56.3503C19.8972 56.5827 17.5127 56.8319 15.1294 57.0892C12.7479 57.3586 10.3683 57.6403 7.99114 57.9382L7.87814 57.9511L7.8597 57.8294C7.23014 54.0401 6.6434 50.2195 6.1036 46.4208C5.82308 44.5168 5.55604 42.6232 5.29736 40.7326L4.52298 35.0976Z" fill="black"/>
<path d="M18.4695 33.0014C15.2901 29.3909 12.1146 25.7798 8.93524 22.1693C17.9233 20.7081 26.9114 19.2468 35.9001 17.7896C38.9558 21.369 42.0077 24.949 45.0634 28.5285C36.199 30.0208 27.3339 31.5091 18.4695 33.0014Z" fill="#D22333"/>
<path d="M18.464 33.0188C16.8604 31.253 15.2447 29.4849 13.6368 27.6907C12.0225 25.9058 10.4193 24.0901 8.81351 22.2832L8.60303 22.0453L8.90858 21.9948C11.1541 21.6132 13.4007 21.2645 15.6493 20.9031L22.4011 19.8844C24.6515 19.5352 26.9026 19.19 29.1448 18.8129L35.8782 17.6725L35.9363 17.6637L35.9792 17.7112L40.6044 23.0408L45.2088 28.3902L45.4537 28.6726L45.0978 28.7307L38.4252 29.8536C36.2017 30.2237 33.9744 30.5943 31.7549 30.9389L25.0964 31.9974L18.464 33.0188ZM18.4739 32.9799L25.1368 31.7672L31.7763 30.5828C33.9871 30.1815 36.1939 29.8057 38.4007 29.4299L45.0235 28.3186L44.9086 28.6598L40.3542 23.2738L35.8161 17.8645L35.9171 17.9032L29.1696 18.9503C26.9192 19.2995 24.6787 19.6887 22.4326 20.0664L15.7042 21.2393C13.4574 21.6128 11.2158 21.9939 8.9647 22.3391L9.05978 22.0508C10.6334 23.8543 12.2102 25.6532 13.7713 27.4794C15.3384 29.2922 16.902 31.1346 18.4739 32.9799Z" fill="black"/>
<path d="M18.7609 33.1191C19.9724 40.8542 21.1833 48.5853 22.3909 56.3211C31.3484 54.8147 40.3058 53.3082 49.2588 51.7984C47.8352 43.9459 46.4117 36.0935 44.9882 28.241C36.2512 29.8676 27.5058 31.4913 18.7609 33.1191Z" fill="#D22333"/>
<path d="M18.7779 33.1289L20.7214 44.754C21.3369 48.6077 21.9777 52.445 22.561 56.2953L22.3641 56.1466C24.6025 55.7702 26.8445 55.4181 29.0899 55.0613L35.8169 53.9841C38.0572 53.6198 40.2962 53.2474 42.5354 52.8501L49.245 51.6842L49.1576 51.8136L46.9512 40.0499C46.2337 36.1245 45.4928 32.2027 44.7946 28.2744L45.0353 28.4496L38.506 29.6546L31.9577 30.8127L18.7779 33.1289ZM18.7465 33.1046L31.7984 30.5463L38.3637 29.2653L44.9552 28.026L45.1555 27.9873L45.1952 28.1971C45.9206 32.1213 46.6033 36.0519 47.3053 39.9796L49.3689 51.7692L49.39 51.8822L49.2815 51.8986L42.5593 53.0083C40.3179 53.3645 38.0801 53.745 35.8403 54.1383L29.1337 55.3244C26.8984 55.7212 24.6637 56.122 22.4253 56.4984L22.2593 56.5277L22.2322 56.3492C21.604 52.4643 21.034 48.5706 20.4413 44.6844L18.7465 33.1046Z" fill="black"/>
<path d="M8.89126 21.8772C8.7596 20.5109 8.63182 19.1441 8.50017 17.7779C17.4294 16.4251 26.3586 15.0724 35.2878 13.7197C35.4126 15.0413 35.5337 16.3635 35.6586 17.6851C26.7367 19.0865 17.8143 20.4839 8.89126 21.8772Z" fill="#F26B6C"/>
<path d="M8.87795 21.8958C8.72999 20.5527 8.54285 19.1866 8.39465 17.7897L8.38316 17.6876L8.48005 17.673C10.7062 17.2942 12.936 16.9398 15.1671 16.5935C16.2814 16.4122 17.3976 16.2431 18.5156 16.0862C19.6317 15.9171 20.7497 15.7602 21.8689 15.6114C24.1067 15.3097 26.3446 15.0081 28.5775 14.674C30.8104 14.3398 33.0396 13.9814 35.267 13.6107L35.3794 13.5937L35.394 13.716L35.808 17.679L35.8218 17.8222L35.6829 17.8474C33.4496 18.2314 31.2036 18.5841 28.9595 18.9489C26.7121 19.3185 24.4696 19.6416 22.2269 19.9897L15.5272 20.959L12.1905 21.4396L8.87795 21.8958ZM8.90465 21.8627L12.2885 21.2753L15.6439 20.7089L22.3281 19.5842C24.5463 19.2316 26.7614 18.8586 28.9794 18.5309C31.1962 18.1951 33.4157 17.8505 35.6394 17.5344L35.5143 17.7028L35.1861 13.7309L35.3086 13.8327C33.0713 14.1384 30.836 14.4563 28.6043 14.7985C26.3726 15.1408 24.1458 15.5155 21.9191 15.8902C20.806 16.0796 19.6917 16.2608 18.5755 16.4299C17.4606 16.6071 16.3445 16.7762 15.2271 16.9372C12.9936 17.2673 10.7582 17.5851 8.52037 17.8868L8.60577 17.7701C8.71762 19.1103 8.79317 20.4726 8.90465 21.8627Z" fill="black"/>
<path d="M8.67927 22.1839C7.29839 26.4935 5.91751 30.8032 4.53663 35.1128C9.13687 34.4159 13.7332 33.7196 18.3335 33.0227C15.118 29.4093 11.8986 25.7966 8.67927 22.1839Z" fill="#F26B6C"/>
<path d="M8.68601 22.2028C8.01491 24.446 7.37906 26.6341 6.72033 28.7758C6.39607 29.8542 6.06548 30.9169 5.71428 31.9745C5.37145 33.0349 4.99903 34.0833 4.63682 35.1467L4.52371 35.0019C5.67965 34.86 6.82742 34.6903 7.97968 34.524C9.12948 34.3415 10.276 34.1637 11.4227 33.9609C13.7129 33.56 16.0101 33.1788 18.3058 32.8144L18.1948 33.1549C17.3911 32.2723 16.5984 31.3839 15.8123 30.4862C15.0261 29.5885 14.2373 28.6995 13.4558 27.7803L8.68601 22.2028ZM8.67599 22.1628L13.5604 27.4241C14.3886 28.3113 15.2095 29.2287 16.033 30.1373C16.8565 31.046 17.6735 31.9639 18.4788 32.8836L18.7283 33.1696L18.3673 33.2201C16.0672 33.5561 13.7603 33.8724 11.4535 34.1638C10.2981 34.3097 9.15038 34.4795 7.99812 34.6457C6.84832 34.8282 5.70178 35.0061 4.55567 35.2129L4.38638 35.2469L4.4393 35.0728C4.76559 33.9817 5.08555 32.8749 5.43122 31.7808C5.77239 30.6833 6.1303 29.5915 6.49842 28.5147C7.22119 26.3509 7.96622 24.2293 8.67599 22.1628Z" fill="black"/>
<path d="M28.6042 35.1347C28.1698 35.5118 25.3954 38.0031 25.5418 41.9527C25.6515 44.8745 27.2924 46.8089 28.0886 47.7466C28.6872 48.4528 31.2582 51.2922 35.0627 51.3882C35.9265 51.4109 36.6147 51.427 37.4027 51.0544C40.53 49.5846 40.8274 44.1152 40.5262 41.2639C40.3811 39.8873 40.1471 37.8974 38.7142 36.002C38.2574 35.3947 36.9779 33.7002 34.7707 33.1837C31.6767 32.4655 29.1926 34.6223 28.6042 35.1347Z" fill="#F04D4E"/>
<path d="M31.9504 43.0902C32.7882 43.8058 33.9296 43.8819 34.7353 43.3116C35.6946 42.6309 35.684 41.3833 35.6809 41.2841" stroke="black" stroke-miterlimit="10" stroke-linecap="round"/>
<path d="M38.3396 40.6988C38.9026 40.6135 39.2865 40.0666 39.1972 39.4773C39.108 38.888 38.5793 38.4794 38.0163 38.5647C37.4534 38.65 37.0694 39.1968 37.1587 39.7861C37.248 40.3754 37.7767 40.784 38.3396 40.6988Z" fill="#F26B6C"/>
<path d="M29.7381 45.4175C30.301 45.3322 30.685 44.7854 30.5957 44.1961C30.5064 43.6068 29.9777 43.1982 29.4148 43.2835C28.8518 43.3687 28.4679 43.9156 28.5572 44.5049C28.6464 45.0942 29.1751 45.5028 29.7381 45.4175Z" fill="#F26B6C"/>
<path d="M33.6657 39.0785C34.3702 39.8558 35.2312 40.0698 35.7635 39.6322C36.3978 39.1087 36.2428 37.9286 36.2287 37.8353" stroke="black" stroke-miterlimit="10" stroke-linecap="round"/>
<path d="M28.8825 41.3927C29.587 42.17 30.448 42.384 30.9803 41.9465C31.6146 41.4229 31.4596 40.2428 31.4455 40.1495" stroke="black" stroke-miterlimit="10" stroke-linecap="round"/>
<path d="M30.9438 29.431C31.6539 31.2657 31.4355 32.3364 31.1691 32.9329C31.0976 33.089 31.0283 33.2074 30.3171 34.3485C29.8828 35.041 29.523 35.6226 29.2617 36.044C29.1677 35.7636 29.0274 35.2827 28.9552 34.6752C28.8634 33.9379 28.775 33.2499 29.0365 32.5421C29.259 31.944 29.5285 31.8907 30.0842 31.0844C30.5291 30.4359 30.7911 29.836 30.9438 29.431Z" fill="#3E9581"/>
<path d="M30.9425 29.4225C31.2073 29.9925 31.3907 30.5748 31.4725 31.1933C31.5453 31.8048 31.5029 32.4669 31.2136 33.0171L30.2388 34.5385C29.9144 35.04 29.6079 35.5554 29.306 36.0743L29.2491 36.1701L29.2093 36.0641C29.0033 35.4893 28.8743 34.8739 28.8099 34.2652C28.7305 33.663 28.7175 33.001 28.9741 32.4184C29.0912 32.1184 29.3079 31.8739 29.5063 31.6654C29.7073 31.4482 29.8909 31.2212 30.0605 30.9797C30.4041 30.5002 30.6828 29.9848 30.9425 29.4225ZM30.9456 29.4428C30.7775 30.0078 30.5055 30.5678 30.1862 31.0768C30.0223 31.3299 29.8412 31.5732 29.6459 31.802C29.4506 32.0308 29.26 32.2381 29.1618 32.5062C28.9378 33.0423 28.9345 33.6487 28.9971 34.2452C29.0532 34.8509 29.1313 35.445 29.3147 36.0273L29.2174 36.013C29.5463 35.515 29.8746 35.0128 30.1856 34.5009C30.4965 33.989 30.7728 33.4574 31.0715 32.9431C31.3245 32.4151 31.3788 31.8051 31.3278 31.2069C31.2736 30.6133 31.111 30.0112 30.9456 29.4428Z" fill="black"/>
<path d="M30.944 29.431C30.731 30.5631 30.4666 31.7486 30.1496 32.9795C29.8698 34.0636 29.5685 35.0845 29.2619 36.044C29.5479 35.6023 29.9475 34.969 30.4166 34.1924C31.1673 32.9457 31.2607 32.6991 31.311 32.5338C31.4722 32.0279 31.6464 31.0055 30.944 29.431Z" fill="#1E6F5D"/>
<path d="M30.9455 29.4429C30.705 30.6289 30.5329 31.7175 30.2757 32.794C30.14 33.3375 29.9282 33.8759 29.7687 34.4188C29.6013 34.963 29.4462 35.5094 29.304 36.0622L29.2179 36.0171L30.1328 34.4674C30.4477 33.9549 30.7413 33.4331 31.031 32.912C31.3193 32.4076 31.393 31.7947 31.3581 31.1982C31.3233 30.6017 31.1413 30.0025 30.9455 29.4429ZM30.9424 29.4226C31.237 29.9797 31.4397 30.5591 31.5144 31.1828C31.5839 31.7989 31.526 32.4635 31.2128 33.0131C30.646 34.0867 29.9541 35.0672 29.302 36.0749L29.1055 36.3745L29.2159 36.0299C29.3916 35.4886 29.5511 34.9457 29.7017 34.3958C29.8478 33.8424 29.9919 33.3018 30.1207 32.7386C30.3596 31.5943 30.683 30.4579 30.9424 29.4226Z" fill="black"/>
<path d="M22.8936 34.2568C24.0728 35.8129 25.0755 36.1508 25.7067 36.2087C25.8717 36.2252 26.0053 36.2174 27.3156 36.1517C28.1101 36.1102 28.7788 36.0753 29.2622 36.0477C29.0742 35.8272 28.7408 35.4585 28.272 35.0855C27.6999 34.6326 27.1721 34.2104 26.4491 34.0958C25.8395 33.9972 25.6579 34.2115 24.7093 34.3096C23.9397 34.3847 23.3034 34.3192 22.8936 34.2568Z" fill="#3E9581"/>
<path d="M22.9021 34.2597C23.293 34.6944 23.7136 35.1411 24.1897 35.484C24.662 35.8275 25.2001 36.0822 25.7688 36.1205C26.3463 36.1119 26.9275 36.1276 27.5109 36.1056C28.0944 36.0836 28.6786 36.0408 29.2577 35.9904L29.2202 36.0832C28.8262 35.6283 28.3702 35.2616 27.889 34.9112C27.4187 34.5549 26.91 34.2585 26.3524 34.1894C26.076 34.1441 25.8084 34.2095 25.5208 34.2739C25.2326 34.3341 24.9374 34.3747 24.647 34.3938C24.0615 34.4285 23.4573 34.3914 22.9021 34.2597ZM22.8848 34.2499C23.487 34.2998 24.0541 34.301 24.6307 34.2344C24.9194 34.2031 25.2011 34.1521 25.4797 34.0809C25.7538 34.0061 26.0685 33.9377 26.376 33.9783C26.9917 34.0386 27.5355 34.3837 27.9999 34.7532C28.4746 35.113 28.9269 35.5342 29.304 36.0083L29.3769 36.0968L29.2665 36.1011C28.6819 36.115 28.0979 36.1329 27.5169 36.1711L25.7585 36.2881C25.1535 36.2718 24.5776 35.9772 24.1055 35.6088C23.6233 35.2254 23.226 34.7751 22.8848 34.2499Z" fill="black"/>
<path d="M22.8936 34.2568C23.945 34.6287 25.0694 34.9855 26.2573 35.316C27.3042 35.6056 28.3082 35.8478 29.2622 36.0477C28.7484 36.0841 28.0216 36.1278 27.1426 36.1613C25.7234 36.2145 25.4753 36.1732 25.3078 36.1405C24.799 36.0266 23.8571 35.6713 22.8936 34.2568Z" fill="#1E6F5D"/>
<path d="M22.8848 34.2499C23.8794 34.535 24.9916 34.8106 26.0683 35.1662C26.6051 35.3339 27.1299 35.4744 27.663 35.6177C28.1955 35.757 28.7301 35.8835 29.2705 35.9967L29.6145 36.0691L29.2659 36.097C28.0975 36.1827 26.9358 36.3131 25.7541 36.2846C25.1366 36.291 24.5548 36.0098 24.075 35.6425C23.5894 35.2637 23.2046 34.7908 22.8848 34.2499ZM22.9021 34.2597C23.2723 34.7141 23.6797 35.1795 24.1618 35.509C24.64 35.8391 25.1911 36.0752 25.7576 36.0724C26.3369 36.0759 26.9228 36.0702 27.5056 36.0442L29.2583 35.9944L29.2537 36.0947C28.7199 35.9473 28.188 35.8121 27.6502 35.6902C27.1157 35.5637 26.564 35.4813 26.0419 35.3321C25.0087 35.0279 24.0141 34.6391 22.9021 34.2597Z" fill="black"/>
<path d="M38.2872 43.8319C37.9971 44.0626 38.3784 45.3495 38.7015 45.3628C38.9331 45.3734 39.347 44.7297 39.0759 44.2229C38.8972 43.8806 38.4567 43.6941 38.2872 43.8319Z" fill="#D1CA73"/>
<path d="M27.6767 38.5374C27.3865 38.7681 27.7678 40.055 28.091 40.0683C28.3225 40.0789 28.7364 39.4351 28.4654 38.9284C28.2866 38.5861 27.8467 38.4037 27.6767 38.5374Z" fill="#D1CA73"/>
<path d="M35.6796 35.1005C35.3895 35.3312 35.7708 36.6181 36.0939 36.6314C36.3254 36.642 36.7393 35.9982 36.4683 35.4914C36.2857 35.1497 35.8458 34.9674 35.6796 35.1005Z" fill="#D1CA73"/>
<path d="M33.0468 45.435C32.7567 45.6657 33.1379 46.9526 33.4611 46.9659C33.6926 46.9765 34.1065 46.3328 33.8355 45.826C33.6529 45.4843 33.213 45.3019 33.0468 45.435Z" fill="#D1CA73"/>
<path d="M32.6649 48.2238C32.3748 48.4545 32.7561 49.7414 33.0792 49.7547C33.3107 49.7653 33.7246 49.1216 33.4536 48.6148C33.2716 48.2771 32.8311 48.0907 32.6649 48.2238Z" fill="#D1CA73"/>
<path d="M36.6466 45.4334C36.3565 45.6641 36.7378 46.951 37.0609 46.9643C37.2924 46.9749 37.7063 46.3311 37.4353 45.8244C37.2566 45.4821 36.816 45.2957 36.6466 45.4334Z" fill="#D1CA73"/>
<path d="M36.6298 48.4366C36.3397 48.6673 36.721 49.9542 37.0441 49.9675C37.2756 49.9781 37.6895 49.3343 37.4185 48.8276C37.2398 48.4853 36.7998 48.3029 36.6298 48.4366Z" fill="#D1CA73"/>
<path d="M26.7909 41.8466C26.5008 42.0773 26.882 43.3642 27.2052 43.3775C27.4367 43.3881 27.8506 42.7444 27.5796 42.2376C27.3976 41.8999 26.9609 41.7129 26.7909 41.8466Z" fill="#D1CA73"/>
<path d="M33.1232 34.3713C32.833 34.602 33.2143 35.8889 33.5375 35.9022C33.769 35.9128 34.1829 35.2691 33.9119 34.7623C33.7331 34.42 33.2926 34.2336 33.1232 34.3713Z" fill="#D1CA73"/>
<path d="M21.2306 14.7493C21.9871 11.1859 22.743 7.61833 23.4957 4.05544C27.807 2.99557 32.119 1.93975 36.4265 0.880464C36.6365 1.42968 36.8788 2.24378 36.9364 3.25187C36.9785 4.00084 36.9053 4.64277 36.8125 5.12994C33.6479 5.90819 30.4793 6.68703 27.3146 7.46528C26.9659 9.74266 26.6132 12.0206 26.2645 14.298C24.5865 14.4484 22.9085 14.5989 21.2306 14.7493Z" fill="white"/>
<path d="M21.2132 14.7645L22.2263 9.43977L22.7673 6.73068C22.9516 5.82707 23.1268 4.91652 23.3278 4.01867L23.3505 3.90731L23.4539 3.88334C24.5327 3.62446 25.6115 3.36558 26.6972 3.12639L29.9441 2.39379C31.0228 2.1349 32.1041 1.89225 33.1804 1.61714C34.2573 1.34608 35.3342 1.07503 36.4054 0.792392L36.4843 0.763834L36.5166 0.846098C37.0548 2.20055 37.2337 3.7215 36.9686 5.16444L36.9485 5.2671L36.849 5.29048L32.1081 6.49843C30.5282 6.90378 28.9447 7.28479 27.3578 7.67045L27.5068 7.50261C27.3305 8.6416 27.1503 9.78116 26.9611 10.9138L26.3954 14.3238L26.3765 14.4346L26.2746 14.4418L21.2132 14.7645ZM21.2444 14.7348L26.2509 14.1548L26.13 14.2728L26.6145 10.8501C26.7747 9.70941 26.9427 8.56754 27.119 7.42856L27.1381 7.29286L27.268 7.26073C28.8497 6.86755 30.4308 6.47031 32.0195 6.09682L36.7804 4.96884L36.6646 5.09429C36.9401 3.72032 36.8402 2.24966 36.3445 0.913677L36.453 0.976084C35.3718 1.21874 34.2931 1.47762 33.2143 1.7365C32.1349 1.99133 31.0605 2.27861 29.9868 2.54502L26.7706 3.40164C25.7006 3.69239 24.6231 3.95939 23.5462 4.23044L23.6724 4.09512C23.4967 4.97669 23.292 5.85019 23.1002 6.73005L22.5088 9.36792L21.2444 14.7348Z" fill="black"/>
</g>
<defs>
<clipPath id="clip0_1532_92">
<rect width="57" height="54" fill="white" transform="translate(12 59)"/>
</clipPath>
<clipPath id="clip1_1532_92">
<rect width="42" height="53" fill="white" transform="translate(0 6.29102) rotate(-8.61453)"/>
</clipPath>
</defs>
</svg>
