<svg width="99" height="141" viewBox="0 0 99 141" fill="none" xmlns="http://www.w3.org/2000/svg">
<g clip-path="url(#clip0)" filter="url(#filter0_d)">
<path d="M84.0635 67.5161C86.6307 84.0159 88.0932 99.4075 88.8466 113.425L23.7969 124.5C19.4656 111.748 15.2287 96.7599 11.9848 79.7878C11.4573 77.0951 10.9645 74.3533 10.5067 71.5623C9.94726 68.1752 9.44826 64.8382 9.01108 61.5598C6.9637 46.3368 6.14765 32.4078 6.03208 20.1569L71.0817 9.08191C74.6424 21.3166 78.0097 34.7508 80.8713 49.3253C81.3162 51.5827 81.7485 53.8681 82.1683 56.1817C82.8637 60.0123 83.4903 63.7942 84.0635 67.5161Z" fill="white" stroke="black" stroke-miterlimit="10" stroke-linecap="round"/>
<path d="M5.64011 19.7829C5.23442 17.5016 4.82033 15.2216 4.40624 12.9417C5.71241 13.6094 7.02 14.2855 8.31777 14.9545C9.58259 13.806 10.846 12.649 12.1108 11.5004C13.6433 12.0258 15.1675 12.5527 16.7 13.0781C18.0426 12.1323 19.3866 11.1949 20.7291 10.2491C22.7107 10.6203 24.6937 10.9999 26.6752 11.3711C28.1702 10.3562 29.6637 9.33282 31.1587 8.31786C33.0693 8.83077 34.973 9.35351 36.8836 9.86642C37.9946 8.77858 39.114 7.68931 40.2264 6.60987C42.0466 7.30235 43.8683 8.00323 45.6969 8.69429C47.3139 7.33019 48.9309 5.96609 50.5478 4.602C52.3768 5.39668 54.1974 6.1928 56.025 6.97909C57.6409 5.71023 59.2582 4.44977 60.8826 3.17948C62.2298 3.98705 63.5757 4.78622 64.9229 5.5938C66.1692 4.33603 68.541 2.58417 69.7873 1.3264C70.4855 3.54931 70.3358 6.4264 71.034 8.64931C49.3119 12.4167 27.3385 16.0282 5.64011 19.7829Z" fill="#1E6F5D" stroke="black" stroke-miterlimit="10" stroke-linecap="round"/>
<path d="M10.2166 23.3676C11.1126 26.9048 11.8827 30.4635 12.5772 34.0351C13.2717 37.6067 13.9158 41.1868 14.4171 44.7913C14.8932 48.4001 15.2518 52.0288 15.7868 55.6276C16.3217 59.2263 17.0246 62.7965 17.7694 66.3595C18.5311 69.9196 19.2424 73.4883 19.8949 77.067C20.5474 80.6458 21.2167 84.2216 21.7936 87.8132C22.9223 95.0007 23.8997 102.214 24.5665 109.48C24.5751 109.53 24.5388 109.571 24.487 109.571C24.445 109.578 24.4057 109.551 24.3986 109.509C22.6737 102.423 21.2679 95.2824 19.9951 88.1108C19.3761 84.5264 18.8496 80.9262 18.3063 77.3289C17.7546 73.733 17.2784 70.1242 16.8443 66.5083C16.3933 62.8953 15.9004 59.2894 15.2395 55.7121C14.5786 52.1348 13.7413 48.5875 13.0216 45.0202C12.3271 41.4487 11.7838 37.8514 11.2741 34.2483C10.7727 30.6439 10.347 27.0265 10.0472 23.3878C10.0386 23.3374 10.0749 23.2966 10.1267 23.2964C10.1715 23.3061 10.2109 23.334 10.2166 23.3676Z" fill="black"/>
<path d="M36.3692 117.391C38.2814 116.745 40.225 116.285 42.1645 115.851C44.1153 115.432 46.0649 115.057 48.0486 114.832C50.0337 114.615 52.0375 114.559 54.0141 114.292C55.992 114.033 57.933 113.607 59.8752 113.138C61.8146 112.652 63.7513 112.202 65.7121 111.842C67.6686 111.457 69.6153 111.065 71.5861 110.764C75.525 110.197 79.484 109.748 83.5016 109.643C83.5534 109.643 83.5857 109.68 83.5929 109.722C83.5916 109.766 83.5707 109.795 83.5302 109.811C79.6886 111.001 75.7954 111.836 71.8837 112.563C69.92 112.906 67.9504 113.163 65.9725 113.422C63.9988 113.706 62.0178 113.897 60.0241 114.063C58.0402 114.237 56.0551 114.454 54.1 114.847C52.1421 115.224 50.2297 115.817 48.2804 116.244C46.3296 116.663 44.3629 116.937 42.3792 117.163C40.3941 117.379 38.4116 117.561 36.3992 117.567C36.3474 117.567 36.315 117.53 36.3149 117.478C36.3161 117.434 36.337 117.405 36.3692 117.391Z" fill="black"/>
<path d="M84.0637 67.5161L11.985 79.7878C11.4575 77.0951 10.9647 74.3533 10.5069 71.5623C9.94746 68.1752 9.44845 64.8382 9.01127 61.5598L80.8715 49.3253C81.3164 51.5827 81.7487 53.8681 82.1685 56.1817C82.8639 60.0123 83.4905 63.7942 84.0637 67.5161Z" fill="#1E6F5D" stroke="black" stroke-miterlimit="10" stroke-linecap="round"/>
<path d="M56.2488 86.5523C70.6174 81.3219 78.6334 67.1038 74.1529 54.7954C69.6724 42.487 54.3922 36.7492 40.0236 41.9796C25.6549 47.2101 17.639 61.4281 22.1195 73.7365C26.5999 86.0449 41.8802 91.7827 56.2488 86.5523Z" fill="#FAF28A" stroke="black" stroke-miterlimit="10"/>
<path d="M57.2167 79.1467C57.3925 78.149 58.5367 72.13 63.5104 67.0835C64.8291 65.7443 67.112 63.7743 67.5741 64.1536C68.157 64.6333 65.1294 68.3201 62.6899 73.5832C58.4351 82.7501 59.0543 90.0416 58.1229 90.0014C57.3118 89.958 56.2733 84.518 57.2167 79.1467Z" fill="#1E6F5D" stroke="black" stroke-width="1.5" stroke-miterlimit="10"/>
<path d="M56.8649 53.0754C55.989 56.9144 55.117 62.6538 55.5498 69.9165C55.709 72.5768 56.016 75.091 56.4233 77.4326C57.0823 81.2521 57.9903 84.6059 58.864 87.352" stroke="#1E6F5D" stroke-width="3" stroke-miterlimit="10"/>
<path d="M31.916 60.3735C35.1788 63.4992 39.5232 68.3591 43.1153 75.1444C44.4362 77.6243 45.4712 80.0491 46.3027 82.3443C47.6588 86.0971 48.441 89.5241 48.9089 92.3738" stroke="#1E6F5D" stroke-width="3" stroke-miterlimit="10"/>
<path d="M52.8007 66.3578C52.1496 66.3909 50.9495 73.2489 52.5565 80.6574C53.1571 83.4241 53.7759 84.5717 54.2208 88.0475C54.8859 93.2227 54.1296 95.6328 54.7086 95.7848C55.7669 96.0626 60.5539 88.4988 58.5994 81.8407C57.9461 79.6275 57.1787 79.6372 55.589 75.9847C53.1253 70.2948 53.2978 66.3336 52.8007 66.3578Z" fill="#3E9581" stroke="black" stroke-width="1.5" stroke-miterlimit="10"/>
<path d="M54.4141 94.8153C51.3863 88.4005 47.9804 85.1955 45.3512 83.4569C44.1819 82.6795 42.6512 81.86 40.6996 80.0406C37.0451 76.6446 35.9952 73.5742 35.4847 73.7735C34.7715 74.0505 35.3169 80.6546 39.0985 85.9646C43.816 92.6101 51.5218 94.3227 54.4141 94.8153Z" fill="#3E9581" stroke="black" stroke-width="1.5" stroke-miterlimit="10"/>
<path d="M46.8405 64.8493C47.6669 64.8814 46.0976 71.0938 49.8008 77.2121C51.3023 79.6871 53.0284 81.0956 53.2714 84.0959C53.4222 85.9972 52.9974 88.6792 51.9073 88.9253C50.0266 89.3492 45.8979 82.5083 45.1683 75.2788C44.6183 69.7643 46.1108 64.8266 46.8405 64.8493Z" fill="#1E6F5D" stroke="black" stroke-width="1.5" stroke-miterlimit="10"/>
<path d="M54.088 94.0671C54.5473 86.4105 52.5777 81.8463 50.6284 79.0759C48.482 76.0108 45.5296 73.947 45.4026 70.0541C45.3063 66.951 47.0565 64.4409 47.0846 64.4534C47.1225 64.4729 44.291 68.9558 43.7957 73.9138C42.7914 83.9013 51.6987 92.0112 54.088 94.0671Z" fill="#3E9581" stroke="black" stroke-width="1.5" stroke-miterlimit="10"/>
<path d="M29.6784 45.7618C29.2653 45.3656 28.4878 44.5042 28.2494 43.2054C27.8897 41.2446 28.9004 39.1109 29.7083 39.0857C30.1382 39.073 30.3573 39.6492 30.8626 39.5718C31.3679 39.4944 31.4624 38.8821 31.8246 38.7254C32.3001 38.5235 33.509 39.0262 35.3075 41.9259C38.306 46.7471 42.1844 56.9402 40.3432 57.8499C39.4805 58.2647 37.0989 56.8123 29.6784 45.7618Z" fill="#F26B6C" stroke="black" stroke-width="1.5" stroke-miterlimit="10"/>
<path d="M33.9702 45.4892C33.9699 43.0005 33.9728 38.6017 35.7549 38.0044C37.716 37.3422 41.3981 41.4075 42.8412 45.6207C45.3202 52.8721 41.5956 61.9055 38.9249 61.9022C36.187 61.9104 33.9733 52.4103 33.9702 45.4892Z" fill="#F26B6C" stroke="black" stroke-width="1.5" stroke-miterlimit="10"/>
<path d="M18.5146 45.9688C23.2394 57.072 29.0706 64.2193 33.5508 63.4306C33.6684 63.4106 35.6767 63.0254 36.1689 61.6022C37.3931 58.0324 27.9171 51.5056 18.5146 45.9688Z" fill="#F26B6C" stroke="black" stroke-width="1.5" stroke-miterlimit="10"/>
<path d="M54.2377 33.8897C54.3232 33.5295 54.725 31.8797 55.5914 31.7409C56.1037 31.6537 56.338 32.1668 57.1561 32.2522C58.2027 32.3592 58.6706 31.6055 59.2243 31.7618C60.3486 32.0716 60.2444 35.5199 60.2444 35.5199C60.2142 36.5101 59.6195 56.3135 56.338 56.2759C53.1252 56.2353 53.3871 37.37 54.2377 33.8897Z" fill="#F26B6C" stroke="black" stroke-width="1.5" stroke-miterlimit="10"/>
<path d="M61.663 34.9157C61.8313 34.5846 62.5935 33.0722 63.476 33.1294C63.9999 33.1612 64.1026 33.714 64.8836 33.9872C65.875 34.3282 66.503 33.7028 67.0081 33.9798C68.0282 34.5406 67.1435 37.8712 67.1435 37.8712C66.8891 38.8132 61.7938 57.9656 58.6008 57.1785C55.4891 56.4121 60.0468 38.1116 61.663 34.9157Z" fill="#F26B6C" stroke="black" stroke-width="1.5" stroke-miterlimit="10"/>
<path d="M23.071 42.5836C22.6516 46.0078 22.4558 52.1159 25.6957 57.8983C26.7625 59.7993 28.1377 62.1921 30.9969 63.2521C32.9152 63.9624 36.0253 64.2625 37.9437 62.5878C41.0364 59.8923 39.1341 53.7439 37.8629 51.0482C35.5518 46.1532 30.3082 42.0513 25.018 42.2953C24.2213 42.3359 23.5523 42.467 23.071 42.5836Z" fill="#F26B6C" stroke="black" stroke-width="1.5" stroke-miterlimit="10"/>
<path d="M49.4679 49.4698C47.6192 44.2455 48.2116 41.0251 49.2241 39.0035C50.2727 36.8894 52.7474 34.1176 51.765 32.306C51.5395 31.8951 51.1658 31.5785 51.1882 31.5574C51.2398 31.5054 53.3817 33.2751 55.0296 35.5437C55.7064 36.4741 58.086 39.7415 58.3308 44.0723C58.6378 49.3776 55.7008 55.3216 53.2832 55.232C52.5521 55.201 51.1046 54.566 49.4679 49.4698Z" fill="#F26B6C" stroke="black" stroke-width="1.5" stroke-miterlimit="10"/>
<path d="M52.0539 38.1674C53.9073 33.1164 57.8073 29.0218 58.4781 29.4088C58.7363 29.555 58.438 30.3403 58.1653 31.6829C57.2593 36.1059 58.3391 38.1342 58.1418 40.9849C57.8023 46.046 53.6263 50.9048 52.0099 50.4455C50.3305 49.971 50.1242 43.4301 52.0539 38.1674Z" fill="#F26B6C" stroke="black" stroke-width="1.5" stroke-miterlimit="10"/>
<path d="M56.0608 59.4686C52.6957 58.7367 51.0437 55.2763 50.6782 54.5003C47.8806 48.6253 51.6096 42.46 56.2338 34.8029C56.2867 34.7075 57.6194 32.5363 58.5431 32.7852C59.0142 32.9124 59.151 33.6149 59.6903 33.6355C60.1945 33.6533 60.3605 33.0547 60.8172 33.0979C61.4308 33.149 61.656 34.2686 62.0031 34.2268C62.3321 34.1794 62.2754 33.1867 62.4909 33.1327C63.0478 33.0033 66.1405 39.1392 66.1697 46.7212C66.1818 50.193 66.1953 53.267 64.0018 55.9649C63.8178 56.2036 60.3144 60.3949 56.0608 59.4686Z" fill="#F26B6C" stroke="black" stroke-width="1.5" stroke-miterlimit="10"/>
<path d="M23.6546 124.68C24.0183 126.968 24.382 129.257 24.7471 131.554C25.7587 130.491 26.7689 129.421 27.7722 128.36C29.3458 129.025 30.9209 129.699 32.4946 130.364C33.7669 129.361 35.0308 128.36 36.3032 127.357C37.883 127.805 39.4615 128.245 41.0414 128.693C42.7885 127.687 44.5341 126.673 46.2812 125.667C48.0278 126.13 49.7758 126.601 51.5224 127.064C53.1557 125.948 54.7791 124.825 56.4124 123.708C57.8208 124.367 59.2375 125.025 60.6445 125.675C62.133 124.419 63.6201 123.155 65.117 121.898C67.0943 122.65 69.0716 123.402 71.0488 124.154C72.5118 122.799 73.9664 121.446 75.4308 120.099C77.3755 120.761 79.3189 121.416 81.272 122.077C82.2762 120.869 83.2817 119.669 84.2858 118.462C85.8781 119.236 88.696 120.104 90.2883 120.879C90.2115 118.55 89.1183 115.885 89.0415 113.556C67.3035 117.179 45.373 121.043 23.6546 124.68Z" fill="#1E6F5D" stroke="black" stroke-miterlimit="10" stroke-linecap="round"/>
<path d="M83.4283 62.1629L83.6842 63.6661L81.2405 64.4883L80.5453 64.719L80.6227 66.4427L80.9037 73.1178L80.7707 72.7429L79.4696 69.1104L78.1317 65.3632L70.2745 65.1974L69.7198 65.1881L70.3802 65.0065L78.1089 62.8438L77.6495 54.0043L79.782 62.317L81.7298 62.236L83.4283 62.1629Z" fill="white" stroke="black" stroke-width="0.5" stroke-miterlimit="10" stroke-linecap="round"/>
<path d="M70.2988 68.5893L71.5326 73.3998L76.7752 73.1812L71.9688 74.7945L72.1833 79.6576L70.571 75.1621L65.7069 75.0657L70.5645 73.7029L70.2988 68.5893Z" fill="white" stroke="black" stroke-width="0.5" stroke-miterlimit="10" stroke-linecap="round"/>
<path d="M42.5162 106.356C42.234 106.199 41.9144 106.082 41.5575 106.006C41.2006 105.93 40.8779 105.918 40.5893 105.971C40.4018 106.005 40.2103 106.059 40.015 106.132C39.8268 106.203 39.6734 106.302 39.5549 106.428C39.435 106.547 39.3922 106.7 39.4265 106.888C39.4582 107.061 39.5525 107.189 39.7094 107.272C39.8649 107.348 40.0604 107.398 40.2959 107.422C40.5387 107.445 40.8024 107.46 41.087 107.467C41.3717 107.475 41.6511 107.495 41.9254 107.526C42.2055 107.55 42.462 107.607 42.695 107.699C42.9338 107.782 43.136 107.909 43.3015 108.08C43.4657 108.243 43.5742 108.47 43.627 108.758C43.6956 109.133 43.6419 109.471 43.4659 109.772C43.297 110.071 43.0448 110.322 42.7092 110.525C42.3808 110.727 42.0075 110.866 41.5891 110.943C41.0769 111.037 40.5761 111.05 40.0868 110.983C39.596 110.909 39.1577 110.713 38.7716 110.396L39.4062 109.587C39.6806 109.783 39.9825 109.925 40.3119 110.014C40.6471 110.094 41.0204 110.096 41.4315 110.021C41.6119 109.988 41.7954 109.932 41.9823 109.853C42.1691 109.774 42.3218 109.672 42.4404 109.546C42.5576 109.412 42.5991 109.252 42.5648 109.064C42.5344 108.899 42.4414 108.778 42.2859 108.702C42.1304 108.626 41.9319 108.58 41.6905 108.565C41.4478 108.542 41.1883 108.53 40.9122 108.528C40.5068 108.513 40.1205 108.479 39.7531 108.427C39.3844 108.368 39.0707 108.243 38.812 108.052C38.5593 107.852 38.3946 107.543 38.318 107.124C38.2573 106.793 38.309 106.485 38.4733 106.201C38.6448 105.917 38.899 105.676 39.2359 105.48C39.5715 105.277 39.9557 105.136 40.3885 105.057C40.6626 105.007 40.9571 104.986 41.272 104.996C41.5855 104.998 41.8919 105.043 42.1911 105.129C42.4962 105.208 42.7659 105.337 43.0003 105.518L42.5162 106.356ZM51.2838 108.285L51.273 108.287C51.119 108.464 50.9176 108.646 50.6685 108.833C50.4254 109.012 50.1488 109.171 49.8387 109.31C49.5286 109.448 49.2041 109.549 48.8651 109.611C48.2086 109.731 47.6055 109.715 47.0557 109.562C46.5045 109.402 46.0486 109.131 45.6881 108.75C45.3262 108.361 45.0944 107.889 44.9927 107.334C44.8765 106.699 44.9254 106.131 45.1392 105.63C45.3518 105.121 45.6815 104.703 46.1285 104.375C46.5813 104.039 47.0999 103.817 47.6842 103.71C48.2252 103.611 48.7375 103.64 49.2211 103.798C49.7033 103.948 50.112 104.205 50.4469 104.569C50.7891 104.931 51.0104 105.386 51.1107 105.934L51.195 106.456L46.1636 107.377C46.3413 107.859 46.6693 108.205 47.1477 108.416C47.6262 108.626 48.1864 108.673 48.8284 108.555C49.2972 108.469 49.6663 108.327 49.9357 108.129C50.2109 107.922 50.4334 107.732 50.603 107.559L51.2838 108.285ZM47.8723 104.738C47.3602 104.832 46.9321 105.018 46.5881 105.297C46.2427 105.569 46.0579 105.965 46.0336 106.484L49.9072 105.774L49.8855 105.655C49.8117 105.415 49.6711 105.218 49.4636 105.062C49.2562 104.906 49.0098 104.802 48.7244 104.75C48.4449 104.689 48.1609 104.685 47.8723 104.738ZM59.1136 106.851L59.1028 106.853C58.9489 107.03 58.7474 107.213 58.4984 107.4C58.2552 107.579 57.9786 107.737 57.6686 107.876C57.3585 108.015 57.0339 108.115 56.6949 108.177C56.0385 108.298 55.4353 108.281 54.8855 108.128C54.3343 107.968 53.8785 107.698 53.5179 107.316C53.156 106.928 52.9243 106.456 52.8226 105.901C52.7064 105.266 52.7552 104.698 52.9691 104.196C53.1816 103.688 53.5114 103.27 53.9583 102.942C54.4111 102.605 54.9297 102.384 55.514 102.277C56.055 102.178 56.5673 102.207 57.0509 102.364C57.5332 102.515 57.9418 102.772 58.2768 103.135C58.6189 103.497 58.8402 103.953 58.9406 104.501L59.0248 105.022L53.9934 105.943C54.1711 106.425 54.4992 106.772 54.9776 106.982C55.456 107.193 56.0162 107.239 56.6582 107.122C57.1271 107.036 57.4962 106.894 57.7655 106.695C58.0408 106.488 58.2632 106.299 58.4329 106.126L59.1136 106.851ZM55.7022 103.305C55.19 103.398 54.7619 103.585 54.4179 103.864C54.0726 104.136 53.8878 104.531 53.8635 105.05L57.7371 104.341L57.7153 104.222C57.6415 103.982 57.5009 103.784 57.2935 103.628C57.086 103.472 56.8396 103.368 56.5542 103.316C56.2747 103.256 55.9907 103.252 55.7022 103.305ZM65.9714 98.0921L67.4372 106.099L66.3227 106.303L66.1603 105.416C66.0608 105.606 65.9131 105.797 65.7173 105.989C65.5286 106.18 65.3028 106.352 65.04 106.504C64.7758 106.65 64.4814 106.752 64.1568 106.811C63.5798 106.917 63.0409 106.885 62.5402 106.716C62.0468 106.545 61.6329 106.26 61.2985 105.859C60.9642 105.458 60.7448 104.972 60.6405 104.402C60.5349 103.825 60.5716 103.293 60.7508 102.805C60.9286 102.311 61.218 101.896 61.619 101.562C62.0272 101.226 62.5163 101.006 63.0861 100.902C63.5622 100.814 64.0073 100.822 64.4213 100.926C64.8353 101.029 65.1687 101.18 65.4214 101.38L64.8569 98.2961L65.9714 98.0921ZM64.1713 105.791C64.5753 105.717 64.9129 105.566 65.1842 105.337C65.4627 105.107 65.6578 104.829 65.7696 104.503C65.8885 104.176 65.9137 103.825 65.845 103.449C65.7764 103.074 65.6284 102.755 65.4011 102.491C65.1811 102.225 64.9008 102.038 64.5602 101.929C64.2256 101.811 63.8563 101.789 63.4523 101.863C63.0556 101.936 62.718 102.087 62.4395 102.317C62.1669 102.539 61.9711 102.813 61.8521 103.14C61.7331 103.468 61.708 103.819 61.7766 104.194C61.8453 104.569 61.9933 104.889 62.2205 105.153C62.4478 105.417 62.7288 105.608 63.0634 105.726C63.4053 105.842 63.7746 105.864 64.1713 105.791ZM73.022 100.771C72.7397 100.614 72.4202 100.498 72.0632 100.421C71.7063 100.345 71.3836 100.333 71.0951 100.386C70.9075 100.42 70.7161 100.474 70.5207 100.547C70.3325 100.619 70.1792 100.718 70.0606 100.844C69.9407 100.963 69.8979 101.116 69.9323 101.303C69.964 101.476 70.0582 101.605 70.2151 101.688C70.3706 101.764 70.5662 101.814 70.8017 101.838C71.0444 101.86 71.3081 101.875 71.5928 101.883C71.8774 101.89 72.1569 101.91 72.4311 101.942C72.7112 101.965 72.9677 102.023 73.2007 102.114C73.4395 102.197 73.6417 102.324 73.8072 102.495C73.9714 102.659 74.0799 102.885 74.1327 103.174C74.2014 103.549 74.1477 103.886 73.9716 104.187C73.8027 104.486 73.5505 104.738 73.2149 104.941C72.8866 105.142 72.5132 105.282 72.0948 105.358C71.5826 105.452 71.0819 105.465 70.5925 105.398C70.1018 105.324 69.6634 105.129 69.2773 104.812L69.9119 104.002C70.1863 104.198 70.4882 104.34 70.8176 104.429C71.1529 104.509 71.5261 104.512 71.9372 104.437C72.1176 104.404 72.3012 104.348 72.488 104.269C72.6749 104.19 72.8276 104.087 72.9461 103.961C73.0634 103.828 73.1048 103.667 73.0705 103.48C73.0401 103.314 72.9472 103.193 72.7916 103.117C72.6361 103.041 72.4376 102.996 72.1962 102.98C71.9535 102.957 71.6941 102.945 71.4179 102.944C71.0126 102.928 70.6262 102.895 70.2588 102.843C69.8901 102.783 69.5764 102.658 69.3178 102.467C69.065 102.267 68.9003 101.958 68.8237 101.54C68.763 101.208 68.8148 100.9 68.979 100.617C69.1506 100.332 69.4048 100.092 69.7417 99.8957C70.0772 99.6926 70.4614 99.5514 70.8942 99.4722C71.1684 99.422 71.4628 99.4017 71.7777 99.4111C72.0912 99.4134 72.3976 99.4579 72.6968 99.5448C73.0019 99.6231 73.2716 99.7527 73.506 99.9334L73.022 100.771Z" fill="black"/>
</g>
<defs>
<filter id="filter0_d" x="0" y="0" width="101.673" height="141.502" filterUnits="userSpaceOnUse" color-interpolation-filters="sRGB">
<feFlood flood-opacity="0" result="BackgroundImageFix"/>
<feColorMatrix in="SourceAlpha" type="matrix" values="0 0 0 0 0 0 0 0 0 0 0 0 0 0 0 0 0 0 127 0" result="hardAlpha"/>
<feOffset dx="4" dy="4"/>
<feGaussianBlur stdDeviation="2"/>
<feColorMatrix type="matrix" values="0 0 0 0 0 0 0 0 0 0 0 0 0 0 0 0 0 0 0.25 0"/>
<feBlend mode="normal" in2="BackgroundImageFix" result="effect1_dropShadow"/>
<feBlend mode="normal" in="SourceGraphic" in2="effect1_dropShadow" result="shape"/>
</filter>
<clipPath id="clip0">
<rect width="74.1125" height="122.805" fill="white" transform="translate(0 12.439) rotate(-9.66221)"/>
</clipPath>
</defs>
</svg>
