<svg width="88" height="134" viewBox="0 0 88 134" fill="none" xmlns="http://www.w3.org/2000/svg">
<path d="M80.6604 68.13C83.0253 83.3297 84.6207 98.6393 85.4404 114L20.4404 125.07C15.4635 110.471 11.5008 95.5453 8.58035 80.4C8.05369 77.7334 7.56035 74.9933 7.10035 72.18C6.54035 68.7867 6.04369 65.4533 5.61035 62.18C3.74994 48.4559 2.74799 34.629 2.61035 20.78L67.6804 9.70001C71.2403 21.93 74.6104 35.37 77.4704 49.94C77.9104 52.2 78.3404 54.48 78.7604 56.8C79.4604 60.6333 80.0937 64.41 80.6604 68.13Z" fill="white" stroke="#010101" stroke-miterlimit="10" stroke-linecap="round"/>
<path d="M2.24 20.4C1.83333 18.1333 1.42 15.8533 1 13.56C2.31 14.22 3.62 14.9 4.91 15.56L8.71 12.1C10.24 12.63 11.71 13.16 13.3 13.68L17.3 10.85L23.27 12L27.76 8.94L33.48 10.49L36.82 7.23L42.33 9.31L47.18 5.22C49.01 6.01 50.83 6.81 52.66 7.59L57.52 3.79L61.52 6.21C62.77 5 65.14 3.2 66.38 1.94C67.08 4.16 66.93 7.04 67.63 9.26C45.91 13 23.93 16.64 2.24 20.4Z" fill="#1F705E" stroke="#010101" stroke-miterlimit="10" stroke-linecap="round"/>
<path d="M6.81028 24C7.71028 27.54 8.48028 31.1 9.17028 34.67C9.86028 38.24 10.5103 41.82 11.0103 45.43C11.5103 49.04 11.8503 52.66 12.3803 56.26C12.9103 59.86 13.6203 63.41 14.3303 67C15.0403 70.59 15.8003 74.13 16.4503 77.71C17.1003 81.29 17.7703 84.87 18.3503 88.46C19.4803 95.65 20.4603 102.86 21.1203 110.12C21.1234 110.132 21.1237 110.145 21.1211 110.157C21.1185 110.169 21.1131 110.18 21.1053 110.19C21.0975 110.2 21.0876 110.207 21.0763 110.213C21.065 110.218 21.0527 110.22 21.0403 110.22C21.0195 110.22 P20.9992 110.214 20.9828 110.201C20.9664 110.188 20.9549 110.17 20.9503 110.15C19.2303 103.07 17.8203 95.93 16.5503 88.76C15.9303 85.17 15.4103 81.57 14.8603 77.97C14.3103 74.37 13.8603 70.77 13.4003 67.15C12.9403 63.53 12.4603 59.93 11.8003 56.36C11.1403 52.79 10.3303 49.2 9.62028 45.63C8.91028 42.06 8.38028 38.47 7.87028 34.86C7.36028 31.25 6.94028 27.64 6.64028 24C6.63885 23.9887 6.63986 23.9772 6.64324 23.9663C6.64661 23.9554 6.65228 23.9453 6.65986 23.9368C6.66743 23.9283 6.67674 23.9215 6.68716 23.9169C6.69758 23.9122 6.70887 23.9099 6.72028 23.91C6.77028 23.92 6.81028 24 6.81028 24Z" fill="#010101"/>
<path d="M32.9698 118C34.87 117.381 36.8029 116.867 38.7598 116.46C40.7016 116.027 42.6641 115.694 44.6398 115.46C46.6398 115.24 48.6398 115.18 50.6398 114.92C52.6124 114.638 54.5686 114.251 56.4998 113.76C58.4398 113.28 60.3798 112.83 62.3398 112.47C64.2998 112.11 66.2397 111.69 68.2098 111.39C72.1573 110.78 76.1377 110.406 80.1298 110.27C80.152 110.27 80.1735 110.278 80.1901 110.293C80.2067 110.308 80.2173 110.328 80.2198 110.35C80.2194 110.369 80.2136 110.388 80.203 110.404C80.1923 110.42 80.1773 110.432 80.1598 110.44C76.3327 111.581 72.4429 112.499 68.5098 113.19C66.5098 113.53 64.5798 113.79 62.5998 114.05C60.6198 114.31 58.5998 114.52 56.5998 114.69C54.6135 114.84 52.637 115.1 50.6798 115.47C48.6798 115.85 46.8098 116.47 44.8598 116.87C42.9098 117.27 40.9398 117.56 38.9598 117.79C36.9682 118.029 34.9654 118.163 32.9598 118.19C32.9475 118.192 32.9351 118.19 32.9234 118.187C32.9118 118.183 32.9012 118.176 32.8925 118.167C32.8838 118.159 32.8772 118.148 32.8732 118.136C32.8693 118.125 32.8681 118.112 32.8698 118.1C32.8655 118.086 32.8651 118.071 32.8686 118.057C32.8721 118.043 32.8794 118.03 32.8896 118.02C32.8999 118.01 32.9128 118.002 32.9269 117.999C32.941 117.995 32.9559 117.996 32.9698 118Z" fill="#010101"/>
<path d="M80.6604 68.13L8.58035 80.4C8.05368 77.7333 7.56035 74.9933 7.10035 72.18C6.54035 68.7867 6.04368 65.4533 5.61035 62.18L77.4704 49.94C77.9104 52.2 78.3503 54.48 78.7604 56.8C79.4604 60.6333 80.0937 64.41 80.6604 68.13Z" fill="#1F705E" stroke="#010101" stroke-miterlimit="10" stroke-linecap="round"/>
<path d="M52.8497 87.17C67.2097 81.94 75.2297 67.72 70.7497 55.41C66.2697 43.1 50.9897 37.41 36.6197 42.59C22.2497 47.77 14.2397 62 18.7197 74.35C23.1997 86.7 38.4797 92.4 52.8497 87.17Z" fill="#FAF28C" stroke="#010101" stroke-miterlimit="10"/>
<path d="M20.25 125.29C20.61 127.58 20.98 129.87 21.34 132.17C22.36 131.11 23.36 130.043 24.34 128.97L29.06 130.97L32.87 127.97L37.61 129.31L42.85 126.31L48.09 127.71L52.98 124.35L57.21 126.35L61.68 122.57L67.62 124.83C69.08 123.47 70.53 122.12 72 120.77C73.94 121.44 75.89 122.09 77.84 122.77C78.84 121.56 79.84 120.36 80.84 119.16C82.43 119.93 85.25 120.8 86.84 121.57C86.77 119.24 85.67 116.57 85.6 114.25C63.9 117.79 41.97 121.66 20.25 125.29Z" fill="#1F705E" stroke="#010101" stroke-miterlimit="10" stroke-linecap="round"/>
<path d="M80.0201 62.78L80.2801 64.28L77.8401 65.1L77.1401 65.33L77.2201 67.06L77.5001 73.73L77.3301 73.36L76.0301 69.72L74.7301 66L66.8701 65.83H66.3301L66.9901 65.65L74.7201 63.49L74.2601 54.65L76.3901 62.96L78.3901 62.88L80.0201 62.78Z" fill="white" stroke="#010101" stroke-width="0.5" stroke-miterlimit="10" stroke-linecap="round"/>
<path d="M66.9001 69.2L68.1301 74L73.3301 73.8L68.5301 75.41L68.7401 80.27L67.1301 75.78L62.3301 75.68L67.1901 74.32L66.9001 69.2Z" fill="white" stroke="#010101" stroke-width="0.5" stroke-miterlimit="10" stroke-linecap="round"/>
<path d="M39.1103 107C38.7972 106.832 38.4598 106.714 38.1103 106.65C37.7811 106.575 37.4394 106.575 37.1103 106.65C36.9115 106.681 36.7169 106.735 36.5303 106.81C36.3575 106.872 36.2005 106.971 36.0703 107.1C36.0119 107.16 35.9694 107.233 35.9467 107.313C35.924 107.394 35.9218 107.479 35.9403 107.56C35.954 107.643 35.9875 107.722 36.0379 107.79C36.0884 107.858 36.1543 107.913 36.2303 107.95C36.415 108.029 36.6105 108.079 36.8103 108.1H37.6003C37.8869 108.1 38.1669 108.12 38.4403 108.16C38.704 108.178 38.9636 108.235 39.2103 108.33C39.4389 108.411 39.6471 108.54 39.8203 108.71C39.9931 108.899 40.1046 109.136 40.1403 109.39C40.2116 109.732 40.1547 110.088 39.9803 110.39C39.7996 110.701 39.5411 110.959 39.2303 111.14C38.8845 111.345 38.5054 111.487 38.1103 111.56C37.6097 111.635 37.1008 111.635 36.6003 111.56C36.1348 111.489 35.6966 111.296 35.3303 111L35.9603 110.19C36.2431 110.402 36.5678 110.55 36.9127 110.626C37.2576 110.702 37.6148 110.703 37.9603 110.63C38.1484 110.59 38.3325 110.533 38.5103 110.46C38.6843 110.391 38.8412 110.285 38.9703 110.15C39.0271 110.085 39.0676 110.008 39.0885 109.925C39.1093 109.841 39.1099 109.754 39.0903 109.67C39.0799 109.591 39.0485 109.515 38.9992 109.452C38.95 109.389 38.8848 109.34 38.8103 109.31C38.6263 109.221 38.4248 109.173 38.2203 109.17C37.9703 109.17 37.7103 109.17 37.4403 109.17C37.0675 109.133 36.6969 109.077 36.3303 109C35.9919 108.953 35.6696 108.827 35.3903 108.63C35.1164 108.391 34.9387 108.06 34.8903 107.7C34.8306 107.384 34.8875 107.057 35.0503 106.78C35.2388 106.477 35.5 106.226 35.8103 106.05C36.1659 105.844 36.5552 105.701 36.9603 105.63C37.254 105.579 37.5523 105.559 37.8503 105.57C38.1613 105.573 38.4705 105.617 38.7703 105.7C39.0629 105.776 39.338 105.909 39.5803 106.09L39.1103 107ZM47.8803 108.93C47.6976 109.135 47.493 109.319 47.2703 109.48C47.0174 109.67 46.742 109.828 46.4503 109.95C46.1291 110.089 45.7938 110.193 45.4503 110.26C44.8548 110.398 44.2357 110.398 43.6403 110.26C43.1167 110.118 42.6425 109.835 42.2703 109.44C41.9067 109.048 41.6667 108.558 41.5803 108.03C41.4546 107.458 41.507 106.861 41.7303 106.32C41.9442 105.82 42.2899 105.388 42.7303 105.07C43.1924 104.731 43.726 104.502 44.2903 104.4C44.8032 104.304 45.332 104.334 45.8303 104.49C46.2984 104.633 46.7197 104.899 47.0503 105.26C47.405 105.64 47.6383 106.117 47.7203 106.63L47.8003 107.15L42.8003 108.07C42.8903 108.296 43.0254 108.501 43.1973 108.673C43.3692 108.845 43.5744 108.98 43.8003 109.07C44.3329 109.287 44.9191 109.336 45.4803 109.21C45.8776 109.151 46.2567 109.004 46.5903 108.78C46.8314 108.612 47.0557 108.421 47.2603 108.21L47.8803 108.93ZM44.4703 105.38C44.0011 105.459 43.5582 105.651 43.1803 105.94C43.0056 106.085 42.8655 106.267 42.7704 106.473C42.6752 106.679 42.6273 106.903 42.6303 107.13L46.5003 106.42V106.3C46.4323 106.061 46.284 105.852 46.0803 105.71C45.8613 105.548 45.6081 105.439 45.3403 105.39C45.0558 105.319 44.76 105.306 44.4703 105.35V105.38ZM55.7103 107.5C55.5271 107.702 55.3226 107.883 55.1003 108.04C54.8419 108.23 54.5635 108.391 54.2703 108.52C53.9515 108.663 53.6153 108.764 53.2703 108.82C52.6713 108.945 52.0514 108.928 51.4603 108.77C50.939 108.628 50.4657 108.348 50.0903 107.96C49.7286 107.567 49.4889 107.077 49.4003 106.55C49.2728 105.994 49.3121 105.413 49.513 104.88C49.714 104.346 50.0678 103.884 50.5303 103.55C50.9924 103.211 51.526 102.981 52.0903 102.88C52.6029 102.778 53.1329 102.809 53.6303 102.97C54.0984 103.113 54.5197 103.379 54.8503 103.74C55.2071 104.118 55.4407 104.596 55.5203 105.11L55.6003 105.63L50.6003 106.55C50.6903 106.776 50.8254 106.981 50.9973 107.153C51.1692 107.325 51.3744 107.46 51.6003 107.55C52.134 107.762 52.7187 107.811 53.2803 107.69C53.6776 107.631 54.0567 107.484 54.3903 107.26C54.6267 107.086 54.8505 106.895 55.0603 106.69L55.7103 107.5ZM52.3303 103.92C51.8597 103.994 51.4158 104.187 51.0403 104.48C50.8664 104.623 50.7267 104.804 50.6316 105.008C50.5364 105.212 50.4881 105.435 50.4903 105.66L54.3303 105V104.88C54.2601 104.639 54.1124 104.428 53.9103 104.28C53.6907 104.121 53.4375 104.015 53.1703 103.97C52.896 103.9 52.6109 103.883 52.3303 103.92ZM62.6003 98.71L64.0603 106.71L62.9503 106.92L62.7903 106.03C62.6721 106.243 62.5201 106.436 62.3403 106.6C62.1407 106.802 61.9155 106.977 61.6703 107.12C61.391 107.268 61.0909 107.372 60.7803 107.43C60.2438 107.534 59.6897 107.499 59.1703 107.33C58.6821 107.164 58.2495 106.867 57.9203 106.47C57.5797 106.052 57.3555 105.552 57.2703 105.02C57.161 104.487 57.1991 103.933 57.3803 103.42C57.5465 102.932 57.8483 102.502 58.2503 102.18C58.6681 101.832 59.1728 101.604 59.7103 101.52C60.1518 101.425 60.6087 101.425 61.0503 101.52C61.4121 101.596 61.7532 101.75 62.0503 101.97L61.4803 98.89L62.6003 98.71ZM60.8003 106.41C61.1673 106.344 61.5115 106.186 61.8003 105.95C62.0677 105.731 62.2714 105.445 62.3903 105.12C62.5045 104.779 62.5286 104.413 62.4603 104.06C62.4092 103.692 62.2569 103.346 62.0203 103.06C61.8023 102.792 61.5102 102.593 61.1803 102.49C60.8217 102.374 60.4392 102.353 60.0703 102.43C59.7027 102.488 59.3573 102.643 59.0703 102.88C58.8009 103.093 58.5966 103.377 58.4803 103.7C58.3585 104.04 58.3308 104.406 58.4003 104.76C58.4542 105.129 58.61 105.475 58.8503 105.76C59.0766 106.019 59.3659 106.215 59.6903 106.33C60.0377 106.448 60.4093 106.475 60.7703 106.41H60.8003ZM69.6503 101.41C69.3392 101.237 69.0011 101.119 68.6503 101.06C68.3204 100.992 67.9802 100.992 67.6503 101.06C67.4554 101.094 67.2645 101.148 67.0803 101.22C66.9049 101.281 66.7471 101.384 66.6203 101.52C66.5594 101.578 66.5153 101.651 66.4924 101.732C66.4695 101.813 66.4688 101.899 66.4903 101.98C66.502 102.062 66.5337 102.139 66.5826 102.205C66.6314 102.271 66.6959 102.325 66.7703 102.36C66.9554 102.448 67.1558 102.498 67.3603 102.51H68.1503C68.4313 102.51 68.712 102.53 68.9903 102.57C69.2538 102.589 69.5132 102.646 69.7603 102.74C69.9888 102.815 70.1951 102.945 70.3603 103.12C70.5418 103.304 70.6578 103.543 70.6903 103.8C70.7588 104.142 70.702 104.497 70.5303 104.8C70.3461 105.114 70.0844 105.376 69.7703 105.56C69.4267 105.767 69.0464 105.906 68.6503 105.97C68.1538 106.055 67.6467 106.055 67.1503 105.97C66.666 105.899 66.2098 105.699 65.8303 105.39L66.4703 104.58C66.7435 104.771 67.0481 104.914 67.3703 105C67.7393 105.08 68.1213 105.08 68.4903 105C68.6799 104.966 68.8647 104.909 69.0403 104.83C69.2118 104.761 69.3681 104.659 69.5003 104.53C69.5583 104.464 69.6002 104.385 69.6227 104.3C69.6453 104.215 69.6479 104.126 69.6303 104.04C69.6147 103.962 69.5813 103.889 69.5327 103.827C69.4841 103.764 69.4217 103.714 69.3503 103.68C69.1593 103.601 68.9566 103.554 68.7503 103.54C68.5103 103.54 68.2503 103.54 67.9703 103.54C67.5703 103.54 67.1803 103.54 66.8203 103.44C66.4606 103.398 66.117 103.267 65.8203 103.06C65.5494 102.82 65.3752 102.489 65.3303 102.13C65.2658 101.814 65.323 101.486 65.4903 101.21C65.6794 100.91 65.9407 100.663 66.2503 100.49C66.6052 100.282 66.9948 100.14 67.4003 100.07C67.7066 100.012 68.0186 99.9883 68.3303 100C68.6417 99.9976 68.9517 100.041 69.2503 100.13C69.5444 100.202 69.8203 100.335 70.0603 100.52L69.6503 101.41Z" fill="#010101"/>
<path d="M45.3301 96.54C45.9183 92.4142 46.0791 88.2388 45.8101 84.08C45.5548 79.9927 44.8847 75.9418 43.8101 71.99C43.281 70.0347 42.6127 68.1198 41.8101 66.26C41.0301 64.4 40.2801 62.55 39.5701 60.66L37.3301 54.94C36.5801 53 35.8001 51.06 35.1201 48.94L35.5201 48.64C37.3203 49.9108 38.9386 51.4214 40.3301 53.13C41.7416 54.8156 42.9811 56.638 44.0301 58.57C45.0746 60.5079 45.8773 62.5666 46.4201 64.7C46.9401 66.84 47.3401 68.99 47.6801 71.15C48.0247 73.2963 48.255 75.4593 48.3701 77.63C48.4768 79.7891 48.4635 81.9524 48.3301 84.11C47.9945 88.3764 47.1587 92.5886 45.8401 96.66L45.3301 96.54Z" fill="#1E6F5D"/>
<path d="M33.7204 54.47C33.4004 60.73 33.4404 65.36 33.7204 66.77C33.8181 67.3258 34.0403 67.8523 34.3704 68.31C34.7941 68.8701 35.3557 69.3111 36.0004 69.59C36.6339 69.9289 37.3586 70.0585 38.0704 69.96C38.7743 69.7415 39.3956 69.3151 39.8526 68.7368C40.3095 68.1585 40.5807 67.4554 40.6304 66.72C40.6758 66.2709 40.642 65.8173 40.5304 65.38C39.7204 62.43 36.9304 54.82 36.6604 54.1L35.2304 54.28L33.7204 54.47Z" fill="white"/>
<path d="M33.7597 54.5C33.9597 57.5 33.9297 60.5 33.9497 63.44C33.9497 64.18 33.9497 64.93 33.9497 65.66C33.926 66.3823 34.0555 67.1014 34.3297 67.77C34.6371 68.4226 35.15 68.9565 35.7897 69.29C36.4113 69.6498 37.122 69.8266 37.8397 69.8C39.2597 69.62 40.0797 68.13 40.2597 66.8C40.308 66.1167 40.1949 65.4316 39.9297 64.8C39.6997 64.1 39.4597 63.39 39.2097 62.69C38.2097 59.88 37.3197 57.02 36.4497 54.15L36.7497 54.34C36.2597 54.34 35.7497 54.41 35.2697 54.42L33.7597 54.5ZM33.6897 54.44L35.1697 54.1C35.6597 53.99 36.1697 53.91 36.6297 53.81H36.8397L36.9397 54.04C38.1545 56.7837 39.2292 59.5873 40.1597 62.44C40.3797 63.16 40.5997 63.88 40.7997 64.61C40.9117 64.9878 41.0018 65.3718 41.0697 65.76C41.1398 66.1737 41.1398 66.5963 41.0697 67.01C40.9167 67.8161 40.5428 68.5639 39.9897 69.17C39.7266 69.4844 39.4019 69.7416 39.0355 69.9256C38.6692 70.1097 38.269 70.2166 37.8597 70.24C37.0716 70.227 36.3014 70.0025 35.6297 69.59C34.923 69.2292 34.3309 68.6786 33.9197 68C33.5485 67.3071 33.327 66.544 33.2697 65.76C33.1629 65.0108 33.0962 64.2563 33.0697 63.5C32.9945 60.4673 33.202 57.4342 33.6897 54.44Z" fill="#231F20"/>
<path d="M37.1396 54.22C39.3896 60.09 41.3296 64.3 42.2696 65.45C42.6325 65.9218 43.1066 66.2963 43.6496 66.54C44.4335 66.828 45.2689 66.9492 46.1024 66.8958C46.9358 66.8424 47.7489 66.6157 48.4896 66.23C49.1546 65.7737 49.6586 65.1191 49.9298 64.3596C50.2009 63.6 50.2254 62.7743 49.9996 62C49.8652 61.5713 49.6363 61.1783 49.3296 60.85C47.1996 58.55 40.8896 52.97 40.3296 52.44L38.7996 53.3L37.1396 54.22Z" fill="white"/>
<path d="M37.1798 54.23C38.6198 56.97 39.8698 59.89 41.1798 62.69C41.8898 64.05 42.3198 65.69 43.6898 66.34C44.3738 66.6701 45.1324 66.8149 45.8898 66.76C46.6544 66.7472 47.4063 66.5627 48.0898 66.22C48.7075 65.8368 49.1905 65.2708 49.4719 64.6006C49.7532 63.9304 49.8189 63.1893 49.6598 62.48C49.5928 62.1472 49.4602 61.8311 49.2698 61.55C49.1783 61.411 49.0746 61.2805 48.9598 61.16L48.5498 60.75C47.9998 60.21 47.4298 59.68 46.8498 59.15C44.5398 57.05 42.2798 54.87 40.0398 52.67H40.3998L38.7798 53.46L37.1798 54.23ZM37.0898 54.23L38.5998 53.18L40.1198 52.18L40.2998 52.07L40.4898 52.22C42.9634 54.1648 45.3365 56.2341 47.5998 58.42C48.1598 58.97 48.7098 59.54 49.2598 60.12L49.6598 60.56C49.813 60.7245 49.9472 60.9056 50.0598 61.1C50.2855 61.4872 50.4317 61.9156 50.4898 62.36C50.6113 63.1978 50.4685 64.0526 50.0814 64.8054C49.6942 65.5582 49.082 66.1715 48.3298 66.56C47.5924 66.8963 46.7903 67.0669 45.9798 67.06C45.1647 67.1216 44.3458 67.0056 43.5798 66.72C42.7942 66.4044 42.1289 65.8477 41.6798 65.13C41.2298 64.4908 40.8223 63.8227 40.4598 63.13C39.0432 60.2725 37.9143 57.2811 37.0898 54.2V54.23Z" fill="#231F20"/>
<path d="M31.3302 54.17C30.8502 54.81 28.1402 58.4 26.2202 61.31C25.8073 61.9116 25.5246 62.5928 25.3902 63.31C25.1541 64.4643 25.365 65.6652 25.9802 66.67C26.1703 67.0627 26.436 67.4141 26.762 67.7041C27.088 67.9941 27.468 68.217 27.8802 68.36C29.6802 68.8 31.2902 66.84 31.4102 66.69C32.0048 65.9091 32.3686 64.9772 32.4602 64C32.9802 60 33.3002 56.49 33.4602 54.6L31.3302 54.17Z" fill="white"/>
<path d="M31.3301 54.22C29.9542 56.6375 28.4417 58.9746 26.8001 61.22C26.3743 61.7233 26.0363 62.2946 25.8001 62.91C25.5721 63.5506 25.4835 64.2324 25.5401 64.91C25.602 65.5847 25.8438 66.2304 26.2401 66.78C26.5589 67.3653 27.0716 67.8214 27.6901 68.07C27.993 68.157 28.3109 68.1789 28.6229 68.1341C28.9349 68.0892 29.2339 67.9788 29.5001 67.81C30.0595 67.4826 30.5544 67.0556 30.9601 66.55C31.3549 66.0552 31.6411 65.4827 31.8001 64.87C31.9338 64.2106 32.0173 63.542 32.0501 62.87C32.3301 60.09 32.7201 57.34 33.2101 54.58L33.4201 54.84C32.7601 54.64 32.0801 54.43 31.3301 54.22ZM31.3301 54.13C32.0201 54.13 32.7601 54.24 33.5301 54.33H33.7401V54.57C33.6501 57.37 33.4401 60.17 33.1301 62.95C33.07 63.6728 32.9461 64.3889 32.7601 65.09C32.5466 65.8344 32.1632 66.5191 31.6401 67.09C31.1314 67.6463 30.5112 68.0892 29.8201 68.39C29.4648 68.5433 29.082 68.6223 28.6951 68.6223C28.3081 68.6223 27.9253 68.5433 27.5701 68.39C26.9023 68.0577 26.3538 67.5267 26.0001 66.87C25.3897 65.9479 25.0743 64.8619 25.0958 63.7563C25.1172 62.6507 25.4744 61.5778 26.1201 60.68C27.7229 58.3935 29.4627 56.2062 31.3301 54.13Z" fill="#231F20"/>
<path d="M40.6699 52C43.2499 53.66 45.6699 55.17 48.2799 56.85C49.6427 57.8093 51.2312 58.3985 52.8899 58.56C53.6499 58.62 55.5099 58.75 56.2399 57.68C56.7399 56.96 56.4699 56.03 56.2399 55.04C55.9153 53.7484 55.1562 52.6079 54.0899 51.81C53.4574 51.3762 52.7427 51.0767 51.9899 50.93C48.4099 50.13 44.0799 49.44 42.9299 49.26L40.6699 52Z" fill="white"/>
<path d="M40.7201 52C43.5701 53.53 46.0601 54.87 48.4701 56.44C49.6088 57.3334 50.9246 57.9743 52.3301 58.32C53.0471 58.4671 53.7827 58.5008 54.5101 58.42C54.8506 58.4093 55.1827 58.3119 55.475 58.1369C55.7672 57.9618 56.01 57.7151 56.1801 57.42C56.3088 56.7436 56.2213 56.0439 55.9301 55.42C55.716 54.744 55.4026 54.1037 55.0001 53.52C54.5954 52.9631 54.0783 52.4974 53.4823 52.1528C52.8863 51.8083 52.2247 51.5927 51.5401 51.52C48.6301 51 45.7301 50.3 42.8301 49.61L43.1201 49.49C42.3901 50.3 41.5801 51.1 40.7201 52ZM40.6201 52C41.2301 51.1 41.8901 50.07 42.6201 49.05L42.7201 48.92H42.9101C45.9101 49.31 48.8501 49.74 51.7801 50.35C52.5718 50.4852 53.3293 50.774 54.0101 51.2C54.7063 51.6597 55.2851 52.2762 55.7001 53C56.11 53.6733 56.3946 54.4153 56.5401 55.19C56.7905 55.9533 56.7905 56.7767 56.5401 57.54C56.3365 57.893 56.0457 58.1878 55.6955 58.3961C55.3453 58.6045 54.9475 58.7194 54.5401 58.73C53.7825 58.815 53.0177 58.815 52.2601 58.73C50.7219 58.5784 49.2431 58.0569 47.9501 57.21C45.3301 55.58 42.8101 53.71 40.6201 52Z" fill="#231F20"/>
<path d="M43.5801 46.06L43.0801 48.71C46.4309 49.5441 49.9111 49.7241 53.3301 49.24C55.6001 48.91 58.8401 48.45 59.4401 46.55C59.5513 46.1175 59.5548 45.6644 59.4502 45.2303C59.3456 44.7961 59.1361 44.3943 58.8401 44.06C58.3701 43.52 57.2401 42.68 52.6301 43.37C49.5045 43.8482 46.4594 44.7533 43.5801 46.06Z" fill="white"/>
<path d="M43.6198 46.09C43.5298 47.03 43.4698 47.91 43.3498 48.76L43.1398 48.44C46.0567 48.9295 49.0124 49.1504 51.9698 49.1C53.458 49.0793 54.9384 48.8812 56.3798 48.51C57.0993 48.3397 57.7787 48.0306 58.3798 47.6C58.6517 47.4115 58.8727 47.1584 59.0228 46.8634C59.1729 46.5685 59.2474 46.2409 59.2398 45.91C59.1951 45.264 58.9053 44.6595 58.4298 44.22C57.8943 43.8511 57.26 43.6525 56.6098 43.65C55.1418 43.6207 53.6745 43.738 52.2298 44C49.3061 44.4531 46.4258 45.1523 43.6198 46.09ZM43.5398 46C46.1821 44.4882 49.0637 43.4397 52.0598 42.9C53.5725 42.5919 55.1219 42.5043 56.6598 42.64C57.5153 42.6793 58.3341 42.9991 58.9898 43.55C59.2925 43.8573 59.5286 44.2237 59.6834 44.6263C59.8383 45.0289 59.9085 45.4591 59.8898 45.89C59.853 46.3017 59.7174 46.6985 59.4946 47.0467C59.2718 47.3949 58.9682 47.6842 58.6098 47.89C57.938 48.2759 57.2138 48.5623 56.4598 48.74C54.9798 49.09 53.5198 49.37 52.0198 49.62C49.0042 50.072 45.9251 49.8257 43.0198 48.9L42.7598 48.82V48.57C43.0198 47.74 43.3298 46.86 43.5398 46Z" fill="#231F20"/>
<path d="M30.0199 52.71C27.4759 53.3451 24.966 54.1094 22.4999 55C22.1256 55.1505 21.7854 55.375 21.4999 55.66C21.1344 56.0588 20.8694 56.539 20.7268 57.0608C20.5841 57.5825 20.5681 58.1308 20.6799 58.66C20.7171 58.9952 20.8203 59.3196 20.9833 59.6148C21.1463 59.91 21.3661 60.17 21.6299 60.38C22.0567 60.5688 22.5199 60.6613 22.9866 60.6509C23.4532 60.6405 23.9118 60.5276 24.3299 60.32C27.5399 59.2 30.0799 55.32 30.8999 54.03L30.0199 52.71Z" fill="white"/>
<path d="M29.9997 52.76C27.9862 53.6119 25.9302 54.3596 23.8397 55C23.3297 55.16 22.7697 55.3 22.3197 55.48C21.8417 55.6814 21.4417 56.0323 21.1797 56.48C20.9202 56.9353 20.7787 57.4484 20.7682 57.9724C20.7577 58.4964 20.8786 59.0147 21.1197 59.48C21.2199 59.6931 21.369 59.8793 21.555 60.0236C21.741 60.1679 21.9585 60.266 22.1897 60.31C22.6665 60.3755 23.1522 60.3169 23.5997 60.14C24.5995 59.8052 25.5261 59.2825 26.3297 58.6C27.9752 57.2177 29.4491 55.6432 30.7197 53.91V54.17C30.4797 53.73 30.2597 53.27 29.9997 52.76ZM29.9997 52.66C30.3297 53.03 30.6997 53.45 31.0597 53.9L31.1397 54L31.0697 54.16C30.5774 55.1577 29.995 56.1083 29.3297 57C28.6487 57.9129 27.8482 58.7301 26.9497 59.43C26.0212 60.1347 24.96 60.6449 23.8297 60.93C23.2282 61.1002 22.5913 61.1002 21.9897 60.93C21.691 60.8202 21.4208 60.6445 21.1992 60.416C20.9776 60.1875 20.8103 59.912 20.7097 59.61C20.3114 58.5128 20.3581 57.3033 20.8397 56.24C21.0843 55.6904 21.4885 55.227 21.9997 54.91C22.4938 54.625 23.0085 54.3777 23.5397 54.17C25.6367 53.4035 27.8196 52.8964 30.0397 52.66H29.9997Z" fill="#231F20"/>
<path d="M30.1604 49.8C27.7204 49.22 25.6604 48.8 23.9804 48.36C23.3426 48.1822 22.6683 48.1822 22.0304 48.36C21.5248 48.5126 21.0634 48.785 20.6856 49.1541C20.3078 49.5232 20.0247 49.978 19.8604 50.48C19.765 50.8421 19.7579 51.2218 19.8397 51.5872C19.9215 51.9527 20.0898 52.2931 20.3304 52.58C20.6508 52.7755 21.0095 52.9 21.3822 52.9448C21.7548 52.9897 22.1328 52.9539 22.4904 52.84C24.8637 52.4544 27.2662 52.2771 29.6704 52.31L30.1604 49.8Z" fill="white"/>
<path d="M30.11 49.82C28.1824 49.6354 26.2685 49.3282 24.38 48.9C23.9468 48.7642 23.5061 48.654 23.06 48.57C22.6208 48.5018 22.1717 48.5395 21.75 48.68C21.3104 48.8116 20.9159 49.0627 20.6105 49.4052C20.305 49.7477 20.1006 50.1682 20.02 50.62C19.9631 51.0593 20.0288 51.5058 20.21 51.91C20.297 52.076 20.4238 52.2177 20.5792 52.3224C20.7346 52.4272 20.9135 52.4916 21.1 52.51C21.5139 52.5418 21.9301 52.5012 22.33 52.39C22.81 52.29 23.33 52.2 23.78 52.12C25.7358 51.8574 27.7151 51.8172 29.68 52L29.35 52.28C29.56 51.5 29.83 50.73 30.11 49.82ZM30.2 49.82C30.2 50.59 30.12 51.49 30.02 52.43V52.68H29.71L23.98 53.17C23.51 53.17 23.04 53.27 22.57 53.34C22.0389 53.4491 21.4911 53.4491 20.96 53.34C20.6676 53.2711 20.3984 53.1269 20.1791 52.9216C19.9598 52.7163 19.798 52.4572 19.71 52.17C19.5706 51.6559 19.5706 51.1141 19.71 50.6C19.8481 50.1059 20.0911 49.6473 20.4224 49.2556C20.7538 48.8639 21.1656 48.5482 21.63 48.33C22.5789 47.8628 23.6717 47.7804 24.68 48.1C26.5575 48.5241 28.4023 49.0822 30.2 49.77V49.82Z" fill="#231F20"/>
<path d="M31.5798 47.81C30.6829 45.9571 29.1849 44.4626 27.3298 43.57C26.4498 43.18 24.7098 42.41 23.5398 43.24C23.2452 43.4478 23.0093 43.7283 22.8551 44.0542C22.7009 44.3802 22.6336 44.7404 22.6598 45.1C22.7498 45.77 23.2998 46.34 26.4498 47.88C27.4498 48.36 28.7998 48.99 30.4498 49.66L31.5798 47.81Z" fill="white"/>
<path d="M31.5296 47.81C30.511 46.4115 29.2348 45.2202 27.7696 44.3C27.0457 43.833 26.2706 43.4505 25.4596 43.16C25.0692 43.0019 24.6374 42.9779 24.2319 43.092C23.8264 43.206 23.4703 43.4515 23.2196 43.79C22.0496 45.52 24.3196 46.19 25.7796 46.97C27.2396 47.75 28.9996 48.46 30.5496 49.37L30.1496 49.49C30.5596 49 31.0196 48.41 31.5296 47.81ZM31.6296 47.81C31.3696 48.44 31.0596 49.14 30.6996 49.81L30.5896 50.03L30.3296 50C28.6088 49.4488 26.9365 48.7564 25.3296 47.93C24.4995 47.5064 23.7182 46.9933 22.9996 46.4C22.806 46.2192 22.6408 46.0102 22.5096 45.78C22.3851 45.5255 22.3299 45.2426 22.3496 44.96C22.3854 44.4526 22.5936 43.9728 22.9396 43.6C23.256 43.2292 23.6782 42.964 24.1496 42.84C24.6115 42.7304 25.0901 42.7101 25.5596 42.78C26.0256 42.8254 26.4851 42.9227 26.9296 43.07C27.3783 43.1937 27.8137 43.3612 28.2296 43.57C29.8699 44.489 31.0889 46.0093 31.6296 47.81Z" fill="#231F20"/>
<path d="M34.4901 45.56C32.8001 43 31.6001 41 30.9701 39.87C30.8628 39.6149 30.7059 39.3836 30.5084 39.1896C30.311 38.9956 30.0771 38.8428 29.8201 38.74C29.3383 38.6288 28.8324 38.7001 28.4001 38.94C28.0573 39.0668 27.7429 39.2602 27.4752 39.5091C27.2074 39.7579 26.9916 40.0573 26.8401 40.39C26.6001 41.17 27.0801 41.96 27.9201 43.04C29.1341 44.605 30.4971 46.0484 31.9901 47.35L34.4901 45.56Z" fill="white"/>
<path d="M34.4398 45.55C33.3189 44.1829 32.2804 42.7504 31.3298 41.26C31.1098 40.91 30.9198 40.55 30.7298 40.17C30.6035 39.7976 30.3989 39.4566 30.1298 39.17C29.9929 39.0346 29.8234 38.9368 29.6378 38.886C29.4521 38.8352 29.2565 38.8331 29.0698 38.88C28.6616 38.973 28.2747 39.1427 27.9298 39.38C27.5933 39.5942 27.3287 39.9042 27.1698 40.27C27.1123 40.4334 27.0906 40.6072 27.1061 40.7798C27.1217 40.9523 27.1741 41.1194 27.2598 41.27C27.6877 41.9852 28.1869 42.6553 28.7498 43.27C29.8898 44.55 31.0498 45.81 32.2598 47.04H31.7598C32.5598 46.55 33.4398 46.1 34.4398 45.55ZM34.5398 45.55C33.8698 46.19 33.0798 46.94 32.2198 47.65L31.9998 47.84L31.7198 47.63C30.2986 46.5638 29.036 45.3012 27.9698 43.88C27.3785 43.1798 26.9025 42.3899 26.5598 41.54C26.4757 41.2926 26.4448 41.0302 26.4689 40.7701C26.493 40.5099 26.5717 40.2577 26.6998 40.03C26.9486 39.6217 27.2915 39.2789 27.6998 39.03C28.0934 38.8058 28.5133 38.6312 28.9498 38.51C29.1877 38.446 29.4362 38.4307 29.6802 38.4651C29.9242 38.4995 30.1587 38.5828 30.3698 38.71C30.7768 38.9856 31.1182 39.3475 31.3698 39.77C31.6498 40.14 31.9098 40.51 32.1498 40.9C33.062 42.3948 33.8609 43.9558 34.5398 45.57V45.55Z" fill="#231F20"/>
<path d="M42.1298 36.39C42.4998 36.05 44.0098 34.7 45.4998 35.13C45.844 35.2448 46.1614 35.428 46.4329 35.6686C46.7044 35.9091 46.9245 36.2022 47.0798 36.53C47.9798 38.43 45.6899 41.79 41.7299 45.05L40.5998 44.71C40.4398 44.06 39.3298 38.93 42.1298 36.39Z" fill="white"/>
<path d="M42.1 36.35C42.6079 35.8675 43.1719 35.4479 43.78 35.1C44.1173 34.908 44.4923 34.7916 44.8791 34.7588C45.2658 34.726 45.6551 34.7776 46.02 34.91C46.3929 35.0677 46.7268 35.3052 46.9981 35.6058C47.2693 35.9064 47.4714 36.2629 47.59 36.65C47.7566 37.412 47.6393 38.2085 47.26 38.89C46.5772 40.1156 45.7804 41.2741 44.88 42.35C44.036 43.4639 43.0811 44.4891 42.03 45.41L41.85 45.56L41.6 45.5L40.45 45.19L40.18 45.12L40.11 44.83C39.691 43.3435 39.609 41.7822 39.87 40.26C40.1723 38.7503 40.9545 37.3788 42.1 36.35ZM42.16 36.42C41.6356 36.9258 41.2529 37.5602 41.05 38.26C40.8563 38.9468 40.7554 39.6565 40.75 40.37C40.7035 41.785 40.8176 43.2007 41.09 44.59L40.74 44.23L41.87 44.6L41.44 44.69C42.5 43.85 43.58 43.02 44.57 42.07C45.5801 41.1574 46.3261 39.99 46.73 38.69C46.92 38.1119 46.92 37.4881 46.73 36.91C46.5198 36.377 46.1449 35.9251 45.66 35.62C45.3947 35.4662 45.1001 35.3698 44.7952 35.3371C44.4902 35.3043 44.1819 35.336 43.89 35.43C43.243 35.6182 42.65 35.9575 42.16 36.42Z" fill="#231F20"/>
<path d="M37.12 44.43C37.12 43.96 36.5 38.19 35.82 37.01C35.7 36.7955 35.519 36.6215 35.3 36.51C35.0438 36.4419 34.7765 36.4253 34.5139 36.4614C34.2512 36.4974 33.9983 36.5854 33.77 36.72C33.32 36.883 32.913 37.1463 32.58 37.49C32.43 37.66 32.04 38.18 32.1 39.74C32.0926 40.7704 32.3005 41.7909 32.7103 42.7363C33.1202 43.6817 33.7229 44.5311 34.48 45.23L34.81 45.48L37.12 44.43Z" fill="white"/>
<path d="M37.0701 44.4C36.6102 42.7888 36.2594 41.1484 36.0201 39.49C35.948 38.6829 35.8075 37.8834 35.6001 37.1C35.5385 36.9318 35.4223 36.7891 35.27 36.6949C35.1177 36.6006 34.9381 36.5601 34.7601 36.58C34.3577 36.6378 33.9704 36.7737 33.6201 36.98C33.27 37.1458 32.9699 37.4011 32.7501 37.72C32.5889 38.0496 32.51 38.4133 32.5201 38.78C32.5053 39.5801 32.5858 40.379 32.7601 41.16C33.064 42.7016 33.8565 44.1042 35.0201 45.16H34.6601C35.4001 44.9 36.1801 44.67 37.0701 44.4ZM37.1601 44.45C36.5201 44.89 35.7701 45.36 34.9701 45.82L34.8101 45.91L34.6001 45.78C33.828 45.2993 33.1731 44.652 32.6834 43.8855C32.1938 43.119 31.8817 42.2527 31.7701 41.35C31.63 40.4689 31.63 39.5711 31.7701 38.69C31.8426 38.2141 32.0392 37.7658 32.3401 37.39C32.6614 37.0556 33.0596 36.805 33.5001 36.66C33.9028 36.4795 34.3259 36.3485 34.7601 36.27C35.0024 36.2376 35.249 36.2758 35.4701 36.38C35.6899 36.4926 35.8788 36.6574 36.0201 36.86C36.458 37.6263 36.7624 38.4616 36.9201 39.33C37.231 41.018 37.3117 42.7403 37.1601 44.45Z" fill="#231F20"/>
<path d="M37.4299 36C37.6956 35.6393 38.0359 35.3401 38.4276 35.1227C38.8193 34.9053 39.2532 34.7748 39.6999 34.74C40.0545 34.7383 40.4057 34.8103 40.731 34.9515C41.0564 35.0927 41.3488 35.2999 41.5899 35.56C42.3999 36.56 41.5899 38.02 41.1899 40.74C41.0343 41.9436 41.0008 43.1597 41.0899 44.37H37.6299C37.5099 44.05 35.9099 39.48 36.7299 37.21C36.896 36.7714 37.1324 36.3627 37.4299 36Z" fill="white"/>
<path d="M37.3896 36C37.7565 35.5373 38.2036 35.1444 38.7096 34.84C39.267 34.5323 39.9157 34.433 40.5396 34.56C40.8846 34.6041 41.2135 34.732 41.4976 34.9324C41.7817 35.1329 42.0125 35.3999 42.1696 35.71C42.4168 36.3538 42.4168 37.0663 42.1696 37.71C41.7929 38.7797 41.5118 39.8807 41.3296 41C41.201 42.1294 41.2381 43.2714 41.4396 44.39V44.73H41.0496C39.8996 44.82 38.7396 44.86 37.5896 44.89H37.3296L37.1896 44.55C36.6374 43.1627 36.3002 41.6992 36.1896 40.21C36.1259 39.4506 36.173 38.6859 36.3296 37.94C36.5338 37.2224 36.896 36.5595 37.3896 36ZM37.4696 36.06C37.0073 36.6237 36.7562 37.331 36.7596 38.06C36.7734 38.7651 36.8674 39.4662 37.0396 40.15C37.3196 41.52 37.6996 42.91 38.0996 44.26L37.6296 43.93C38.7796 43.93 39.9396 44 41.0896 44.09L40.7496 44.46C40.7788 43.2961 40.8689 42.1345 41.0196 40.98L41.4396 37.55C41.5361 37.0524 41.4982 36.5381 41.3296 36.06C41.1223 35.6465 40.7645 35.328 40.3296 35.17C39.8439 34.957 39.2988 34.9216 38.7896 35.07C38.2694 35.2468 37.8112 35.5697 37.4696 36V36.06Z" fill="#231F20"/>
<path d="M42.3301 44.59C43.231 42.4914 44.7524 40.7188 46.6901 39.51C47.5601 38.98 49.6201 37.73 51.8501 38.28C52.1801 38.36 53.6101 38.72 53.8501 39.65C54.0901 40.58 53.3001 41.23 52.9501 41.65C50.6701 44.06 45.1001 45.35 43.1401 45.76L42.3301 44.59Z" fill="white"/>
<path d="M42.3301 44.6C42.6495 43.4388 43.1945 42.3518 43.934 41.4013C44.6735 40.4507 45.5931 39.6552 46.6401 39.06C47.6661 38.4177 48.8411 38.0524 50.0505 37.9998C51.2599 37.9472 52.4622 38.2091 53.5401 38.76C53.8296 38.9531 54.0503 39.2332 54.1701 39.56C54.2905 39.9031 54.2905 40.2769 54.1701 40.62C53.9277 41.2094 53.559 41.7385 53.0901 42.17C52.2115 43.0029 51.1969 43.6794 50.0901 44.17C47.9224 45.0983 45.6261 45.6918 43.2801 45.93H43.1201L43.0601 45.82C42.7601 45.41 42.5201 45 42.3301 44.6ZM42.4301 44.6L43.3601 45.6L43.1401 45.51C45.3351 44.8619 47.4918 44.0907 49.6001 43.2C50.6287 42.7855 51.5893 42.2192 52.4501 41.52C53.2501 40.84 54.1401 39.87 53.2601 39.12C52.8327 38.7671 52.324 38.5265 51.7801 38.42C51.2335 38.2835 50.6639 38.2665 50.1101 38.37C49.0226 38.6358 48.0014 39.1226 47.1101 39.8C45.2014 41.0175 43.597 42.6561 42.4201 44.59L42.4301 44.6Z" fill="#231F20"/>
<path d="M34.2703 45.77C31.3703 47.56 29.1603 51.41 30.3703 53.32C31.5803 55.23 36.6803 54.96 39.8103 52.78C42.2503 51.09 44.4503 47.67 43.3503 45.78C42.1603 43.72 37.3303 43.87 34.2703 45.77Z" fill="#FAF28A"/>
<path d="M34.33 45.81C33.034 46.6648 31.9966 47.8579 31.33 49.26C30.991 49.9195 30.7453 50.6229 30.6 51.35C30.5156 51.6658 30.4969 51.9957 30.5451 52.319C30.5932 52.6424 30.7072 52.9524 30.88 53.23C31.3382 53.7612 31.968 54.115 32.66 54.23C33.4023 54.4108 34.1704 54.4616 34.93 54.38C36.4692 54.2258 37.9464 53.6933 39.23 52.83C40.4654 51.9513 41.507 50.8281 42.29 49.53C42.6741 48.9154 42.9482 48.2386 43.1 47.53C43.1842 47.2304 43.1973 46.9153 43.1382 46.6098C43.0792 46.3042 42.9497 46.0167 42.76 45.77C42.2795 45.2967 41.6651 44.9825 41 44.87C40.2742 44.7115 39.5329 44.6343 38.79 44.64C37.2252 44.6218 35.6844 45.026 34.33 45.81ZM34.27 45.73C35.6205 44.893 37.1111 44.3069 38.67 44C39.4878 43.8646 40.3222 43.8646 41.14 44C42.0372 44.1047 42.8725 44.5101 43.51 45.15C43.8305 45.5231 44.0447 45.9756 44.13 46.46C44.1962 46.913 44.1758 47.3745 44.07 47.82C43.874 48.6393 43.5355 49.4178 43.07 50.12C42.1683 51.4855 40.9416 52.6057 39.5 53.38C38.0792 54.108 36.5433 54.585 34.96 54.79C34.1623 54.9086 33.3533 54.9321 32.55 54.86C31.6713 54.8058 30.8427 54.4324 30.22 53.81C29.941 53.4469 29.7512 53.0233 29.6661 52.5734C29.581 52.1235 29.6029 51.6599 29.73 51.22C29.9219 50.412 30.2795 49.6527 30.78 48.99C31.7207 47.6977 32.8941 46.5922 34.24 45.73H34.27Z" fill="#231F20"/>
<path d="M35.5502 75.12C35.4502 82.33 37.1202 85.88 38.4502 87.72C38.8102 88.2 39.1102 88.54 42.2102 91.85L46.8202 96.76C46.7896 95.0333 46.6258 93.3115 46.3302 91.61C45.8402 88.91 45.3902 86.38 43.9602 84.16C42.7502 82.28 41.9602 82.37 39.6302 80.09C38.0902 78.5897 36.7217 76.9228 35.5502 75.12Z" fill="#3E9581"/>
<path d="M35.5601 75.17C35.7319 77.2565 36.0122 79.3327 36.4001 81.39C36.7776 83.4231 37.5123 85.3732 38.5701 87.15C39.1401 87.99 39.8801 88.77 40.5701 89.59C41.2601 90.41 41.9101 91.22 42.5701 92C44.0001 93.57 45.4901 95.08 47.0101 96.57L46.5301 96.76C46.3694 94.6671 46.0586 92.5884 45.6001 90.54C45.2621 88.5022 44.5861 86.5351 43.6001 84.72C43.101 83.8447 42.4188 83.0874 41.6001 82.5C40.7509 81.8329 39.949 81.1079 39.2001 80.33C37.7523 78.788 36.5271 77.0512 35.5601 75.17ZM35.5601 75.07C36.8583 76.749 38.2896 78.3207 39.8401 79.77C40.6032 80.4916 41.4152 81.1599 42.2701 81.77C43.2043 82.4041 43.9864 83.2374 44.5601 84.21C45.6158 86.1268 46.2947 88.2279 46.5601 90.4C46.9668 92.505 47.1544 94.6464 47.1201 96.79V97.51L46.6701 96.98C45.2801 95.38 43.8701 93.79 42.4001 92.27C40.9301 90.75 39.3501 89.27 37.9201 87.65C36.7238 85.8194 35.9611 83.74 35.6901 81.57C35.4937 80.4965 35.3734 79.4105 35.3301 78.32C35.3301 77.79 35.3301 77.25 35.3301 76.72C35.3301 76.19 35.5001 75.53 35.5401 75.07H35.5601Z" fill="#231F20"/>
<path d="M35.5499 75.12C37.3299 78.9 39.1899 82.82 41.3299 86.84C43.1899 90.38 45.0299 93.6867 46.8499 96.76C45.6199 95.49 43.8499 93.66 41.8499 91.4C38.5299 87.76 38.0299 87 37.7199 86.46C36.7199 84.83 35.2099 81.39 35.5499 75.12Z" fill="#1E6F5D"/>
<path d="M35.54 75.07C36.41 76.72 37.38 78.45 38.39 80.25C39.4 82.05 40.39 83.94 41.28 85.86C41.71 86.86 42.18 87.7 42.63 88.62C43.08 89.54 43.52 90.45 44 91.34C44.95 93.14 46 94.9 47 96.63L48.06 98.36L46.63 96.93C45.11 95.45 43.63 93.93 42.12 92.42C40.61 90.91 39.18 89.36 37.83 87.65C36.581 85.8272 35.7856 83.7324 35.51 81.54C35.19 79.3944 35.2001 77.2125 35.54 75.07ZM35.54 75.17C35.54 75.46 35.54 75.73 35.6 75.96L35.65 76.71C35.65 77.24 35.73 77.77 35.77 78.29C35.8749 79.3324 36.0419 80.3675 36.27 81.39C36.669 83.409 37.4903 85.3208 38.68 87C39.98 88.61 41.39 90.23 42.8 91.8C44.21 93.37 45.61 94.97 47 96.58L46.6 96.88C45.68 95.06 44.73 93.27 43.7 91.51C42.67 89.75 41.5 88 40.56 86.3C39.62 84.6 38.88 82.8 38.09 81C37.3 79.2 36.48 77.18 35.56 75.17H35.54Z" fill="#231F20"/>
<path d="M59.7803 69.36C61.6003 77.86 59.7203 82.36 58.0003 84.72C57.5503 85.35 57.1303 85.8 52.9003 90.21C50.3403 92.89 48.1803 95.13 46.6303 96.76C46.3124 94.7164 46.2118 92.6448 46.3303 90.58C46.5003 87.31 46.6303 84.26 48.4303 81.4C49.9503 78.98 51.2403 78.95 54.4303 75.88C56.4734 73.9335 58.2702 71.7438 59.7803 69.36Z" fill="#3E9581"/>
<path d="M59.7796 69.31C60.5989 71.9455 60.9575 74.7026 60.8396 77.46C60.7703 80.2726 59.8227 82.993 58.1296 85.24C56.2596 87.24 54.2596 89.05 52.3596 91.01C50.4596 92.97 48.6396 94.93 46.8296 97L46.4696 97.4L46.3296 96.8C45.8256 94.1144 45.6844 91.3732 45.9096 88.65C45.9698 87.2696 46.1538 85.8974 46.4596 84.55C46.8006 83.1733 47.3866 81.8691 48.1896 80.7C49.0528 79.5739 50.1175 78.6177 51.3296 77.88C52.4147 77.1099 53.447 76.268 54.4196 75.36C56.3931 73.5169 58.1877 71.4912 59.7796 69.31ZM59.7796 69.41C58.4918 71.7963 56.8724 73.9881 54.9696 75.92C54.0072 76.8926 52.9852 77.8043 51.9096 78.65C50.8267 79.3646 49.8787 80.2651 49.1096 81.31C47.7181 83.5324 46.9512 86.0887 46.8896 88.71C46.7896 90.05 46.6696 91.39 46.6796 92.71C46.6707 94.0469 46.7476 95.3829 46.9096 96.71L46.4396 96.57C48.3696 94.67 50.2896 92.76 52.1396 90.78C53.0696 89.78 53.9696 88.78 54.8596 87.78C55.7496 86.78 56.6896 85.78 57.4896 84.78C59.0027 82.6202 59.9013 80.0903 60.0896 77.46C60.2676 74.7729 60.1604 72.0745 59.7696 69.41H59.7796Z" fill="#231F20"/>
<path d="M59.7799 69.36C57.8599 74.1 55.6899 79.05 53.2199 84.14C51.0499 88.63 48.8399 92.83 46.6299 96.76C48.3099 95.06 50.6899 92.62 53.4699 89.62C57.9699 84.78 58.5899 83.79 58.9699 83.11C60.1299 81 61.7699 76.71 59.7799 69.36Z" fill="#1E6F5D"/>
<path d="M59.7701 69.41C59.0901 71.77 58.1101 74.18 57.1701 76.52C56.2301 78.86 55.1701 81.19 54.0301 83.46C52.8901 85.73 51.5201 87.88 50.3301 90.1C49.1401 92.32 47.9601 94.59 46.8601 96.87L46.4801 96.59C48.2901 94.59 50.0901 92.59 51.9401 90.59C53.7901 88.59 55.6001 86.59 57.3301 84.59C57.7452 84.086 58.126 83.5549 58.4701 83C59.4381 81.281 60.0439 79.382 60.2501 77.42C60.48 74.7409 60.3183 72.0425 59.7701 69.41ZM59.7701 69.31C60.0142 69.9645 60.2212 70.6322 60.3901 71.31C60.5701 71.97 60.6901 72.64 60.8101 73.31C61.0335 74.6746 61.1072 76.0594 61.0301 77.44C60.9333 80.2702 59.9151 82.9915 58.1301 85.19C56.3701 87.29 54.4901 89.25 52.5801 91.19C50.6701 93.13 48.7401 95 46.8001 96.93L45.5801 98.12L46.4201 96.64C47.6601 94.44 48.8601 92.2 49.9901 89.94C51.1201 87.68 52.2001 85.38 53.2601 83.09L56.4701 76.21C57.5801 73.91 58.5701 71.66 59.7801 69.31H59.7701Z" fill="#231F20"/>
</svg>
