<svg width="68" height="107" viewBox="0 0 68 107" fill="none" xmlns="http://www.w3.org/2000/svg">
<g clip-path="url(#clip0_1208_577)">
<path d="M42.0002 103.33C43.1098 96.4895 43.5152 89.5532 43.2102 82.63C42.9307 75.7828 41.959 68.9815 40.3102 62.33C39.4651 59.0379 38.4061 55.8043 37.1402 52.65L33.4702 43.19C32.2902 40 31.0002 36.89 29.6502 33.72C28.3002 30.55 26.8502 27.4 25.4902 24.09L25.9702 23.73C28.7052 26.0589 31.1615 28.6964 33.2902 31.59C35.4607 34.4649 37.3716 37.5269 39.0002 40.74C40.6375 43.9528 41.9249 47.3322 42.8402 50.82C43.7502 54.3 44.4602 57.82 45.0602 61.35C45.6602 64.88 46.0602 68.43 46.2902 71.99C46.4753 75.5409 46.4753 79.0991 46.2902 82.65C45.8692 89.7039 44.6549 96.6879 42.6702 103.47L42.0002 103.33Z" fill="#1E6F5D"/>
<path d="M23.1003 33.34C22.5803 43.74 22.6403 51.44 23.1003 53.79C23.2588 54.7146 23.6209 55.5924 24.1603 56.36C24.842 57.2912 25.7604 58.0232 26.8203 58.48C27.8431 59.0462 29.0226 59.2639 30.1803 59.1C32.6203 58.61 34.1203 55.86 34.3403 53.7C34.4237 52.9586 34.3626 52.2081 34.1603 51.49C32.8603 46.58 28.3103 33.93 27.8803 32.72L25.5603 33.02L23.1003 33.34Z" fill="white"/>
<path d="M23.1806 33.41C23.4606 35.79 23.4906 38.33 23.5706 40.79C23.6506 43.25 23.6506 45.73 23.6306 48.19L23.5606 51.87C23.4757 53.0477 23.6253 54.2305 24.0006 55.35C24.4727 56.4375 25.2922 57.3378 26.3306 57.91C27.3311 58.5276 28.4966 58.8242 29.6706 58.76C30.2185 58.6753 30.7419 58.4744 31.2059 58.1709C31.6698 57.8673 32.0635 57.4681 32.3606 57C32.9733 56.0667 33.3539 55.0003 33.4706 53.89C33.5306 53.36 33.5103 52.824 33.4106 52.3C33.3206 51.82 33.1006 51.21 32.9306 50.63C32.5506 49.47 32.1506 48.3 31.7406 47.14C30.1306 42.47 28.6806 37.73 27.3506 32.95L27.9606 33.33C27.1606 33.33 26.3406 33.41 25.5506 33.43L23.1806 33.41ZM23.0006 33.27C23.7306 33.08 24.5506 32.86 25.4106 32.67C26.2706 32.48 26.9906 32.31 27.7806 32.15L28.2006 32.06L28.4006 32.52C30.4441 37.0544 32.2172 41.7059 33.7106 46.45C34.0706 47.65 34.4106 48.84 34.7106 50.06C34.9101 50.6977 35.077 51.3452 35.2106 52C35.3059 52.7052 35.2856 53.4213 35.1506 54.12C34.8959 55.4765 34.2772 56.7382 33.3606 57.77C32.917 58.301 32.3699 58.7362 31.7527 59.0491C31.1355 59.362 30.4611 59.546 29.7706 59.59C28.4548 59.5454 27.1744 59.152 26.0606 58.45C24.909 57.8154 23.9594 56.8693 23.3206 55.72C22.7177 54.5624 22.3442 53.2993 22.2206 52C22.0405 50.7567 21.9236 49.5051 21.8706 48.25C21.8087 45.7584 21.8721 43.2652 22.0606 40.78C22.2196 38.2597 22.5335 35.7517 23.0006 33.27Z" fill="#231F20"/>
<path d="M28.6504 32.92C32.3104 42.68 35.5204 49.68 37.0004 51.59C37.5808 52.3742 38.3518 52.9972 39.2404 53.4C40.4508 53.916 41.7697 54.1255 43.0804 54.01C44.4899 54.0011 45.8712 53.6144 47.0804 52.89C48.1612 52.1184 48.9774 51.032 49.4177 49.7791C49.858 48.5263 49.9008 47.1681 49.5404 45.89C49.3206 45.1896 48.9522 44.5449 48.4604 44C45.0004 40.12 34.7404 30.84 33.7604 30L31.2804 31.43L28.6504 32.92Z" fill="white"/>
<path d="M28.7398 33C31.1798 37.46 33.2198 42.3 35.3898 46.91C35.9098 48.07 36.3898 49.25 36.9698 50.37C37.4581 51.4651 38.2716 52.3833 39.2998 53C40.3953 53.5815 41.6329 53.8414 42.8698 53.75C44.1183 53.7535 45.3483 53.4477 46.4498 52.86C47.4745 52.2357 48.2545 51.2793 48.6598 50.15C49.0465 49.0559 49.1295 47.8775 48.8998 46.74C48.7387 45.9493 48.3614 45.2189 47.8098 44.63L47.1498 43.96C46.2498 43.06 45.3198 42.18 44.3798 41.3C40.6065 37.8 36.9398 34.1833 33.3798 30.45L34.1098 30.53C33.2198 30.95 32.3398 31.41 31.4498 31.81L28.7398 33ZM28.5498 32.94C29.2898 32.38 30.1198 31.76 30.9898 31.14C31.8598 30.52 32.6298 30.03 33.4398 29.47L33.7798 29.24L34.1698 29.55C38.2626 32.7212 42.1566 36.141 45.8298 39.79C46.7298 40.71 47.6298 41.66 48.5198 42.63L49.1798 43.37C49.9293 44.2386 50.4028 45.3109 50.5398 46.45C50.7119 47.8667 50.4468 49.3021 49.7802 50.564C49.1135 51.8258 48.0771 52.8537 46.8098 53.51C45.5777 54.0513 44.2455 54.3273 42.8998 54.32C41.5381 54.4282 40.1698 54.2229 38.8998 53.72C37.6168 53.1452 36.5365 52.1974 35.7998 51C35.0614 49.9069 34.3934 48.768 33.7998 47.59C32.6679 45.2471 31.6664 42.8434 30.7998 40.39C30.3798 39.17 29.9598 37.94 29.5898 36.69C29.3898 36.07 29.2198 35.45 29.0498 34.82C28.8798 34.19 28.6898 33.48 28.5498 32.89V32.94Z" fill="#231F20"/>
<path d="M19.2003 32.84C18.4203 33.9 14.0203 39.84 10.9003 44.72C10.2338 45.7111 9.77461 46.8268 9.55029 48C9.18629 49.9261 9.54214 51.9189 10.5503 53.6C10.8554 54.2473 11.2855 54.8279 11.8158 55.3084C12.3461 55.7889 12.9661 56.1599 13.6403 56.4C16.5603 57.13 19.1703 53.88 19.3703 53.62C20.3359 52.3131 20.9271 50.7677 21.0803 49.15C21.9203 42.55 22.4503 36.66 22.7103 33.52L19.2003 32.84Z" fill="white"/>
<path d="M19.24 32.94C18.79 33.94 18.15 34.94 17.58 35.94C17.01 36.94 16.38 37.94 15.77 38.94C14.53 40.88 13.28 42.82 11.97 44.7C11.2985 45.549 10.7498 46.4882 10.34 47.49C9.95433 48.5139 9.79072 49.6081 9.85999 50.7C9.96477 51.7993 10.358 52.8515 11 53.75C11.5026 54.7156 12.3425 55.463 13.36 55.85C13.8475 55.9863 14.359 56.0139 14.8583 55.931C15.3576 55.848 15.8327 55.6565 16.25 55.37C17.132 54.7916 17.9097 54.0681 18.55 53.23C19.1682 52.4153 19.6046 51.4776 19.83 50.48C20.0261 49.3891 20.153 48.2869 20.21 47.18C20.65 42.5933 21.3167 38.0267 22.21 33.48L22.61 34.01C21.53 33.69 20.44 33.32 19.24 32.94ZM19.17 32.75C20.28 32.82 21.51 32.9 22.77 33.03H23.18V33.52C23.1067 38.1867 22.8167 42.81 22.31 47.39L22.09 49.12C22.0046 49.7559 21.8709 50.3844 21.69 51C21.3434 52.2506 20.7178 53.4062 19.86 54.38C19.0275 55.3205 18.005 56.0738 16.86 56.59C16.2678 56.8688 15.6239 57.0208 14.9695 57.0363C14.3151 57.0518 13.6647 56.9304 13.06 56.68C11.9618 56.0968 11.0632 55.1982 10.48 54.1C9.82069 53.0915 9.36544 51.9636 9.14 50.78C8.89995 49.5752 8.89995 48.3348 9.14 47.13C9.39576 45.9159 9.88113 44.7619 10.57 43.73C11.8004 41.7662 13.1356 39.8701 14.57 38.05C15.29 37.14 16.02 36.24 16.79 35.36C17.56 34.48 18.24 33.64 19.17 32.75Z" fill="#231F20"/>
<path d="M34.4004 29.29C38.5904 32.04 42.4704 34.55 46.7704 37.35C48.97 38.9391 51.5504 39.9189 54.2504 40.19C55.5004 40.28 58.5204 40.5 59.7104 38.73C60.5104 37.52 60.0804 35.98 59.6304 34.33C59.0905 32.2128 57.8586 30.3368 56.1304 29C55.1045 28.2805 53.9396 27.7833 52.7104 27.54C46.9004 26.17 39.8504 25 38.0004 24.73L34.4004 29.29Z" fill="white"/>
<path d="M34.4998 29.27C38.8394 31.4789 43.0647 33.9053 47.1598 36.54C49.004 38.0128 51.1366 39.0825 53.4198 39.68C54.5859 39.9294 55.7845 39.9902 56.9698 39.86C57.5238 39.837 58.0611 39.6638 58.5243 39.3591C58.9876 39.0544 59.3593 38.6296 59.5998 38.13C59.786 37.0121 59.6255 35.864 59.1398 34.84C58.7965 33.7405 58.2836 32.7013 57.6198 31.76C56.9927 30.8587 56.19 30.0934 55.2598 29.51C54.3013 28.9553 53.2458 28.5888 52.1498 28.43C47.3831 27.4767 42.6265 26.4567 37.8798 25.37L38.4898 25.13C37.2998 26.44 35.9298 27.73 34.4998 29.27ZM34.2998 29.27C35.2998 27.78 36.2998 26.03 37.4698 24.27L37.6598 23.99H38.0798C42.973 24.4363 47.8263 25.2452 52.5998 26.41C53.9106 26.6826 55.1587 27.1982 56.2798 27.93C57.4002 28.6882 58.3309 29.6942 58.9998 30.87C59.6333 32.0049 60.0695 33.2391 60.2898 34.52C60.6901 35.7858 60.6901 37.1442 60.2898 38.41C60.0027 39.0441 59.5092 39.5623 58.8898 39.88C58.3144 40.1778 57.6919 40.374 57.0498 40.46C56.4272 40.5492 55.7986 40.5893 55.1698 40.58C54.5398 40.58 53.9298 40.58 53.2898 40.51C50.7475 40.2796 48.3033 39.4167 46.1798 38C42.0505 35.3385 38.0835 32.4334 34.2998 29.3V29.27Z" fill="#231F20"/>
<path d="M39.1198 19.36L38.2998 23.75C43.7507 25.1388 49.4212 25.4445 54.9898 24.65C58.6798 24.1 63.9398 23.32 64.9198 20.17C65.0983 19.4488 65.1007 18.6952 64.9266 17.9729C64.7526 17.2506 64.4072 16.5807 63.9198 16.02C63.1598 15.13 61.3198 13.74 53.8298 14.88C48.7405 15.6756 43.7886 17.1837 39.1198 19.36Z" fill="white"/>
<path d="M39.2004 19.42C39.1104 21.01 39.0203 22.42 38.8703 23.86L38.4403 23.2C43.185 23.9639 47.9846 24.3352 52.7904 24.31C55.224 24.3068 57.6472 23.9909 60.0004 23.37C61.1409 23.0654 62.2086 22.5349 63.1404 21.81C63.5616 21.4981 63.8984 21.086 64.1202 20.611C64.342 20.136 64.4417 19.6132 64.4104 19.09C64.3178 18.0781 63.8633 17.1337 63.1304 16.43C62.3015 15.8297 61.3037 15.5076 60.2803 15.51C57.9356 15.4669 55.5919 15.6444 53.2803 16.04C48.5052 16.7936 43.7972 17.9238 39.2004 19.42ZM39.0004 19.3C43.2611 16.6862 47.9714 14.8888 52.8904 14C55.3773 13.4739 57.9298 13.3289 60.4604 13.57C61.1412 13.6479 61.8117 13.7987 62.4604 14.02C63.1766 14.2507 63.8278 14.6483 64.3604 15.18C64.8534 15.7058 65.2352 16.3259 65.4826 17.003C65.7301 17.68 65.8382 18.4001 65.8004 19.12C65.7469 19.832 65.5166 20.5195 65.1303 21.12C64.7518 21.6924 64.2579 22.1794 63.6804 22.55C62.581 23.2107 61.3873 23.6997 60.1404 24C58.9403 24.32 57.7304 24.55 56.5303 24.81C55.3303 25.07 54.1304 25.34 52.9004 25.53C47.9678 26.3648 42.9049 25.9558 38.1703 24.34L37.6104 24.17L37.7404 23.68C38.1304 22.12 38.5804 20.64 39.0004 19.3Z" fill="#231F20"/>
<path d="M17.0799 30.41C12.9415 31.4805 8.86246 32.769 4.85995 34.27C4.23739 34.514 3.67465 34.8892 3.20995 35.37C2.60993 36.0395 2.1774 36.8418 1.94792 37.711C1.71844 38.5803 1.69857 39.4916 1.88995 40.37C1.94335 40.9252 2.10708 41.4642 2.37152 41.9553C2.63597 42.4464 2.99581 42.8798 3.42995 43.23C4.86995 44.23 6.79994 43.49 7.82995 43.12C13.0499 41.26 17.1799 34.86 18.5099 32.66L17.0799 30.41Z" fill="white"/>
<path d="M17.0505 30.51C16.2625 30.9335 15.4474 31.3043 14.6105 31.62C13.7805 31.97 12.9405 32.29 12.0905 32.62C10.4005 33.23 8.72045 33.84 7.02045 34.37C6.20045 34.64 5.26045 34.87 4.55045 35.14C3.80124 35.4569 3.16883 35.9985 2.74045 36.69C2.32995 37.4414 2.11482 38.2838 2.11482 39.14C2.11482 39.9962 2.32995 40.8386 2.74045 41.59C2.89342 41.929 3.1277 42.2251 3.42251 42.4518C3.71732 42.6786 4.06353 42.8291 4.43045 42.89C5.19264 42.9564 5.95979 42.8434 6.67045 42.56C8.26064 42.0071 9.73039 41.1551 11.0005 40.05C13.6492 37.7469 16.0459 35.1691 18.1505 32.36V32.88C17.7805 32.16 17.4504 31.39 17.0505 30.51ZM17.1205 30.32C17.6705 30.91 18.2905 31.6 18.9205 32.32L19.0805 32.51L18.9305 32.84C17.4241 36.2595 15.1483 39.2848 12.2805 41.68C10.7501 42.8688 8.98962 43.7269 7.11045 44.2C6.10368 44.5094 5.02722 44.5094 4.02045 44.2C3.5185 44.0074 3.06637 43.7042 2.69763 43.313C2.32889 42.9217 2.053 42.4525 1.89045 41.94C1.2799 40.1158 1.34018 38.1337 2.06045 36.35C2.44069 35.4064 3.08253 34.5911 3.91045 34C4.31407 33.7268 4.73873 33.486 5.18045 33.28C5.59378 33.0733 6.01378 32.8833 6.44045 32.71C8.13827 32.0555 9.88327 31.5307 11.6605 31.14C12.5505 30.94 13.4405 30.76 14.3305 30.61C15.2538 30.4574 16.1855 30.3606 17.1205 30.32Z" fill="#231F20"/>
<path d="M17.3004 25.57C13.3004 24.57 10.0004 23.83 7.3004 23.17C6.26445 22.874 5.16634 22.874 4.1304 23.17C3.29556 23.4168 2.53422 23.8652 1.91342 24.4755C1.29262 25.0858 0.831412 25.8394 0.570396 26.67C0.570396 26.8 0.0503966 29.06 1.3404 30.19C2.3904 31.12 4.0504 30.78 4.8604 30.63C8.71573 29.9839 12.6218 29.6893 16.5304 29.75C16.7904 28.36 17.0504 27 17.3004 25.57Z" fill="white"/>
<path d="M17.2201 25.62C14.0594 25.3896 10.9205 24.9216 7.8301 24.22C7.1001 24.03 6.4001 23.75 5.7301 23.65C5.03658 23.512 4.31887 23.5603 3.6501 23.79C3.12061 23.9314 2.62856 24.1872 2.20857 24.5392C1.78858 24.8913 1.45088 25.3312 1.21922 25.8279C0.987563 26.3246 0.867588 26.866 0.86774 27.414C0.867892 27.9621 0.988168 28.5034 1.2201 29C1.34913 29.2569 1.54193 29.4764 1.78005 29.6375C2.01817 29.7985 2.29364 29.8958 2.5801 29.92C3.25335 29.9719 3.93046 29.9042 4.5801 29.72C5.3601 29.54 6.1601 29.38 6.9501 29.25C10.1242 28.7656 13.3478 28.695 16.5401 29.04L15.8601 29.61C16.2001 28.42 16.7301 27.15 17.2201 25.62ZM17.3901 25.51C17.3901 26.77 17.3901 28.29 17.2101 29.88L17.1601 30.38L16.5301 30.45C13.3901 30.77 10.2901 31.02 7.2101 31.3C6.4401 31.38 5.6801 31.46 4.9101 31.57C4.01295 31.7502 3.08675 31.7263 2.2001 31.5C1.70054 31.3521 1.24647 31.0804 0.880101 30.71C0.532699 30.3478 0.281705 29.9043 0.150101 29.42C-0.0604502 28.5661 -0.0604502 27.6739 0.150101 26.82C0.380066 26.0018 0.776862 25.24 1.31553 24.5826C1.8542 23.9252 2.52308 23.3863 3.2801 23C4.0425 22.5448 4.90361 22.2807 5.7901 22.23C6.23099 22.2048 6.67331 22.2249 7.1101 22.29C7.5201 22.36 7.9301 22.43 8.3401 22.52C11.4421 23.237 14.4715 24.2378 17.3901 25.51Z" fill="#231F20"/>
<path d="M19.6101 22.27C18.1671 19.2138 15.7216 16.7436 12.6801 15.27C11.2501 14.62 8.4101 13.34 6.5101 14.72C6.02852 15.0685 5.64425 15.5346 5.39392 16.0737C5.14359 16.6129 5.03555 17.2072 5.0801 17.8C5.2301 18.92 6.0801 19.88 11.2501 22.43C12.8701 23.23 15.0701 24.28 17.7401 25.43L19.6101 22.27Z" fill="white"/>
<path d="M19.5098 22.26C17.8005 20.0318 15.7241 18.111 13.3698 16.58C13.0898 16.39 12.7898 16.21 12.4998 16.04C12.2098 15.87 11.8698 15.67 11.5698 15.49C10.9696 15.1271 10.3327 14.8288 9.66978 14.6C9.02706 14.377 8.33597 14.3321 7.66978 14.47C7.01954 14.6403 6.45833 15.0514 6.09978 15.62C5.75125 16.1516 5.59918 16.7882 5.66978 17.42C5.74978 18.02 6.07978 18.29 6.59978 18.69C7.76981 19.4502 8.99679 20.1188 10.2698 20.69C12.9256 21.878 15.5129 23.2134 18.0198 24.69L17.1998 24.96C17.8598 24.14 18.6498 23.26 19.5098 22.26ZM19.7098 22.26C19.3398 23.31 18.8698 24.49 18.3098 25.68L18.0898 26.14L17.4898 25.95C16.0798 25.49 14.6898 24.95 13.3198 24.42C11.942 23.8888 10.6051 23.2571 9.31978 22.53C8.66978 22.16 8.02978 21.78 7.39978 21.36C6.71935 20.9455 6.08275 20.4631 5.49978 19.92C5.17335 19.6069 4.90578 19.2377 4.70978 18.83C4.5058 18.3933 4.4229 17.9097 4.46978 17.43C4.55415 16.5865 4.90433 15.7916 5.46978 15.16C5.98774 14.5385 6.68702 14.0945 7.46978 13.89C8.23578 13.7074 9.02828 13.6634 9.80978 13.76C10.5805 13.8492 11.3429 13.9997 12.0898 14.21C12.836 14.4076 13.5573 14.6894 14.2398 15.05C15.5895 15.8221 16.7684 16.8601 17.7052 18.1011C18.642 19.3421 19.3172 20.7604 19.6898 22.27L19.7098 22.26Z" fill="#231F20"/>
<path d="M24.3503 18.52C21.6103 14.2 19.6403 11 18.6203 9.04996C18.4479 8.63002 18.1938 8.24849 17.8728 7.92749C17.5518 7.60649 17.1702 7.3524 16.7503 7.17996C15.9658 7.0059 15.1447 7.1232 14.4403 7.50996C13.8797 7.72629 13.3675 8.05152 12.9332 8.46688C12.499 8.88224 12.1513 9.37951 11.9103 9.92996C11.5303 11.23 12.3003 12.53 13.6703 14.34C15.6367 16.9319 17.8505 19.3265 20.2803 21.49L24.3503 18.52Z" fill="white"/>
<path d="M24.2496 18.5C23.9596 18.19 23.7196 18.03 23.4996 17.78L22.7796 17C22.3096 16.45 21.8696 15.88 21.4396 15.3C20.5776 14.1377 19.7797 12.9293 19.0496 11.68C18.6898 11.0347 18.3725 10.3666 18.0996 9.67997C17.92 9.06741 17.6209 8.49645 17.2196 7.99997C17.0069 7.78121 16.7419 7.62044 16.4496 7.53293C16.1573 7.44543 15.8475 7.43408 15.5496 7.49997C14.884 7.65105 14.2551 7.9332 13.6996 8.32997C13.1581 8.68879 12.7448 9.21064 12.5196 9.81997C12.4372 10.0867 12.4115 10.3678 12.4442 10.6451C12.4769 10.9224 12.5673 11.1897 12.7096 11.43C13.4183 12.5818 14.2354 13.6634 15.1496 14.66C17.0096 16.77 18.8696 18.86 20.8096 20.94H19.8096C21.0896 20.08 22.5596 19.41 24.2496 18.5ZM24.4496 18.5C23.4496 19.57 22.1696 20.88 20.7396 22.1L20.3096 22.47L19.7396 22.05C17.3838 20.296 15.3069 18.1955 13.5796 15.82C12.6161 14.6169 11.8529 13.2662 11.3196 11.82C11.1858 11.3972 11.1416 10.9512 11.1898 10.5105C11.238 10.0697 11.3776 9.64378 11.5996 9.25997C12.0308 8.58556 12.626 8.03161 13.3296 7.64997C13.9825 7.26641 14.6814 6.96735 15.4096 6.75997C15.8134 6.65096 16.2354 6.62756 16.6487 6.69128C17.062 6.755 17.4575 6.90442 17.8096 7.12997C18.4755 7.62921 19.0249 8.26728 19.4196 8.99997C19.8196 9.58997 20.2196 10.17 20.5896 10.78C21.3296 12 22.0096 13.26 22.6796 14.53C22.9996 15.17 23.3196 15.82 23.6096 16.53L24.0496 17.53C24.1996 17.8 24.3596 18.24 24.4496 18.54V18.5Z" fill="#231F20"/>
<path d="M36.7704 3.26998C37.3704 2.70998 39.8305 0.46998 42.2404 1.16998C42.8052 1.3675 43.3246 1.67639 43.7677 2.07835C44.2109 2.4803 44.5689 2.96713 44.8204 3.50998C46.2704 6.65998 42.5604 12.25 36.1204 17.67L34.2704 17.11C34.0004 16 32.1404 7.49998 36.7704 3.26998Z" fill="white"/>
<path d="M36.7004 3.19C37.5341 2.3847 38.4567 1.67682 39.4504 1.08C39.996 0.763537 40.5965 0.55317 41.2204 0.459995C41.8992 0.366057 42.5907 0.45942 43.2204 0.729995C43.8498 0.992736 44.4083 1.40048 44.8503 1.92C45.3195 2.43378 45.662 3.05021 45.8503 3.72C46.1131 5.00693 45.8924 6.34557 45.2303 7.48C44.6848 8.52429 44.0631 9.52701 43.3703 10.48C42.7103 11.42 42.0303 12.34 41.3703 13.25C40.0287 15.1258 38.4973 16.8583 36.8003 18.42L36.4403 18.73L35.9203 18.6L34.0003 18.08L33.4704 17.94L33.3104 17.34C32.9801 16.1 32.7724 14.8306 32.6903 13.55C32.6141 12.2646 32.698 10.9747 32.9403 9.71C33.2037 8.43744 33.6841 7.21968 34.3604 6.11C35.0034 5.03444 35.7907 4.05198 36.7004 3.19ZM36.8304 3.33999C35.9755 4.18991 35.3643 5.25352 35.0604 6.42C34.7968 7.56741 34.6759 8.74296 34.7004 9.92C34.6672 11.0845 34.7039 12.2499 34.8104 13.41C34.895 14.5742 35.0453 15.7327 35.2603 16.88L34.5703 16.14L36.4004 16.78L35.5203 16.96C37.2503 15.56 39.0603 14.23 40.6803 12.68C41.4896 11.907 42.2046 11.041 42.8104 10.1C43.4278 9.18663 43.8781 8.17086 44.1403 7.1C44.4168 6.1633 44.4168 5.16669 44.1403 4.23C43.9982 3.80908 43.7776 3.41887 43.4904 3.07999C43.2009 2.72304 42.8645 2.40684 42.4904 2.14C42.0801 1.87541 41.6187 1.70035 41.1362 1.62625C40.6537 1.55216 40.1611 1.58069 39.6903 1.71C38.6177 2.01051 37.6356 2.57029 36.8304 3.33999Z" fill="#231F20"/>
<path d="M28.6197 16.64C28.5397 15.86 27.6197 6.26 26.4997 4.31001C26.315 3.94865 26.0211 3.65473 25.6597 3.47001C25.2442 3.35285 24.8087 3.32436 24.3815 3.38638C23.9542 3.4484 23.5448 3.59954 23.1797 3.83C22.4425 4.09547 21.778 4.5305 21.2397 5.1C20.9997 5.38 20.3597 6.25001 20.4597 8.85001C20.5097 10.07 20.6997 14.93 24.3297 17.97C24.5497 18.16 24.7497 18.31 24.8697 18.4L28.6197 16.64Z" fill="white"/>
<path d="M28.5301 16.59C28.2684 15.9417 28.061 15.2727 27.9101 14.59C27.7301 13.91 27.5801 13.22 27.4201 12.59C27.1501 11.23 26.8801 9.86998 26.6701 8.50998C26.5801 7.82998 26.5101 7.14998 26.4401 6.50998C26.4006 5.85909 26.2865 5.21488 26.1001 4.58998C26.0241 4.31292 25.8534 4.07123 25.6178 3.90683C25.3822 3.74244 25.0964 3.66572 24.8101 3.68998C24.1734 3.78178 23.5594 3.99208 23.0001 4.30998C22.4334 4.58253 21.9576 5.01317 21.6301 5.54998C21.4062 6.09842 21.3006 6.68793 21.3201 7.27998C21.331 8.58899 21.4818 9.89308 21.7701 11.17C22.2405 13.6892 23.4726 16.0033 25.3001 17.8L24.5601 17.73C25.7401 17.33 27.0001 17 28.5301 16.59ZM28.7101 16.69C27.5756 17.541 26.3973 18.3321 25.1801 19.06L24.8601 19.24L24.4401 19C23.1235 18.2098 22.0185 17.1117 21.2201 15.8C20.4336 14.5022 19.9261 13.0548 19.7301 11.55C19.5001 10.0789 19.5001 8.58104 19.7301 7.10998C19.8721 6.30089 20.2161 5.54074 20.7301 4.89998C21.2908 4.34067 21.9763 3.92252 22.7301 3.67998C23.3796 3.3703 24.0648 3.14191 24.7701 2.99998C25.1938 2.95421 25.6216 3.0342 26.0001 3.22998C26.3645 3.44001 26.6758 3.7308 26.9101 4.07998C27.6492 5.35345 28.1666 6.74322 28.4401 8.18998C28.6959 9.5771 28.853 10.9806 28.9101 12.39C28.9101 13.09 28.9101 13.8 28.9101 14.51C28.8839 15.2398 28.8172 15.9676 28.7101 16.69Z" fill="#231F20"/>
<path d="M29.1203 2.61997C29.5505 2.02607 30.1037 1.53193 30.7423 1.17125C31.3808 0.810572 32.0896 0.59184 32.8203 0.529972C33.3982 0.529189 33.9697 0.650878 34.4971 0.88702C35.0246 1.12316 35.496 1.4684 35.8803 1.89997C37.2103 3.63997 35.8303 5.98997 35.2403 10.51C34.9762 12.4988 34.9226 14.5099 35.0803 16.51H29.4403C29.2603 16 26.6503 8.41997 28.0003 4.62997C28.2685 3.90655 28.6462 3.22864 29.1203 2.61997Z" fill="white"/>
<path d="M29.0006 2.55999C29.5968 1.76743 30.3321 1.08976 31.1706 0.559986C32.1173 0.0249826 33.2268 -0.145718 34.2906 0.0799859C34.8778 0.171445 35.433 0.407644 35.9061 0.767278C36.3792 1.12691 36.7553 1.59867 37.0006 2.13999C37.3789 3.20402 37.3789 4.36595 37.0006 5.42999C36.7306 6.42999 36.3706 7.24999 36.1006 8.15999C35.8092 9.05207 35.6016 9.96937 35.4806 10.9C35.2796 12.766 35.3706 14.652 35.7506 16.49L35.8606 17.14L35.0706 17.23C33.1906 17.43 31.3106 17.48 29.4306 17.56H28.7506L28.4806 16.86C28.0356 15.6989 27.6681 14.5097 27.3806 13.3C27.1011 12.0839 26.9271 10.846 26.8606 9.59999C26.8213 8.32789 26.9729 7.05709 27.3106 5.82999C27.6407 4.63445 28.2163 3.5208 29.0006 2.55999ZM29.1606 2.68999C28.4267 3.63315 28.0511 4.80599 28.1006 5.99999C28.1716 7.16251 28.3592 8.31496 28.6606 9.43999C28.9106 10.58 29.1606 11.72 29.4706 12.86C29.7806 14 30.0706 15.14 30.4006 16.25L29.4006 15.58C31.2806 15.66 33.1606 15.7 35.0406 15.91L34.3606 16.64C34.4106 14.64 34.6506 12.77 34.8506 10.87L35.4506 5.17999C35.5847 4.4113 35.5471 3.62245 35.3406 2.86999C35.0723 2.20515 34.5559 1.67078 33.9006 1.37999C33.1411 0.980622 32.2584 0.884135 31.4306 1.10999C30.5411 1.39213 29.7617 1.94439 29.2006 2.68999H29.1606Z" fill="#231F20"/>
<path d="M37.1602 16.92C38.6048 13.4429 41.0744 10.4884 44.2402 8.45C45.6602 7.58 49.0102 5.5 52.6302 6.45C53.1602 6.59 55.4902 7.17 55.8802 8.73C56.2102 10 55.0002 11.33 54.4202 12C50.7202 16 41.6502 18.16 38.4202 18.84L37.1602 16.92Z" fill="white"/>
<path d="M37.0605 16.93C37.516 14.994 38.3609 13.171 39.5437 11.5721C40.7265 9.97326 42.2225 8.63197 43.9405 7.62999C45.6737 6.64636 47.6033 6.05895 49.5905 5.90999C50.577 5.83123 51.5696 5.88843 52.5405 6.07999C53.5355 6.25929 54.4883 6.62213 55.3505 7.14999C55.8341 7.47858 56.2071 7.94567 56.4205 8.48999C56.6158 9.07753 56.6158 9.71245 56.4205 10.3C56.0578 11.3005 55.4693 12.204 54.7005 12.94C53.2687 14.3529 51.6001 15.5037 49.7705 16.34C46.2286 17.9193 42.4454 18.8896 38.5805 19.21H38.2405L38.1105 19C37.7305 18.29 37.3605 17.58 37.0605 16.93ZM37.2605 16.93L38.8205 18.56L38.3805 18.39C41.9605 17.15 45.5205 15.95 48.8505 14.39C50.5117 13.7168 52.0597 12.7927 53.4405 11.65C54.7405 10.49 56.1205 9.04999 54.7705 7.83999C54.0902 7.26294 53.2749 6.86734 52.4005 6.68999C51.5129 6.46683 50.5859 6.44973 49.6905 6.63999C47.9229 7.1204 46.2724 7.95759 44.8405 9.09999C44.1005 9.61999 43.3705 10.1 42.6705 10.7C41.9653 11.2771 41.2973 11.8984 40.6705 12.56C39.4287 13.9243 38.2889 15.3783 37.2605 16.91V16.93Z" fill="#231F20"/>
<path d="M24 18.87C19.28 21.87 15.69 28.25 17.65 31.42C19.74 34.79 27.91 34.15 33 30.53C37 27.71 40.55 22.03 38.76 18.87C36.81 15.47 29 15.71 24 18.87Z" fill="#FAF28A"/>
<path d="M24.0003 19C21.8835 20.4201 20.2206 22.4198 19.2103 24.76C18.6923 25.8423 18.3094 26.9842 18.0703 28.16C17.8131 29.171 17.9451 30.2418 18.4403 31.16C19.1163 32.0507 20.0878 32.6712 21.1803 32.91C22.3859 33.2294 23.6383 33.3343 24.8803 33.22C26.1376 33.0971 27.3742 32.8149 28.5603 32.38C30.8917 31.482 32.9565 30.0057 34.5603 28.09C35.3723 27.1775 36.0956 26.1897 36.7203 25.14C37.327 24.1376 37.7566 23.0382 37.9903 21.89C38.0919 21.3799 38.1155 20.8572 38.0603 20.34C37.9901 19.8919 37.8078 19.4688 37.5303 19.11C36.8192 18.3274 35.8704 17.8003 34.8303 17.61C33.656 17.3348 32.4561 17.184 31.2503 17.16C28.7089 17.082 26.1968 17.7196 24.0003 19ZM23.9003 18.83C25.0125 18.121 26.1834 17.5088 27.4003 17C28.6183 16.4737 29.8887 16.0781 31.1903 15.82C32.5353 15.5345 33.9208 15.4939 35.2803 15.7C36.005 15.802 36.7099 16.0144 37.3703 16.33C37.7161 16.4971 38.0502 16.6876 38.3703 16.9C38.6898 17.1512 38.9845 17.4325 39.2503 17.74C39.7826 18.3924 40.1281 19.1769 40.2503 20.01C40.3463 20.7688 40.2988 21.5388 40.1103 22.28C39.7654 23.6443 39.1832 24.9374 38.3903 26.1C36.9193 28.3716 34.8963 30.233 32.5103 31.51C30.1549 32.7014 27.6163 33.489 25.0003 33.84C23.6794 34.0659 22.3349 34.1197 21.0003 34C19.5189 33.9097 18.1308 33.2462 17.1303 32.15C16.8839 31.843 16.6757 31.5072 16.5103 31.15C16.3795 30.778 16.2923 30.3921 16.2503 30C16.1648 29.2675 16.2123 28.5256 16.3903 27.81C16.7153 26.4684 17.3145 25.2086 18.1503 24.11C19.7552 22.0125 21.7147 20.2121 23.9403 18.79L23.9003 18.83Z" fill="#231F20"/>
<path d="M26.0702 67.68C25.9102 79.68 28.6302 85.57 30.7902 88.62C31.3602 89.43 31.8602 89.99 36.9002 95.5L44.3802 103.66C44.3083 100.785 44.0175 97.9204 43.5102 95.09C42.7102 90.6 41.9902 86.41 39.6602 82.72C37.6602 79.59 36.4102 79.72 32.6602 75.94C30.1677 73.4363 27.9578 70.6663 26.0702 67.68Z" fill="#3E9581"/>
<path d="M26.0904 67.75C26.3363 71.2077 26.7703 74.6494 27.3904 78.06C27.999 81.4335 29.1829 84.6774 30.8904 87.65C31.8187 89.0924 32.8586 90.4599 34.0004 91.74C35.1204 93.09 36.2504 94.43 37.4104 95.74C39.7404 98.36 42.1804 100.88 44.6504 103.38L43.9304 103.67C43.6842 100.202 43.1862 96.756 42.4403 93.36C41.9129 89.9789 40.8388 86.7062 39.2603 83.67C38.8614 82.9608 38.396 82.2911 37.8703 81.67C37.3186 81.0478 36.7129 80.4756 36.0604 79.96C34.6679 78.8532 33.3547 77.6503 32.1304 76.36C30.9257 75.0615 29.8035 73.6888 28.7704 72.25C28.2404 71.53 27.7704 70.79 27.3004 70.05L26.6104 68.91L26.2804 68.34C26.1923 68.1522 26.1285 67.9539 26.0904 67.75ZM26.0904 67.61C26.2661 67.7825 26.4267 67.9699 26.5704 68.17L26.9704 68.69L27.7704 69.69C28.3104 70.37 28.8804 71.03 29.4404 71.69C30.5704 73.01 31.8004 74.24 33.0404 75.44C34.2978 76.6289 35.6342 77.7314 37.0404 78.74C37.795 79.2689 38.4892 79.8792 39.1104 80.56C39.7275 81.2572 40.2735 82.0143 40.7404 82.82C42.6204 85.99 43.3403 89.6 43.9203 93.05C44.582 96.5266 44.8903 100.061 44.8404 103.6V104.7L44.1504 103.88C41.8804 101.21 39.5804 98.56 37.1504 96.02C35.9404 94.74 34.7104 93.5 33.4704 92.25L31.6204 90.36C30.9833 89.7192 30.4044 89.0231 29.8904 88.28C27.9628 85.2306 26.7366 81.7911 26.3004 78.21C26.0391 76.4547 25.8922 74.6843 25.8604 72.91C25.8604 72.03 25.8604 71.15 25.8604 70.27C25.8604 69.85 25.8604 69.34 25.9504 68.87C26.0404 68.4 26.0004 68 26.0504 67.61H26.0904Z" fill="#231F20"/>
<path d="M26.0698 67.68C28.8798 74 31.9998 80.48 35.4098 87.17C38.4098 93.06 41.4098 98.55 44.4098 103.66C42.4098 101.54 39.5898 98.51 36.2498 94.75C30.8698 88.75 30.0598 87.43 29.5498 86.54C27.9998 83.82 25.5098 78.1 26.0698 67.68Z" fill="#1E6F5D"/>
<path d="M26.0604 67.61C26.2404 67.94 26.5304 68.32 26.7404 68.76L27.3404 69.88C27.7304 70.62 28.1404 71.36 28.5104 72.11L30.8304 76.6C32.3504 79.6 33.8304 82.6 35.3304 85.6C36.8304 88.6 38.2604 91.6 39.7804 94.6C41.3004 97.6 42.9904 100.51 44.7104 103.4L46.3104 106.07L44.1104 103.85C41.6304 101.35 39.1104 98.85 36.7504 96.29C34.3904 93.73 31.9604 91.16 29.7504 88.29C27.7496 85.2849 26.4666 81.86 26.0004 78.28C25.7598 76.5305 25.6462 74.7659 25.6604 73C25.6604 72.12 25.6604 71.23 25.7504 70.35C25.7504 69.92 25.8004 69.47 25.8704 68.97C25.9404 68.47 26.0004 68 26.0604 67.61ZM26.0604 67.76C26.0711 68.1948 26.1044 68.6287 26.1604 69.06L26.2204 70.31C26.2204 71.19 26.3504 72.06 26.4104 72.93C26.5743 74.6565 26.8347 76.3725 27.1904 78.07C27.5384 79.7546 28.0371 81.4046 28.6804 83C29.2715 84.5786 30.0756 86.0691 31.0704 87.43C33.1704 90.14 35.4804 92.82 37.7904 95.43C40.1004 98.04 42.3904 100.71 44.6604 103.43L44.0504 103.88C42.5604 100.88 41.0504 97.88 39.3304 94.94C37.6104 92 35.8304 89.17 34.2004 86.22C32.5704 83.27 31.2004 80.22 29.7904 77.12C29.1004 75.59 28.4604 74.02 27.7904 72.47C27.4604 71.7 27.1604 70.9 26.8604 70.12L26.4104 68.94C26.3004 68.58 26.2504 68.19 26.0804 67.76H26.0604Z" fill="#231F20"/>
<path d="M65.4503 58.1C68.4503 72.24 65.3604 79.67 62.5704 83.64C61.8304 84.64 61.1504 85.43 54.2804 92.77L44.0804 103.66C43.5548 100.264 43.3739 96.8228 43.5404 93.39C43.8204 88 44.0004 82.87 47.0004 78.12C49.4804 74.12 51.5704 74.05 56.8104 68.94C60.1231 65.6938 63.0248 62.0533 65.4503 58.1Z" fill="#3E9581"/>
<path d="M65.4601 58C65.5801 58.52 65.7501 59 65.9101 59.63C66.0658 60.1932 66.1926 60.7639 66.2901 61.34L66.6201 63C66.7101 63.56 66.7701 64.12 66.8501 64.68C67.1404 66.9276 67.2407 69.1956 67.1501 71.46C67.0455 76.0899 65.5353 80.5785 62.8201 84.33C61.3201 86.12 59.7101 87.62 58.1401 89.23C56.5701 90.84 55.0001 92.42 53.4301 94C50.3401 97.24 47.3401 100.56 44.4301 103.91L43.8701 104.54L43.7201 103.69C43.2877 101.482 43.0137 99.2467 42.9001 97C42.7901 94.73 42.9001 92.48 43.0101 90.25C43.1012 87.9716 43.3957 85.706 43.8901 83.48C44.4297 81.2162 45.3603 79.0639 46.6401 77.12C47.3089 76.1414 48.1023 75.254 49.0001 74.48C49.8801 73.7 50.8001 73.04 51.6901 72.39C53.4738 71.0927 55.1677 69.6761 56.7601 68.15C58.3725 66.6306 59.9014 65.0249 61.3401 63.34C62.0501 62.5 62.7601 61.64 63.4401 60.76L64.4401 59.42L64.9301 58.75C65.0917 58.4897 65.2687 58.2393 65.4601 58ZM65.4601 58.15C65.3663 58.3907 65.2561 58.6246 65.1301 58.85L64.7101 59.58L63.8101 61C63.2001 61.94 62.5801 62.88 61.9001 63.78C60.5686 65.6127 59.1189 67.3564 57.5601 69C55.9997 70.6295 54.3291 72.1498 52.5601 73.55C51.6901 74.26 50.8001 74.92 50.0201 75.64C49.2473 76.3358 48.5683 77.1291 48.0001 78C46.831 79.7997 45.9661 81.7795 45.4401 83.86C44.9176 85.9832 44.583 88.1482 44.4401 90.33C44.2901 92.55 44.1001 94.76 44.1101 96.96C44.1101 99.1691 44.2403 101.376 44.5001 103.57L43.8001 103.35C46.9501 100.18 50.0701 96.97 53.1001 93.68C54.6101 92.03 56.1001 90.35 57.5501 88.68C59.0001 87.01 60.5501 85.31 61.8401 83.6C64.2799 79.9684 65.7151 75.7558 66.0001 71.39C66.1868 69.1882 66.2136 66.9757 66.0801 64.77L66.0001 63.11L65.8401 61.44L65.6601 59.85C65.5601 59.33 65.5201 58.76 65.4401 58.18L65.4601 58.15Z" fill="#231F20"/>
<path d="M65.4501 58.1C62.3401 66 58.8201 74.21 54.8001 82.68C51.2701 90.14 47.6701 97.13 44.0801 103.68C46.8101 100.85 50.6701 96.8 55.2101 91.8C62.5101 83.8 63.5301 82.12 64.1501 80.99C66.0001 77.49 68.7001 70.33 65.4501 58.1Z" fill="#1E6F5D"/>
<path d="M65.4505 58.18C65.2705 58.71 65.1805 59.18 65.0305 59.63L64.5205 61.12C64.1705 62.12 63.8305 63.12 63.4505 64.12C62.7105 66.05 62.0005 68 61.1805 70C59.5905 73.89 57.9105 77.75 56.0705 81.52C54.2305 85.29 52.1805 89 50.2005 92.65C49.2138 94.4967 48.2405 96.3567 47.2805 98.23C46.3205 100.103 45.3605 101.97 44.4005 103.83L43.8105 103.4C46.8105 100.04 49.7405 96.68 52.7605 93.4C55.7805 90.12 58.7605 86.72 61.5605 83.3C62.252 82.4774 62.8773 81.6013 63.4305 80.68C63.9542 79.7341 64.4088 78.7515 64.7905 77.74C65.5588 75.693 66.0597 73.5553 66.2805 71.38C66.5006 69.1797 66.5207 66.9639 66.3405 64.76C66.2205 63.66 66.1305 62.55 65.9505 61.45C65.8705 60.9 65.7905 60.33 65.7005 59.84C65.6105 59.35 65.5605 58.76 65.4505 58.18ZM65.4505 58.03C65.6005 58.54 65.8105 59.03 65.9905 59.65C66.1705 60.27 66.3005 60.79 66.4405 61.33C66.7205 62.43 66.9305 63.54 67.1105 64.66C67.4658 66.9081 67.5865 69.187 67.4705 71.46C67.1705 75.98 65.8805 80.7 62.8105 84.28C61.3805 86.05 59.9005 87.74 58.3905 89.4C56.8805 91.06 55.3905 92.7 53.7805 94.31C50.6705 97.55 47.5005 100.73 44.3405 103.91L42.2705 106L43.7605 103.5C44.8272 101.7 45.8538 99.8733 46.8405 98.02C47.8272 96.1667 48.7905 94.3033 49.7305 92.43C51.5505 88.65 53.2105 84.8 54.9105 80.97L60.1205 69.53L62.7405 63.81C63.1605 62.81 63.6205 61.91 64.0505 60.95L64.7105 59.52C65.0005 59 65.2505 58.47 65.4505 58V58.03Z" fill="#231F20"/>
</g>
<defs>
<clipPath id="clip0_1208_577">
<rect width="67.52" height="106.14" fill="white"/>
</clipPath>
</defs>
</svg>
